<svg width="46" height="26" viewBox="0 0 46 26" fill="none" xmlns="http://www.w3.org/2000/svg">
<path d="M21.5596 16.3955C21.3018 16.9971 21.1621 17.6094 21.1406 18.2324C21.1406 18.8555 21.0117 19.4141 20.7539 19.9082C20.6895 20.2734 20.625 20.5635 20.5605 20.7783C20.4961 20.9717 20.4102 21.1221 20.3027 21.2295C20.0449 21.7021 19.8301 22.0996 19.6582 22.4219C19.4863 22.7227 19.2715 22.9912 19.0137 23.2275L18.7236 23.5498C18.6592 23.7217 18.5625 23.8613 18.4336 23.9688C18.3262 24.0762 18.1973 24.1299 18.0469 24.1299C17.6387 24.3662 17.3057 24.5703 17.0479 24.7422C16.79 24.9141 16.4785 25.0215 16.1133 25.0645C15.791 25.1719 15.4473 25.1934 15.082 25.1289C14.7383 25.0859 14.416 25.1396 14.1152 25.29C13.9434 25.2256 13.75 25.1934 13.5352 25.1934C13.3203 25.2148 13.0947 25.2363 12.8584 25.2578C12.6436 25.2793 12.4395 25.2793 12.2461 25.2578C12.0527 25.2578 11.8916 25.2148 11.7627 25.1289C11.2041 25.1719 10.6885 25.1289 10.2158 25C9.74316 24.8926 9.29199 24.8174 8.8623 24.7744C8.51855 24.6455 8.16406 24.5381 7.79883 24.4521C7.43359 24.3447 7.14355 24.1406 6.92871 23.8398C6.84277 23.8184 6.76758 23.7861 6.70312 23.7432C6.63867 23.6787 6.55273 23.6465 6.44531 23.6465C6.38086 23.582 6.32715 23.5176 6.28418 23.4531C6.24121 23.3887 6.16602 23.3564 6.05859 23.3564C5.71484 23.0127 5.38184 22.7119 5.05957 22.4541C4.75879 22.1963 4.5332 21.9277 4.38281 21.6484C4.31836 21.5195 4.26465 21.4121 4.22168 21.3262C4.17871 21.2188 4.07129 21.1543 3.89941 21.1328C3.83496 20.9609 3.73828 20.8428 3.60938 20.7783C3.4375 20.7783 3.29785 20.8105 3.19043 20.875C3.08301 20.9395 2.9541 20.9395 2.80371 20.875C2.71777 20.6172 2.69629 20.4775 2.73926 20.4561C2.78223 20.4131 2.81445 20.3486 2.83594 20.2627C2.59961 19.9834 2.50293 19.7793 2.5459 19.6504C2.45996 19.5 2.3418 19.3818 2.19141 19.2959C2.0625 19.21 1.95508 19.0918 1.86914 18.9414C1.91211 18.7695 1.89062 18.6621 1.80469 18.6191C1.74023 18.5547 1.67578 18.4795 1.61133 18.3936C1.61133 18.0928 1.58984 17.8887 1.54688 17.7812C1.50391 17.6738 1.40723 17.5986 1.25684 17.5557C1.2998 17.3838 1.2998 17.2334 1.25684 17.1045C1.23535 16.9756 1.26758 16.8682 1.35352 16.7822C1.33203 16.5889 1.31055 16.4277 1.28906 16.2988C1.26758 16.1484 1.26758 15.9873 1.28906 15.8154C1.18164 15.6865 1.11719 15.5361 1.0957 15.3643C1.0957 15.1709 1.0957 14.9561 1.0957 14.7197C1.0957 14.6123 1.05273 14.5371 0.966797 14.4941C0.902344 14.4297 0.913086 14.376 0.999023 14.333L1.03125 13.9141C1.05273 13.6992 1.00977 13.5273 0.902344 13.3984C0.816406 13.248 0.848633 13.0762 0.999023 12.8828C1.04199 12.5176 1.0957 12.1738 1.16016 11.8516C1.24609 11.5078 1.26758 11.1318 1.22461 10.7236C1.39648 10.5518 1.51465 10.3584 1.5791 10.1436C1.64355 9.90723 1.72949 9.69238 1.83691 9.49902C1.79395 9.43457 1.74023 9.3916 1.67578 9.37012C1.61133 9.34863 1.55762 9.30566 1.51465 9.24121C1.60059 9.1123 1.69727 9.01562 1.80469 8.95117C1.93359 8.88672 1.9873 8.75781 1.96582 8.56445C2.15918 8.47852 2.28809 8.36035 2.35254 8.20996C2.41699 8.03809 2.50293 7.86621 2.61035 7.69434C2.5459 7.56543 2.5459 7.43652 2.61035 7.30762C2.69629 7.15723 2.71777 7.01758 2.6748 6.88867C2.91113 6.7168 3.10449 6.5127 3.25488 6.27637C3.42676 6.04004 3.63086 5.83594 3.86719 5.66406C3.88867 5.4707 3.96387 5.30957 4.09277 5.18066C4.22168 5.03027 4.35059 4.89062 4.47949 4.76172C4.62988 4.63281 4.76953 4.50391 4.89844 4.375C5.02734 4.22461 5.11328 4.05273 5.15625 3.85938C5.24219 3.83789 5.2959 3.79492 5.31738 3.73047C5.36035 3.64453 5.43555 3.59082 5.54297 3.56934C5.80078 3.33301 6.00488 3.13965 6.15527 2.98926C6.32715 2.83887 6.55273 2.70996 6.83203 2.60254C7.02539 2.3877 7.25098 2.22656 7.50879 2.11914C7.78809 1.99023 8.01367 1.80762 8.18555 1.57129C8.27148 1.61426 8.34668 1.61426 8.41113 1.57129C8.49707 1.50684 8.57227 1.45313 8.63672 1.41016C8.72266 1.3457 8.79785 1.29199 8.8623 1.24902C8.94824 1.20605 9.04492 1.19531 9.15234 1.2168C9.19531 1.10937 9.29199 1.05566 9.44238 1.05566C9.59277 1.03418 9.7002 0.969727 9.76465 0.862305C10.0869 0.862305 10.3984 0.830078 10.6992 0.765625C10.9785 0.550781 11.2148 0.464844 11.4082 0.507812C11.623 0.550781 11.8701 0.561523 12.1494 0.540039C12.3213 0.518555 12.5039 0.486328 12.6973 0.443359C12.8906 0.400391 13.1055 0.378906 13.3418 0.378906C13.5781 0.443359 13.7607 0.518555 13.8896 0.604492C14.0186 0.668945 14.1582 0.658203 14.3086 0.572266C14.3301 0.679688 14.3838 0.722656 14.4697 0.701172C14.5557 0.658203 14.6201 0.69043 14.6631 0.797852C15.1572 0.905273 15.6084 1.12012 16.0166 1.44238C16.4248 1.76465 16.7793 2.11914 17.0801 2.50586C17.2305 2.52734 17.3486 2.58105 17.4346 2.66699C17.5205 2.73145 17.5957 2.81738 17.6602 2.9248C17.7461 3.01074 17.8213 3.09668 17.8857 3.18262C17.9717 3.26855 18.0791 3.32227 18.208 3.34375C18.3154 3.38672 18.4014 3.37598 18.4658 3.31152C18.5518 3.22559 18.5947 3.11816 18.5947 2.98926C18.7236 2.83887 18.874 2.66699 19.0459 2.47363C19.2178 2.25879 19.3682 2.05469 19.4971 1.86133C19.626 1.68945 19.6904 1.49609 19.6904 1.28125C19.7119 1.06641 19.7334 0.808594 19.7549 0.507812C19.8623 0.378906 19.9697 0.335937 20.0771 0.378906C20.1846 0.421875 20.2705 0.49707 20.335 0.604492C20.3779 0.969727 20.3887 1.31348 20.3672 1.63574C20.3457 1.93652 20.3672 2.24805 20.4316 2.57031C20.4316 2.87109 20.4102 3.09668 20.3672 3.24707C20.3457 3.37598 20.3242 3.51563 20.3027 3.66602C20.4102 3.77344 20.4746 3.88086 20.4961 3.98828C20.5176 4.0957 20.5068 4.21387 20.4639 4.34277C20.4424 4.47168 20.3994 4.61133 20.335 4.76172C20.292 4.89062 20.2598 5.01953 20.2383 5.14844C20.3457 5.23437 20.4316 5.30957 20.4961 5.37402C20.5605 5.43848 20.582 5.53516 20.5605 5.66406C20.5605 5.72852 20.5391 5.79297 20.4961 5.85742C20.4531 5.90039 20.4209 5.94336 20.3994 5.98633C20.3564 6.11523 20.3564 6.24414 20.3994 6.37305C20.4424 6.50195 20.4209 6.59863 20.335 6.66309C20.4854 7.39355 20.582 8.07031 20.625 8.69336C20.668 9.31641 20.6787 9.96094 20.6572 10.627C20.4209 10.7129 20.249 10.6592 20.1416 10.4658C20.0986 10.1436 20.0557 9.88574 20.0127 9.69238C19.9912 9.49902 19.9697 9.30566 19.9482 9.1123C19.9268 8.91895 19.8945 8.72559 19.8516 8.53223C19.8301 8.31738 19.7764 8.11328 19.6904 7.91992C19.7549 7.59766 19.7334 7.28613 19.626 6.98535C19.54 6.68457 19.4756 6.4375 19.4326 6.24414C19.3252 6.22266 19.25 6.17969 19.207 6.11523C19.1855 6.05078 19.1748 5.98633 19.1748 5.92188C19.1748 5.83594 19.1855 5.75 19.207 5.66406C19.2285 5.57813 19.2285 5.49219 19.207 5.40625C19.1855 5.25586 19.1104 5.1377 18.9814 5.05176C18.8525 4.94434 18.7881 4.81543 18.7881 4.66504C18.6377 4.8584 18.541 4.94434 18.498 4.92285C18.4766 4.87988 18.4336 4.83691 18.3691 4.79395C18.3262 4.42871 18.1758 4.11719 17.918 3.85938C17.6602 3.60156 17.4453 3.32227 17.2734 3.02148C17.1875 3.02148 17.1123 3.01074 17.0479 2.98926C16.9834 2.94629 16.9189 2.91406 16.8545 2.89258C16.2959 2.14062 15.5762 1.58203 14.6953 1.2168C13.8359 0.851562 12.8262 0.744141 11.666 0.894531C11.3223 1.04492 11.043 1.18457 10.8281 1.31348C10.6133 1.4209 10.3662 1.51758 10.0869 1.60352C10.1084 1.71094 10.0547 1.78613 9.92578 1.8291C9.81836 1.87207 9.75391 1.95801 9.73242 2.08691C9.66797 2.36621 9.5498 2.54883 9.37793 2.63477C9.22754 2.7207 9.07715 2.81738 8.92676 2.9248C8.77637 3.03223 8.6582 3.16113 8.57227 3.31152C8.48633 3.44043 8.4541 3.62305 8.47559 3.85938C8.41113 3.92383 8.33594 3.98828 8.25 4.05273C8.18555 4.11719 8.12109 4.18164 8.05664 4.24609C7.9707 4.63281 7.87402 4.96582 7.7666 5.24512C7.68066 5.50293 7.59473 5.79297 7.50879 6.11523C7.61621 6.22266 7.72363 6.27637 7.83105 6.27637C7.87402 6.31934 7.89551 6.38379 7.89551 6.46973C7.89551 6.55566 7.89551 6.6416 7.89551 6.72754C7.68066 6.81348 7.53027 6.97461 7.44434 7.21094C7.3584 7.42578 7.33691 7.65137 7.37988 7.8877C7.29395 8.05957 7.26172 8.17773 7.2832 8.24219C7.32617 8.28516 7.3584 8.33887 7.37988 8.40332C7.31543 8.51074 7.2832 8.65039 7.2832 8.82227C7.2832 8.99414 7.24023 9.10156 7.1543 9.14453C7.21875 9.33789 7.24023 9.53125 7.21875 9.72461C7.21875 9.89648 7.19727 10.0791 7.1543 10.2725C7.13281 10.4443 7.10059 10.6377 7.05762 10.8525C7.03613 11.0459 7.03613 11.25 7.05762 11.4648C7.0791 11.7227 7.04688 11.959 6.96094 12.1738C6.875 12.3672 6.9502 12.5176 7.18652 12.625C7.05762 12.9043 6.96094 13.2266 6.89648 13.5918C6.83203 13.957 6.88574 14.2471 7.05762 14.4619C6.92871 14.7197 6.90723 14.8486 6.99316 14.8486C7.0791 14.8271 7.14355 14.8379 7.18652 14.8809C7.05762 15.1602 6.98242 15.2783 6.96094 15.2354C6.93945 15.1709 6.90723 15.1387 6.86426 15.1387C6.90723 15.2461 6.92871 15.3213 6.92871 15.3643C6.92871 15.3857 6.90723 15.4502 6.86426 15.5576C6.86426 15.665 6.89648 15.7402 6.96094 15.7832C7.02539 15.8262 7.00391 15.8691 6.89648 15.9121C6.91797 16.0195 6.97168 16.0947 7.05762 16.1377C7.14355 16.1592 7.16504 16.2236 7.12207 16.3311C7.05762 16.417 7.00391 16.4707 6.96094 16.4922C6.93945 16.5137 6.93945 16.5674 6.96094 16.6533C7.06836 16.7607 7.10059 16.8574 7.05762 16.9434C7.03613 17.0293 7.03613 17.126 7.05762 17.2334C7.0791 17.3408 7.11133 17.4482 7.1543 17.5557C7.21875 17.6631 7.30469 17.7168 7.41211 17.7168C7.39062 17.8242 7.36914 17.9209 7.34766 18.0068C7.34766 18.0928 7.31543 18.1572 7.25098 18.2002C7.33691 18.7158 7.51953 19.1777 7.79883 19.5859C7.8418 20.4023 7.99219 21.1758 8.25 21.9062L8.41113 22.4219C8.4541 22.4648 8.51855 22.4541 8.60449 22.3896C8.69043 22.3252 8.78711 22.3145 8.89453 22.3574C8.85156 22.4434 8.80859 22.5078 8.76562 22.5508C8.72266 22.5938 8.70117 22.6689 8.70117 22.7764C8.83008 23.0771 8.9375 23.292 9.02344 23.4209C9.13086 23.5498 9.24902 23.6572 9.37793 23.7432C9.57129 23.5498 9.64648 23.5068 9.60352 23.6143C9.56055 23.7002 9.60352 23.7324 9.73242 23.7109C9.79688 23.9473 9.86133 24.0762 9.92578 24.0977C10.0762 24.2695 10.2588 24.3984 10.4736 24.4844C10.6885 24.5488 10.9033 24.6025 11.1182 24.6455C11.3545 24.667 11.5908 24.6885 11.8271 24.71C12.0635 24.7314 12.2783 24.7852 12.4717 24.8711C12.7295 24.8066 13.0088 24.7744 13.3096 24.7744C13.6104 24.7529 13.9219 24.7529 14.2441 24.7744C14.5664 24.7959 14.8779 24.8066 15.1787 24.8066C15.501 24.7852 15.8125 24.7422 16.1133 24.6777C16.9512 24.4414 17.6279 24.0439 18.1436 23.4854C18.6807 22.9268 19.1963 22.3145 19.6904 21.6484C19.6689 21.498 19.6797 21.3584 19.7227 21.2295C19.7871 21.1006 19.8516 20.9932 19.916 20.9072C20.002 20.7998 20.0771 20.7031 20.1416 20.6172C20.2061 20.5098 20.2383 20.3916 20.2383 20.2627C20.2383 20.1768 20.2168 20.1016 20.1738 20.0371C20.1309 19.9512 20.0986 19.8652 20.0771 19.7793C20.0342 19.6074 20.0342 19.4463 20.0771 19.2959C20.1201 19.1455 20.1631 18.9629 20.2061 18.748C20.0986 18.4902 20.002 18.2109 19.916 17.9102C19.8516 17.5879 19.8193 17.2764 19.8193 16.9756C19.8193 16.6748 19.8516 16.3848 19.916 16.1055C20.002 15.8262 20.1416 15.5791 20.335 15.3643C20.4854 15.2783 20.6465 15.2568 20.8184 15.2998C21.0117 15.3213 21.1729 15.3857 21.3018 15.4932C21.4307 15.6006 21.5166 15.7402 21.5596 15.9121C21.624 16.0625 21.624 16.2236 21.5596 16.3955ZM9.76465 23.4531C9.63574 23.3242 9.56055 23.2383 9.53906 23.1953C9.51758 23.1523 9.49609 23.1094 9.47461 23.0664C9.64648 23.0879 9.72168 23.1309 9.7002 23.1953C9.7002 23.2598 9.72168 23.3457 9.76465 23.4531ZM19.3037 4.18164C19.1963 4.13867 19.1211 4.08496 19.0781 4.02051C19.0352 3.95605 18.9707 3.90234 18.8848 3.85938C18.8418 3.9668 18.8311 4.08496 18.8525 4.21387C18.8955 4.34277 18.9814 4.40723 19.1104 4.40723L19.3037 4.18164ZM19.6582 4.76172C19.5508 5.0625 19.5186 5.22363 19.5615 5.24512C19.626 5.20215 19.6797 5.12695 19.7227 5.01953C19.7656 4.89062 19.7441 4.80469 19.6582 4.76172ZM8.8623 1.92578C8.38965 2.20508 7.92773 2.57031 7.47656 3.02148C7.64844 3.04297 7.74512 3 7.7666 2.89258C7.80957 2.78516 7.90625 2.74219 8.05664 2.76367C8.16406 2.5918 8.29297 2.45215 8.44336 2.34473C8.61523 2.2373 8.75488 2.09766 8.8623 1.92578ZM20.6572 16.5244C20.4424 16.6318 20.3564 16.75 20.3994 16.8789C20.4424 17.0078 20.4961 17.1152 20.5605 17.2012C20.6035 17.1152 20.6357 17.0078 20.6572 16.8789C20.6787 16.75 20.6787 16.6318 20.6572 16.5244ZM6.96094 3.18262C6.875 3.16113 6.77832 3.18262 6.6709 3.24707C6.58496 3.29004 6.58496 3.34375 6.6709 3.4082C6.69238 3.32227 6.73535 3.2793 6.7998 3.2793C6.86426 3.25781 6.91797 3.22559 6.96094 3.18262ZM6.50977 3.44043C6.35938 3.52637 6.20898 3.62305 6.05859 3.73047C5.92969 3.83789 5.83301 3.97754 5.76855 4.14941C5.87598 4.1709 5.94043 4.14941 5.96191 4.08496C5.9834 3.99902 6.04785 3.9668 6.15527 3.98828C6.24121 3.77344 6.32715 3.65527 6.41309 3.63379C6.52051 3.6123 6.55273 3.54785 6.50977 3.44043ZM5.96191 4.31055C5.83301 4.33203 5.73633 4.35352 5.67188 4.375C5.60742 4.375 5.58594 4.42871 5.60742 4.53613C5.67188 4.49316 5.73633 4.46094 5.80078 4.43945C5.86523 4.41797 5.91895 4.375 5.96191 4.31055ZM6.50977 7.14648C6.27344 7.10352 6.1123 7.14648 6.02637 7.27539C6.24121 7.27539 6.37012 7.27539 6.41309 7.27539C6.47754 7.25391 6.50977 7.21094 6.50977 7.14648ZM7.12207 5.72852C6.97168 5.53516 6.85352 5.4707 6.76758 5.53516C6.70312 5.57813 6.61719 5.59961 6.50977 5.59961C6.42383 5.68555 6.34863 5.73926 6.28418 5.76074C6.24121 5.78223 6.19824 5.75 6.15527 5.66406C5.89746 5.64258 5.74707 5.62109 5.7041 5.59961C5.66113 5.57813 5.61816 5.55664 5.5752 5.53516C5.61816 5.59961 5.68262 5.66406 5.76855 5.72852C5.85449 5.79297 5.94043 5.79297 6.02637 5.72852C5.83301 5.94336 5.76855 6.05078 5.83301 6.05078C5.89746 6.0293 5.94043 6.04004 5.96191 6.08301C5.91895 6.12598 5.82227 6.1582 5.67188 6.17969C5.54297 6.17969 5.4248 6.1582 5.31738 6.11523C5.40332 5.92188 5.37109 5.85742 5.2207 5.92188C5.07031 5.98633 4.94141 6.04004 4.83398 6.08301C4.72656 6.25488 4.64062 6.3623 4.57617 6.40527C4.5332 6.44824 4.46875 6.46973 4.38281 6.46973C4.42578 6.68457 4.33984 6.77051 4.125 6.72754C4.10352 6.81348 4.0498 6.86719 3.96387 6.88867C3.87793 6.91016 3.80273 6.94238 3.73828 6.98535C3.67383 7.13574 3.58789 7.26465 3.48047 7.37207C3.37305 7.45801 3.29785 7.58691 3.25488 7.75879C3.29785 7.93066 3.27637 8.03809 3.19043 8.08105C3.12598 8.12402 3.06152 8.12402 2.99707 8.08105C3.25488 8.0166 3.37305 7.96289 3.35156 7.91992C3.33008 7.85547 3.34082 7.80176 3.38379 7.75879C3.57715 7.75879 3.69531 7.79102 3.73828 7.85547C3.78125 7.89844 3.8457 7.91992 3.93164 7.91992C3.88867 7.66211 3.88867 7.5332 3.93164 7.5332C3.99609 7.51172 4.06055 7.49023 4.125 7.46875C4.01758 7.27539 3.98535 7.16797 4.02832 7.14648C4.07129 7.125 4.11426 7.09277 4.15723 7.0498C4.37207 7.11426 4.51172 7.14648 4.57617 7.14648C4.66211 7.14648 4.72656 7.16797 4.76953 7.21094C4.85547 7.08203 4.94141 6.97461 5.02734 6.88867C5.13477 6.78125 5.27441 6.72754 5.44629 6.72754C5.51074 6.6416 5.54297 6.56641 5.54297 6.50195C5.56445 6.4375 5.59668 6.39453 5.63965 6.37305C5.9834 6.33008 6.25195 6.24414 6.44531 6.11523C6.66016 5.96484 6.88574 5.83594 7.12207 5.72852ZM6.7998 7.50098C6.71387 7.50098 6.5957 7.5332 6.44531 7.59766C6.29492 7.66211 6.19824 7.71582 6.15527 7.75879C5.79004 7.65137 5.60742 7.65137 5.60742 7.75879C5.65039 7.82324 5.7041 7.86621 5.76855 7.8877C5.83301 7.8877 5.87598 7.91992 5.89746 7.98438C5.74707 7.96289 5.66113 8.0166 5.63965 8.14551C5.61816 8.25293 5.53223 8.28516 5.38184 8.24219C5.53223 8.32812 5.68262 8.34961 5.83301 8.30664C5.9834 8.26367 6.12305 8.2207 6.25195 8.17773C6.40234 8.13477 6.53125 8.07031 6.63867 7.98438C6.74609 7.87695 6.7998 7.71582 6.7998 7.50098ZM5.44629 7.62988C5.38184 7.67285 5.31738 7.71582 5.25293 7.75879C5.20996 7.78027 5.14551 7.79102 5.05957 7.79102C5.18848 7.85547 5.27441 7.87695 5.31738 7.85547C5.38184 7.8125 5.4248 7.7373 5.44629 7.62988ZM6.38086 9.27344C6.23047 9.33789 6.10156 9.3916 5.99414 9.43457C5.88672 9.47754 5.81152 9.52051 5.76855 9.56348C5.96191 9.43457 6.10156 9.37012 6.1875 9.37012C6.27344 9.37012 6.33789 9.33789 6.38086 9.27344ZM5.18848 8.20996C5.03809 8.27441 4.94141 8.26367 4.89844 8.17773C4.85547 8.07031 4.74805 8.0166 4.57617 8.0166C4.23242 8.20996 4.01758 8.39258 3.93164 8.56445C3.8457 8.73633 3.67383 8.83301 3.41602 8.85449C3.56641 8.89746 3.65234 8.9082 3.67383 8.88672C3.7168 8.84375 3.79199 8.83301 3.89941 8.85449C3.96387 8.68262 4.07129 8.56445 4.22168 8.5C4.39355 8.43555 4.5332 8.34961 4.64062 8.24219C4.68359 8.30664 4.76953 8.33887 4.89844 8.33887C5.04883 8.33887 5.14551 8.2959 5.18848 8.20996ZM6.60645 9.85352C6.47754 9.81055 6.33789 9.84277 6.1875 9.9502C6.05859 10.0361 5.92969 10.0146 5.80078 9.88574C5.62891 9.97168 5.48926 9.98242 5.38184 9.91797C5.27441 9.85352 5.19922 9.82129 5.15625 9.82129C5.15625 10.0791 5.17773 10.2402 5.2207 10.3047C5.26367 10.3691 5.26367 10.4229 5.2207 10.4658C5.41406 10.3584 5.48926 10.2939 5.44629 10.2725C5.40332 10.2295 5.39258 10.1865 5.41406 10.1436C5.58594 10.2725 5.67188 10.3154 5.67188 10.2725C5.69336 10.2295 5.72559 10.208 5.76855 10.208C5.87598 10.3584 5.94043 10.4229 5.96191 10.4014C6.00488 10.3584 6.05859 10.3477 6.12305 10.3691C6.10156 10.2617 6.14453 10.208 6.25195 10.208C6.38086 10.1865 6.4668 10.1865 6.50977 10.208C6.55273 10.165 6.57422 10.1113 6.57422 10.0469C6.57422 9.98242 6.58496 9.91797 6.60645 9.85352ZM6.44531 11.207C6.25195 11.2715 6.12305 11.3145 6.05859 11.3359C6.01562 11.3359 6.01562 11.3789 6.05859 11.4648C6.23047 11.4004 6.33789 11.3574 6.38086 11.3359C6.42383 11.3145 6.44531 11.2715 6.44531 11.207ZM6.05859 11.5293C6.01562 11.4219 5.96191 11.3789 5.89746 11.4004C5.85449 11.4219 5.79004 11.4111 5.7041 11.3682C5.76855 11.4756 5.81152 11.5293 5.83301 11.5293C5.87598 11.5078 5.95117 11.5078 6.05859 11.5293ZM4.99512 10.5303C4.90918 10.3799 4.85547 10.2617 4.83398 10.1758C4.83398 10.0684 4.79102 10.0254 4.70508 10.0469C4.76953 10.1543 4.76953 10.2402 4.70508 10.3047C4.66211 10.3477 4.59766 10.3906 4.51172 10.4336C4.44727 10.4551 4.38281 10.498 4.31836 10.5625C4.25391 10.6055 4.24316 10.6807 4.28613 10.7881C4.39355 10.7881 4.46875 10.7666 4.51172 10.7236C4.55469 10.6592 4.59766 10.5947 4.64062 10.5303C4.70508 10.5947 4.76953 10.6055 4.83398 10.5625C4.89844 10.498 4.95215 10.4873 4.99512 10.5303ZM3.38379 9.14453C3.29785 9.08008 3.22266 9.05859 3.1582 9.08008C3.09375 9.10156 3.04004 9.15527 2.99707 9.24121C3.08301 9.30566 3.13672 9.29492 3.1582 9.20898C3.20117 9.12305 3.27637 9.10156 3.38379 9.14453ZM6.54199 8.72559C6.3916 8.51074 6.2627 8.43555 6.15527 8.5C6.06934 8.54297 5.95117 8.5752 5.80078 8.59668C5.28516 8.81152 4.8125 9.06934 4.38281 9.37012C3.95312 9.6709 3.49121 9.93945 2.99707 10.1758C2.91113 10.3262 2.79297 10.4551 2.64258 10.5625C2.49219 10.6484 2.3418 10.7451 2.19141 10.8525C2.0625 10.9385 1.94434 11.0566 1.83691 11.207C1.72949 11.3359 1.67578 11.5078 1.67578 11.7227C1.76172 11.6797 1.82617 11.6582 1.86914 11.6582C1.91211 11.6367 1.9873 11.6152 2.09473 11.5938C2.28809 11.3359 2.36328 11.2285 2.32031 11.2715C2.27734 11.293 2.24512 11.2822 2.22363 11.2393C2.37402 11.1533 2.5459 11.0781 2.73926 11.0137C2.9541 10.9492 3.04004 10.8311 2.99707 10.6592C3.10449 10.7021 3.2334 10.7021 3.38379 10.6592C3.55566 10.5947 3.60938 10.4766 3.54492 10.3047C3.65234 10.2617 3.72754 10.2188 3.77051 10.1758C3.83496 10.1328 3.95312 10.1328 4.125 10.1758C4.21094 9.875 4.38281 9.76758 4.64062 9.85352C4.70508 9.78906 4.7373 9.72461 4.7373 9.66016C4.7373 9.57422 4.80176 9.52051 4.93066 9.49902C5.08105 9.41309 5.23145 9.42383 5.38184 9.53125C5.46777 9.40234 5.55371 9.28418 5.63965 9.17676C5.74707 9.06934 5.85449 9.10156 5.96191 9.27344C6.09082 9.12305 6.16602 8.99414 6.1875 8.88672C6.20898 8.75781 6.32715 8.7041 6.54199 8.72559ZM6.28418 13.7852C6.09082 13.7637 5.91895 13.8281 5.76855 13.9785C5.63965 14.1289 5.52148 14.2578 5.41406 14.3652C5.58594 14.4082 5.75781 14.3652 5.92969 14.2363C6.10156 14.1074 6.21973 13.957 6.28418 13.7852ZM6.05859 10.8203C5.95117 10.8203 5.86523 10.7988 5.80078 10.7559C5.75781 10.7129 5.68262 10.7021 5.5752 10.7236C5.53223 10.8311 5.48926 10.9062 5.44629 10.9492C5.40332 10.9922 5.34961 11.0244 5.28516 11.0459C5.19922 11.1104 5.07031 11.1963 4.89844 11.3037C4.72656 11.3896 4.56543 11.4326 4.41504 11.4326C4.13574 11.6045 3.93164 11.7334 3.80273 11.8193C3.67383 11.8838 3.54492 11.916 3.41602 11.916C3.24414 12.1309 3.12598 12.2383 3.06152 12.2383C2.99707 12.2168 2.94336 12.2275 2.90039 12.2705C2.90039 12.3779 2.86816 12.4639 2.80371 12.5283C2.73926 12.5928 2.65332 12.6035 2.5459 12.5605C2.50293 12.6895 2.37402 12.8506 2.15918 13.0439C1.96582 13.2158 1.76172 13.248 1.54688 13.1406C1.56836 13.0117 1.60059 12.9365 1.64355 12.915C1.68652 12.8721 1.71875 12.7646 1.74023 12.5928C1.84766 12.5928 1.92285 12.5713 1.96582 12.5283C2.00879 12.4854 2.07324 12.4424 2.15918 12.3994C2.35254 12.3135 2.43848 12.2598 2.41699 12.2383C2.41699 12.1953 2.41699 12.1523 2.41699 12.1094C2.52441 12.0664 2.59961 12.0234 2.64258 11.9805C2.68555 11.916 2.76074 11.8838 2.86816 11.8838C2.84668 11.8408 2.86816 11.7979 2.93262 11.7549C2.99707 11.7119 3.07227 11.6689 3.1582 11.626C3.26562 11.583 3.37305 11.5508 3.48047 11.5293C3.58789 11.5078 3.67383 11.4971 3.73828 11.4971C3.73828 11.3467 3.74902 11.2393 3.77051 11.1748C3.79199 11.0889 3.85645 11.0889 3.96387 11.1748C3.74902 10.9814 3.59863 10.96 3.5127 11.1104C3.44824 11.2393 3.31934 11.2715 3.12598 11.207L2.86816 11.5938C2.69629 11.6367 2.56738 11.7119 2.48145 11.8193C2.39551 11.9268 2.32031 12.0557 2.25586 12.2061C2.10547 12.2275 1.96582 12.2598 1.83691 12.3027C1.70801 12.3242 1.58984 12.3779 1.48242 12.4639C1.39648 12.7646 1.375 13.0225 1.41797 13.2373C1.48242 13.4521 1.52539 13.6455 1.54688 13.8174C1.67578 13.7314 1.7832 13.667 1.86914 13.624C1.95508 13.5811 2.04102 13.5381 2.12695 13.4951C2.23438 13.4521 2.32031 13.4092 2.38477 13.3662C2.4707 13.3018 2.50293 13.2158 2.48145 13.1084C2.6748 13.001 2.86816 12.8613 3.06152 12.6895C3.25488 12.4961 3.45898 12.4209 3.67383 12.4639C3.73828 12.3564 3.80273 12.2598 3.86719 12.1738C3.95312 12.0879 4.08203 12.0664 4.25391 12.1094C4.29688 12.002 4.35059 11.9375 4.41504 11.916C4.47949 11.873 4.5332 11.8193 4.57617 11.7549C4.89844 11.8623 5.05957 11.873 5.05957 11.7871C5.08105 11.7012 5.13477 11.7119 5.2207 11.8193C5.02734 11.7334 4.89844 11.7012 4.83398 11.7227C4.79102 11.7441 4.75879 11.7334 4.7373 11.6904C4.86621 11.6475 4.96289 11.583 5.02734 11.4971C5.11328 11.4111 5.24219 11.3682 5.41406 11.3682C5.54297 11.2393 5.61816 11.1641 5.63965 11.1426C5.66113 11.1211 5.69336 11.1318 5.73633 11.1748C5.7793 11.0674 5.88672 10.9492 6.05859 10.8203ZM6.31641 11.8838C6.10156 11.9268 5.91895 11.959 5.76855 11.9805C5.61816 11.9805 5.46777 12.002 5.31738 12.0449C5.27441 12.1523 5.20996 12.2275 5.12402 12.2705C5.03809 12.292 4.94141 12.3135 4.83398 12.335C4.74805 12.3564 4.66211 12.3779 4.57617 12.3994C4.49023 12.4209 4.42578 12.4746 4.38281 12.5605C4.21094 12.625 4.06055 12.7109 3.93164 12.8184C3.82422 12.9258 3.68457 13.0225 3.5127 13.1084C3.27637 13.1943 3.08301 13.3125 2.93262 13.4629C2.78223 13.5918 2.61035 13.71 2.41699 13.8174C2.15918 13.9893 1.93359 14.1504 1.74023 14.3008C1.54688 14.4297 1.48242 14.623 1.54688 14.8809C1.7832 14.8594 1.97656 14.7734 2.12695 14.623C2.27734 14.4727 2.43848 14.3867 2.61035 14.3652C2.80371 14.2148 2.90039 14.1289 2.90039 14.1074C2.92188 14.0859 2.92188 14.0537 2.90039 14.0107C3.1582 13.8604 3.40527 13.7314 3.6416 13.624C3.87793 13.4951 4.10352 13.3555 4.31836 13.2051C4.59766 13.0762 4.78027 12.9795 4.86621 12.915C4.95215 12.8291 5.02734 12.7539 5.0918 12.6895C5.17773 12.6035 5.27441 12.5283 5.38184 12.4639C5.48926 12.3994 5.62891 12.3672 5.80078 12.3672C5.88672 12.1523 6.05859 11.9912 6.31641 11.8838ZM5.63965 14.6553C5.36035 14.5908 5.17773 14.5479 5.0918 14.5264C5.02734 14.5049 4.94141 14.5479 4.83398 14.6553C4.74805 14.7627 4.69434 14.8379 4.67285 14.8809C4.67285 14.9238 4.65137 14.9668 4.6084 15.0098C4.50098 15.0527 4.38281 15.085 4.25391 15.1064C4.14648 15.1064 4.0498 15.1279 3.96387 15.1709C4.0498 15.2139 4.15723 15.2676 4.28613 15.332C4.39355 15.2461 4.50098 15.2031 4.6084 15.2031C4.71582 15.1816 4.80176 15.1494 4.86621 15.1064C4.8877 14.9131 5.00586 14.7842 5.2207 14.7197C5.32812 14.8057 5.4248 14.8486 5.51074 14.8486C5.59668 14.8271 5.63965 14.7627 5.63965 14.6553ZM6.21973 13.0762C6.09082 12.9043 5.99414 12.8506 5.92969 12.915C5.88672 12.958 5.83301 12.9258 5.76855 12.8184C5.66113 12.9473 5.54297 13.0547 5.41406 13.1406C5.30664 13.2266 5.14551 13.2695 4.93066 13.2695C4.86621 13.3984 4.76953 13.4951 4.64062 13.5596C4.5332 13.6025 4.41504 13.6455 4.28613 13.6885C4.15723 13.7314 4.03906 13.7852 3.93164 13.8496C3.82422 13.9141 3.75977 14.0107 3.73828 14.1396C3.50195 14.1611 3.3623 14.2148 3.31934 14.3008C3.27637 14.3867 3.19043 14.4189 3.06152 14.3975C2.99707 14.5049 2.91113 14.6123 2.80371 14.7197C2.71777 14.8057 2.58887 14.8486 2.41699 14.8486C2.33105 15.0635 2.19141 15.2246 1.99805 15.332C1.82617 15.4395 1.69727 15.6006 1.61133 15.8154C1.6543 16.0518 1.68652 16.2451 1.70801 16.3955C1.75098 16.5244 1.79395 16.6318 1.83691 16.7178C2.03027 16.5029 2.09473 16.3418 2.03027 16.2344C1.9873 16.127 2.03027 16.0088 2.15918 15.8799C2.05176 15.7725 2.05176 15.6865 2.15918 15.6221C2.2666 15.5576 2.37402 15.5039 2.48145 15.4609C2.58887 15.3965 2.68555 15.332 2.77148 15.2676C2.87891 15.1816 2.9541 15.0742 2.99707 14.9453C3.14746 14.9453 3.27637 14.8916 3.38379 14.7842C3.5127 14.6553 3.63086 14.6445 3.73828 14.752C3.78125 14.5156 3.88867 14.4297 4.06055 14.4941C4.10352 14.3223 4.21094 14.2148 4.38281 14.1719C4.55469 14.1074 4.71582 14.0215 4.86621 13.9141C5.14551 13.6777 5.39258 13.5166 5.60742 13.4307C5.82227 13.3447 6.02637 13.2266 6.21973 13.0762ZM6.21973 17.7812C6.17676 17.7383 6.08008 17.7168 5.92969 17.7168C5.7793 17.7168 5.72559 17.7705 5.76855 17.8779C5.89746 17.9424 6.04785 17.9102 6.21973 17.7812ZM6.7998 18.5869C6.71387 18.5439 6.64941 18.501 6.60645 18.458C6.58496 18.3936 6.53125 18.3506 6.44531 18.3291C6.48828 18.3721 6.53125 18.4473 6.57422 18.5547C6.61719 18.6406 6.69238 18.6514 6.7998 18.5869ZM6.28418 16.1699C6.15527 15.9336 6.04785 15.8369 5.96191 15.8799C5.89746 15.9014 5.83301 15.9336 5.76855 15.9766C5.7041 16.0195 5.62891 16.0625 5.54297 16.1055C5.47852 16.1484 5.39258 16.1699 5.28516 16.1699C5.43555 15.998 5.63965 15.8154 5.89746 15.6221C6.15527 15.4287 6.24121 15.2354 6.15527 15.042C6.00488 15.085 5.87598 15.1172 5.76855 15.1387C5.66113 15.1387 5.53223 15.1602 5.38184 15.2031C5.14551 15.3105 4.93066 15.4287 4.7373 15.5576C4.54395 15.6865 4.38281 15.8262 4.25391 15.9766C4.16797 16.084 4.09277 16.1377 4.02832 16.1377C3.98535 16.1162 3.9209 16.1055 3.83496 16.1055C3.5127 16.2773 3.28711 16.4277 3.1582 16.5566C3.05078 16.6855 2.85742 16.7285 2.57812 16.6855C2.68555 16.8145 2.6748 16.9111 2.5459 16.9756C2.43848 17.04 2.33105 17.1045 2.22363 17.1689C2.1377 17.2334 2.07324 17.3086 2.03027 17.3945C1.9873 17.4805 2.01953 17.5986 2.12695 17.749C2.23438 17.7705 2.29883 17.7598 2.32031 17.7168C2.36328 17.6523 2.42773 17.6094 2.51367 17.5879C2.49219 17.7383 2.45996 17.8457 2.41699 17.9102C2.39551 17.9746 2.3418 18.0176 2.25586 18.0391C2.29883 18.2109 2.32031 18.3291 2.32031 18.3936C2.3418 18.4365 2.3418 18.5439 2.32031 18.7158C2.49219 18.7803 2.62109 18.8984 2.70703 19.0703C2.79297 19.2207 2.9541 19.2637 3.19043 19.1992C3.21191 19.0918 3.19043 19.0166 3.12598 18.9736C3.06152 18.9307 3.04004 18.8555 3.06152 18.748C3.25488 18.5332 3.31934 18.415 3.25488 18.3936C3.21191 18.3721 3.19043 18.3291 3.19043 18.2646C3.34082 18.1357 3.50195 18.1035 3.67383 18.168C3.86719 18.2109 4.01758 18.1572 4.125 18.0068C4.08203 17.9639 3.99609 17.9639 3.86719 18.0068C3.75977 18.0283 3.7168 17.9746 3.73828 17.8457C3.80273 17.7812 3.89941 17.7598 4.02832 17.7812C4.15723 17.7812 4.28613 17.792 4.41504 17.8135C4.54395 17.8135 4.65137 17.8027 4.7373 17.7812C4.84473 17.7598 4.8877 17.6846 4.86621 17.5557C4.99512 17.5771 5.05957 17.5557 5.05957 17.4912C5.08105 17.4268 5.12402 17.373 5.18848 17.3301C5.40332 17.3301 5.56445 17.3193 5.67188 17.2979C5.80078 17.2549 5.91895 17.2119 6.02637 17.1689C6.09082 16.9756 6.13379 16.8574 6.15527 16.8145C6.19824 16.75 6.19824 16.6963 6.15527 16.6533C6.2627 16.6318 6.32715 16.5674 6.34863 16.46C6.37012 16.3311 6.34863 16.2344 6.28418 16.1699ZM6.05859 18.4902C6.01562 18.3828 5.94043 18.3613 5.83301 18.4258C5.74707 18.4688 5.66113 18.4795 5.5752 18.458C5.51074 18.5225 5.45703 18.5762 5.41406 18.6191C5.37109 18.6621 5.2959 18.6729 5.18848 18.6514C5.18848 18.7158 5.15625 18.7695 5.0918 18.8125C5.04883 18.834 4.99512 18.8662 4.93066 18.9092C4.86621 18.9307 4.8125 18.9629 4.76953 19.0059C4.72656 19.0273 4.71582 19.0703 4.7373 19.1348C4.80176 19.0703 4.86621 19.0703 4.93066 19.1348C5.0166 19.1992 5.08105 19.1992 5.12402 19.1348C5.18848 19.0703 5.23145 19.0166 5.25293 18.9736C5.27441 18.9092 5.33887 18.8662 5.44629 18.8447C5.53223 18.8877 5.59668 18.9199 5.63965 18.9414C5.68262 18.9414 5.75781 18.9199 5.86523 18.877C5.82227 18.6836 5.82227 18.5762 5.86523 18.5547C5.9082 18.5117 5.97266 18.4902 6.05859 18.4902ZM6.7998 19.5537C6.69238 19.5537 6.64941 19.5107 6.6709 19.4248C6.71387 19.3174 6.68164 19.2422 6.57422 19.1992C6.4668 18.9414 6.38086 18.7803 6.31641 18.7158C6.27344 18.9307 6.34863 19.1133 6.54199 19.2637C6.28418 19.2207 6.14453 19.1885 6.12305 19.167C6.10156 19.1455 6.06934 19.1133 6.02637 19.0703C5.79004 19.0703 5.65039 19.0918 5.60742 19.1348C5.58594 19.1562 5.54297 19.1562 5.47852 19.1348C5.47852 19.2422 5.51074 19.2959 5.5752 19.2959C5.66113 19.2744 5.71484 19.3066 5.73633 19.3926C5.58594 19.3926 5.43555 19.4678 5.28516 19.6182C5.13477 19.7471 4.95215 19.79 4.7373 19.7471C4.90918 19.79 5.0166 19.8438 5.05957 19.9082C5.12402 19.9727 5.19922 20.0156 5.28516 20.0371C5.37109 19.8867 5.46777 19.8115 5.5752 19.8115C5.63965 19.6396 5.75781 19.5537 5.92969 19.5537C6.12305 19.5322 6.29492 19.4893 6.44531 19.4248C6.16602 19.6396 5.95117 19.876 5.80078 20.1338C5.60742 20.1768 5.51074 20.2197 5.51074 20.2627C5.51074 20.2842 5.47852 20.3057 5.41406 20.3271C5.34961 20.4131 5.30664 20.4883 5.28516 20.5527C5.26367 20.6172 5.18848 20.6279 5.05957 20.585C4.95215 20.8213 4.83398 20.9502 4.70508 20.9717C4.59766 20.9717 4.56543 21.0469 4.6084 21.1973C4.69434 21.2188 4.75879 21.208 4.80176 21.165C4.86621 21.1221 4.90918 21.0791 4.93066 21.0361C4.97363 20.9932 5.0166 20.9609 5.05957 20.9395C5.10254 20.8965 5.15625 20.8857 5.2207 20.9072C5.45703 20.7998 5.5752 20.7139 5.5752 20.6494C5.59668 20.585 5.63965 20.5312 5.7041 20.4883C5.85449 20.5312 5.9834 20.5205 6.09082 20.4561C6.19824 20.3701 6.29492 20.3057 6.38086 20.2627C6.40234 20.1338 6.48828 20.0371 6.63867 19.9727C6.78906 19.9082 6.84277 19.7686 6.7998 19.5537ZM8.89453 24.1621C8.72266 24.0117 8.56152 23.8291 8.41113 23.6143C8.28223 23.3994 8.11035 23.2705 7.89551 23.2275C7.70215 23.3779 7.57324 23.4639 7.50879 23.4854C7.46582 23.4854 7.42285 23.4639 7.37988 23.4209C7.33691 23.292 7.31543 23.1416 7.31543 22.9697C7.37988 22.9912 7.43359 22.9805 7.47656 22.9375C7.54102 22.873 7.60547 22.8193 7.66992 22.7764C7.60547 22.7119 7.60547 22.6475 7.66992 22.583C7.73438 22.4971 7.77734 22.4326 7.79883 22.3896C7.82031 22.2822 7.79883 22.207 7.73438 22.1641C7.66992 22.1211 7.59473 22.0889 7.50879 22.0674C7.44434 22.0244 7.37988 21.9922 7.31543 21.9707C7.25098 21.9277 7.22949 21.8633 7.25098 21.7773C7.33691 21.7129 7.40137 21.6699 7.44434 21.6484C7.4873 21.6055 7.4873 21.5195 7.44434 21.3906C7.25098 21.3047 7.12207 21.3369 7.05762 21.4873C7.01465 21.6377 6.9502 21.7666 6.86426 21.874C6.84277 21.8096 6.81055 21.7559 6.76758 21.7129C6.74609 21.6699 6.73535 21.6055 6.73535 21.5195C6.84277 21.4766 6.91797 21.4229 6.96094 21.3584C7.02539 21.2725 7.11133 21.2295 7.21875 21.2295C7.24023 21.1221 7.25098 21.0469 7.25098 21.0039C7.27246 20.9609 7.2832 20.875 7.2832 20.7461C7.21875 20.6816 7.13281 20.6602 7.02539 20.6816C6.93945 20.7031 6.90723 20.6709 6.92871 20.585C7.0791 20.499 7.17578 20.4131 7.21875 20.3271C7.26172 20.2197 7.22949 20.1445 7.12207 20.1016C7.0791 20.2305 7.01465 20.2949 6.92871 20.2949C6.86426 20.2949 6.77832 20.2734 6.6709 20.2305C6.86426 20.3594 6.98242 20.4238 7.02539 20.4238C7.08984 20.4238 7.12207 20.4453 7.12207 20.4883C6.99316 20.4453 6.90723 20.4668 6.86426 20.5527C6.84277 20.6172 6.77832 20.6172 6.6709 20.5527C6.73535 20.6172 6.74609 20.7031 6.70312 20.8105C6.68164 20.8965 6.62793 20.9609 6.54199 21.0039C6.37012 21.0469 6.23047 21.0898 6.12305 21.1328C6.03711 21.1543 5.92969 21.1543 5.80078 21.1328C5.71484 21.3047 5.63965 21.3799 5.5752 21.3584C5.53223 21.3369 5.5 21.3584 5.47852 21.4229C5.45703 21.4443 5.41406 21.5088 5.34961 21.6162C5.28516 21.7021 5.23145 21.7773 5.18848 21.8418C5.2959 21.9062 5.37109 21.9922 5.41406 22.0996C5.47852 22.1855 5.5752 22.25 5.7041 22.293C5.81152 22.1641 5.9834 22.0889 6.21973 22.0674C6.45605 22.0244 6.64941 22.0352 6.7998 22.0996C6.7998 22.207 6.73535 22.2715 6.60645 22.293C6.49902 22.3145 6.48828 22.3574 6.57422 22.4219C6.33789 22.5293 6.21973 22.6367 6.21973 22.7441C6.62793 23.1523 7.04688 23.4639 7.47656 23.6787C7.90625 23.8936 8.37891 24.0547 8.89453 24.1621ZM4.57617 19.3604C4.44727 19.3389 4.30762 19.3496 4.15723 19.3926C4.00684 19.4355 3.89941 19.5215 3.83496 19.6504C3.94238 19.6074 4.01758 19.6074 4.06055 19.6504C4.10352 19.6719 4.14648 19.6504 4.18945 19.5859C4.10352 19.5 4.125 19.457 4.25391 19.457C4.4043 19.4355 4.51172 19.4033 4.57617 19.3604ZM4.83398 19.876C4.61914 20.0049 4.46875 20.0586 4.38281 20.0371C4.4043 20.123 4.47949 20.1553 4.6084 20.1338C4.75879 20.0908 4.83398 20.0049 4.83398 19.876ZM5.12402 20.4238C5.0166 20.3809 4.91992 20.3594 4.83398 20.3594C4.74805 20.3594 4.68359 20.4131 4.64062 20.5205C4.74805 20.5205 4.84473 20.5312 4.93066 20.5527C5.0166 20.5527 5.08105 20.5098 5.12402 20.4238ZM5.38184 6.40527C5.2959 6.5127 5.18848 6.59863 5.05957 6.66309C4.93066 6.70605 4.82324 6.70605 4.7373 6.66309C4.80176 6.57715 4.8877 6.52344 4.99512 6.50195C5.12402 6.48047 5.18848 6.39453 5.18848 6.24414L5.38184 6.40527ZM5.89746 16.9111C5.87598 17.0186 5.83301 17.0615 5.76855 17.04C5.72559 17.0186 5.66113 17.0293 5.5752 17.0723C5.59668 16.9648 5.62891 16.9219 5.67188 16.9434C5.73633 16.9648 5.81152 16.9541 5.89746 16.9111ZM5.25293 16.2021C5.18848 16.3096 5.07031 16.3848 4.89844 16.4277C4.74805 16.4492 4.61914 16.5244 4.51172 16.6533C4.61914 16.5459 4.72656 16.4492 4.83398 16.3633C4.94141 16.2773 5.08105 16.2236 5.25293 16.2021ZM4.44727 16.75C4.38281 16.75 4.31836 16.7607 4.25391 16.7822C4.18945 16.8037 4.13574 16.8252 4.09277 16.8467C4.13574 16.6533 4.18945 16.5566 4.25391 16.5566C4.31836 16.5566 4.38281 16.5674 4.44727 16.5889V16.75ZM3.93164 16.6533C4.03906 16.7178 4.0498 16.8037 3.96387 16.9111C3.89941 17.0186 3.8457 17.1045 3.80273 17.1689C3.58789 17.1689 3.45898 17.2334 3.41602 17.3623C3.24414 17.2764 3.12598 17.2871 3.06152 17.3945C3.01855 17.502 2.94336 17.5771 2.83594 17.6201C2.94336 17.4482 2.97559 17.3408 2.93262 17.2979C2.91113 17.2334 2.91113 17.1797 2.93262 17.1367C2.99707 17.0293 3.09375 17.0078 3.22266 17.0723C3.35156 17.1152 3.4375 17.083 3.48047 16.9756C3.56641 17.1045 3.63086 17.0938 3.67383 16.9434C3.73828 16.7715 3.82422 16.6748 3.93164 16.6533ZM45.9229 22.7441C45.7939 22.959 45.6865 23.1416 45.6006 23.292C45.5361 23.4424 45.5684 23.6357 45.6973 23.8721C45.6328 24.1729 45.6113 24.4199 45.6328 24.6133C45.6758 24.8066 45.7188 25.0322 45.7617 25.29C45.6543 25.333 45.5254 25.333 45.375 25.29C45.2461 25.2686 45.1064 25.2471 44.9561 25.2256C44.8057 25.2041 44.666 25.2041 44.5371 25.2256C44.4297 25.2686 44.3545 25.3652 44.3115 25.5156C44.1611 25.5371 44.043 25.5156 43.957 25.4512C43.8926 25.4082 43.8281 25.3545 43.7637 25.29C43.4414 25.2686 43.1191 25.3008 42.7969 25.3867C42.4961 25.4727 42.1953 25.4619 41.8945 25.3545C41.7227 25.376 41.54 25.3867 41.3467 25.3867C41.1748 25.3867 41.0352 25.4297 40.9277 25.5156C40.6055 25.4082 40.208 25.3545 39.7354 25.3545C39.2627 25.3545 38.8223 25.3438 38.4141 25.3223H36.3516C36.1152 25.3223 35.8789 25.3008 35.6426 25.2578C35.4277 25.2363 35.2021 25.2471 34.9658 25.29C34.7939 25.3115 34.6221 25.3115 34.4502 25.29C34.2783 25.2686 34.0742 25.2578 33.8379 25.2578C33.2578 25.2363 32.71 25.2471 32.1943 25.29C31.6787 25.333 31.1094 25.333 30.4863 25.29C30.1641 25.2686 29.8203 25.2686 29.4551 25.29C29.1113 25.333 28.7998 25.3438 28.5205 25.3223C28.2627 25.2793 27.9941 25.29 27.7148 25.3545C27.4355 25.4189 27.1885 25.4189 26.9736 25.3545C26.5439 25.376 26.1035 25.376 25.6523 25.3545C25.2227 25.333 24.7393 25.3438 24.2021 25.3867C23.9014 25.4297 23.5791 25.4619 23.2354 25.4834C22.8916 25.5049 22.5586 25.4941 22.2363 25.4512C22.1074 25.4297 22.0107 25.3438 21.9463 25.1934C21.8818 25.0645 21.9141 24.9463 22.043 24.8389C22.3438 24.7314 22.7197 24.6777 23.1709 24.6777C23.6221 24.6562 24.0303 24.6133 24.3955 24.5488C24.5889 24.5059 24.7822 24.4736 24.9756 24.4521C25.1904 24.4092 25.3516 24.3447 25.459 24.2588C25.5664 24.1943 25.6309 24.1084 25.6523 24.001C25.6738 23.8721 25.7275 23.7646 25.8135 23.6787C25.9209 23.5928 26.0176 23.5391 26.1035 23.5176C26.1895 23.4961 26.2861 23.4531 26.3936 23.3887C26.5225 23.0664 26.5654 22.7227 26.5225 22.3574C26.501 21.9922 26.5117 21.6592 26.5547 21.3584C26.5547 21.2725 26.5225 21.2188 26.458 21.1973C26.415 21.1543 26.3721 21.1113 26.3291 21.0684C26.3076 20.9609 26.3184 20.8857 26.3613 20.8428C26.4043 20.7783 26.4473 20.7139 26.4902 20.6494C26.4902 20.3916 26.4258 20.2197 26.2969 20.1338C26.1895 20.0479 26.1357 19.9189 26.1357 19.7471C26.2861 19.5752 26.4043 19.3818 26.4902 19.167C26.5762 18.9521 26.5869 18.7051 26.5225 18.4258C26.501 18.3184 26.458 18.2109 26.3936 18.1035C26.3291 17.9961 26.3291 17.8887 26.3936 17.7812C26.5439 17.2871 26.6299 16.9326 26.6514 16.7178C26.6729 16.4814 26.6943 16.1484 26.7158 15.7188C26.501 15.5254 26.4043 15.3428 26.4258 15.1709C26.4473 15.042 26.4902 14.9561 26.5547 14.9131C26.6191 14.8701 26.6299 14.7842 26.5869 14.6553C26.5439 14.5049 26.4688 14.4189 26.3613 14.3975C26.2539 14.376 26.2002 14.2578 26.2002 14.043C26.2646 14.0215 26.3398 13.957 26.4258 13.8496C26.5117 13.7207 26.501 13.6025 26.3936 13.4951C26.2861 13.5811 26.1465 13.6133 25.9746 13.5918C25.8242 13.5488 25.749 13.5811 25.749 13.6885C25.6201 13.6455 25.5449 13.5918 25.5234 13.5273C25.5234 13.4414 25.5449 13.3662 25.5879 13.3018C25.6309 13.2158 25.6738 13.1406 25.7168 13.0762C25.7812 12.9902 25.8242 12.915 25.8457 12.8506C25.9746 12.8936 26.0713 12.8506 26.1357 12.7217C26.2002 12.5713 26.2969 12.5283 26.4258 12.5928C26.4258 12.3135 26.415 12.0449 26.3936 11.7871C26.3936 11.5293 26.4043 11.2822 26.4258 11.0459C26.4043 10.96 26.3506 10.9277 26.2646 10.9492C26.2002 10.9492 26.1465 10.9277 26.1035 10.8848C26.0605 10.8418 26.0068 10.7236 25.9424 10.5303C25.9854 10.4443 26.0391 10.3584 26.1035 10.2725C26.1895 10.1865 26.2646 10.1006 26.3291 10.0146C26.3936 9.90723 26.4365 9.81055 26.458 9.72461C26.4795 9.61719 26.458 9.50977 26.3936 9.40234C26.415 9.23047 26.4258 9.10156 26.4258 9.01562C26.4473 8.9082 26.3721 8.84375 26.2002 8.82227C26.2002 8.65039 26.2217 8.48926 26.2646 8.33887C26.3291 8.16699 26.3828 8.00586 26.4258 7.85547C26.4688 7.70508 26.4902 7.55469 26.4902 7.4043C26.5117 7.25391 26.4795 7.10352 26.3936 6.95312C26.415 6.88867 26.4473 6.81348 26.4902 6.72754C26.5332 6.6416 26.5332 6.56641 26.4902 6.50195C26.2539 6.33008 26.1465 6.21191 26.168 6.14746C26.2109 6.06152 26.1787 5.99707 26.0713 5.9541C26.1357 5.86816 26.2002 5.78223 26.2646 5.69629C26.3506 5.58887 26.4258 5.49219 26.4902 5.40625C26.5547 5.29883 26.5869 5.19141 26.5869 5.08398C26.6084 4.97656 26.5762 4.8584 26.4902 4.72949C26.5977 4.55762 26.6299 4.39648 26.5869 4.24609C26.5439 4.0957 26.5762 3.95605 26.6836 3.82715C26.5762 3.78418 26.5225 3.67676 26.5225 3.50488C26.5225 3.33301 26.5332 3.19336 26.5547 3.08594C26.5332 3 26.4902 2.94629 26.4258 2.9248C26.3613 2.88184 26.3076 2.83887 26.2646 2.7959C26.3291 2.47363 26.2969 2.20508 26.168 1.99023C26.0605 1.77539 25.8994 1.61426 25.6846 1.50684C25.4697 1.37793 25.2227 1.31348 24.9434 1.31348C24.6641 1.29199 24.4062 1.3457 24.1699 1.47461C24.127 1.41016 24.0625 1.37793 23.9766 1.37793C23.9121 1.37793 23.8477 1.37793 23.7832 1.37793C23.7188 1.35645 23.665 1.32422 23.6221 1.28125C23.5791 1.23828 23.5576 1.16309 23.5576 1.05566C23.2783 1.12012 22.9883 1.15234 22.6875 1.15234C22.3867 1.15234 22.0859 1.1416 21.7852 1.12012C21.7852 0.991211 21.8174 0.894531 21.8818 0.830078C21.9248 0.765625 21.957 0.69043 21.9785 0.604492C22.1289 0.561523 22.29 0.550781 22.4619 0.572266C22.6553 0.59375 22.8379 0.625977 23.0098 0.668945C23.1816 0.69043 23.3535 0.701172 23.5254 0.701172C23.6973 0.679688 23.8584 0.615234 24.0088 0.507812C24.5889 0.59375 25.1689 0.636719 25.749 0.636719C26.3291 0.636719 26.8984 0.625977 27.457 0.604492C28.0371 0.561523 28.6064 0.529297 29.165 0.507812C29.7236 0.486328 30.293 0.486328 30.873 0.507812C31.4531 0.529297 32.0869 0.529297 32.7744 0.507812C33.4834 0.464844 34.1279 0.421875 34.708 0.378906C35.0303 0.357422 35.3848 0.34668 35.7715 0.34668C36.1582 0.34668 36.5557 0.335937 36.9639 0.314453C37.501 0.292969 37.9951 0.292969 38.4463 0.314453C38.9189 0.335937 39.4453 0.325195 40.0254 0.282227C40.1973 0.260742 40.3477 0.239258 40.4766 0.217773C40.627 0.196289 40.7881 0.196289 40.96 0.217773C41.1963 0.239258 41.4648 0.271484 41.7656 0.314453C42.0879 0.357422 42.3779 0.357422 42.6357 0.314453C42.7002 0.314453 42.7646 0.303711 42.8291 0.282227C42.8936 0.239258 42.958 0.207031 43.0225 0.185547C43.3232 0.121094 43.6133 0.110352 43.8926 0.15332C44.1934 0.174805 44.4619 0.271484 44.6982 0.443359C44.7412 0.572266 44.7412 0.754883 44.6982 0.991211C44.6768 1.20605 44.7305 1.36719 44.8594 1.47461C44.8379 1.58203 44.8057 1.66797 44.7627 1.73242C44.7197 1.77539 44.6768 1.8291 44.6338 1.89355C44.7842 2.1084 44.8594 2.2373 44.8594 2.28027C44.9883 2.40918 45.0098 2.49512 44.9238 2.53809C44.8594 2.58105 44.7842 2.60254 44.6982 2.60254C44.7842 2.70996 44.7412 2.84961 44.5693 3.02148C44.6338 3.23633 44.666 3.45117 44.666 3.66602C44.6875 3.88086 44.6875 4.10645 44.666 4.34277C44.666 4.55762 44.666 4.7832 44.666 5.01953C44.666 5.25586 44.6875 5.50293 44.7305 5.76074C44.623 5.88965 44.5908 6.00781 44.6338 6.11523C44.6982 6.20117 44.7412 6.37305 44.7627 6.63086C44.7197 7.01758 44.6982 7.39355 44.6982 7.75879C44.6982 8.10254 44.752 8.4248 44.8594 8.72559C44.6875 9.00488 44.6016 9.24121 44.6016 9.43457C44.623 9.60645 44.5801 9.77832 44.4727 9.9502C44.3223 9.9502 44.2256 9.90723 44.1826 9.82129C44.1396 9.73535 44.1074 9.62793 44.0859 9.49902C44.0645 9.37012 44.0537 9.24121 44.0537 9.1123C44.0537 8.9834 44.0322 8.87598 43.9893 8.79004C44.1182 8.63965 44.1826 8.47852 44.1826 8.30664C44.1826 8.13477 44.1396 7.96289 44.0537 7.79102C43.9893 7.61914 43.9033 7.44727 43.7959 7.27539C43.6885 7.10352 43.6025 6.94238 43.5381 6.79199C43.3877 6.77051 43.291 6.7168 43.248 6.63086C43.2051 6.52344 43.1406 6.41602 43.0547 6.30859C43.1191 6.07227 43.0762 5.90039 42.9258 5.79297C42.7969 5.66406 42.7002 5.51367 42.6357 5.3418C42.5283 4.91211 42.3887 4.60059 42.2168 4.40723C42.0449 4.19238 41.9375 3.97754 41.8945 3.7627C41.7656 3.78418 41.6797 3.7627 41.6367 3.69824C41.6152 3.63379 41.5615 3.58008 41.4756 3.53711C41.4541 3.2793 41.4004 3.12891 41.3145 3.08594C41.2285 3.04297 41.1855 2.96777 41.1855 2.86035C40.9707 2.7959 40.7988 2.67773 40.6699 2.50586C40.541 2.3125 40.3584 2.22656 40.1221 2.24805C39.9502 2.07617 39.7891 1.9043 39.6387 1.73242C39.5098 1.56055 39.3379 1.39941 39.123 1.24902C38.9941 1.1416 38.8438 1.07715 38.6719 1.05566C38.5215 1.03418 38.3496 1.00195 38.1562 0.958984C38.1133 0.916016 38.0596 0.883789 37.9951 0.862305C37.9521 0.819336 37.8984 0.797852 37.834 0.797852C37.6836 0.776367 37.501 0.765625 37.2861 0.765625C37.0928 0.765625 36.8994 0.787109 36.7061 0.830078C36.2334 0.830078 35.8682 0.894531 35.6104 1.02344C34.8154 1.02344 34.0742 1.03418 33.3867 1.05566C32.7207 1.07715 32.1514 1.22754 31.6787 1.50684C31.7217 1.78613 31.6572 1.97949 31.4854 2.08691C31.5283 2.19434 31.582 2.26953 31.6465 2.3125C31.7324 2.35547 31.8184 2.39844 31.9043 2.44141C31.9688 2.69922 31.9795 2.83887 31.9365 2.86035C31.8936 2.88184 31.8506 2.91406 31.8076 2.95703C31.7432 3.19336 31.6787 3.32227 31.6143 3.34375C31.5713 3.34375 31.5605 3.4082 31.582 3.53711C31.6035 3.64453 31.6465 3.73047 31.7109 3.79492C31.7754 3.85938 31.8184 3.92383 31.8398 3.98828C31.7109 4.35352 31.6787 4.6543 31.7432 4.89062C31.8076 5.12695 31.8184 5.38477 31.7754 5.66406C31.8828 5.62109 32.001 5.61035 32.1299 5.63184C32.2588 5.65332 32.3232 5.73926 32.3232 5.88965C32.1514 5.93262 32.0225 6.00781 31.9365 6.11523C31.8721 6.22266 31.8076 6.35156 31.7432 6.50195C31.7861 6.52344 31.8613 6.55566 31.9688 6.59863C32.0762 6.6416 32.1406 6.73828 32.1621 6.88867C32.0762 6.93164 32.001 6.98535 31.9365 7.0498C31.8936 7.09277 31.8398 7.13574 31.7754 7.17871C31.8184 7.47949 31.8506 7.75879 31.8721 8.0166C31.8936 8.27441 31.8828 8.56445 31.8398 8.88672C31.9902 8.95117 32.1406 9.00488 32.291 9.04785C32.4629 9.06934 32.5273 9.20898 32.4844 9.4668C32.377 9.55273 32.2695 9.64941 32.1621 9.75684C32.0547 9.84277 31.958 9.9502 31.8721 10.0791C31.958 10.1865 31.9795 10.3154 31.9365 10.4658C31.8936 10.5947 31.958 10.6807 32.1299 10.7236C32.1084 10.8311 32.0762 10.9277 32.0332 11.0137C31.9902 11.0781 31.9473 11.1533 31.9043 11.2393C31.8613 11.3252 31.8398 11.4111 31.8398 11.4971C31.8398 11.583 31.8828 11.6797 31.9688 11.7871C32.3555 11.7871 32.7744 11.7871 33.2256 11.7871C33.6768 11.7656 34.1172 11.7227 34.5469 11.6582C34.9766 11.5938 35.374 11.4971 35.7393 11.3682C36.1045 11.2393 36.4053 11.0566 36.6416 10.8203C36.835 10.541 36.9961 10.3906 37.125 10.3691C37.2539 10.1328 37.3721 9.88574 37.4795 9.62793C37.6084 9.34863 37.6943 9.02637 37.7373 8.66113C37.7803 8.40332 37.7803 8.11328 37.7373 7.79102C37.7158 7.44727 37.7373 7.15723 37.8018 6.9209C37.8447 6.72754 37.8662 6.52344 37.8662 6.30859C37.8662 6.09375 37.8662 5.88965 37.8662 5.69629C37.8877 5.50293 37.9307 5.32031 37.9951 5.14844C38.0596 4.95508 38.167 4.79395 38.3174 4.66504C38.4893 4.92285 38.5645 5.24512 38.543 5.63184C38.5215 6.01855 38.457 6.34082 38.3496 6.59863C38.3711 7.15723 38.3389 7.68359 38.2529 8.17773C38.1885 8.67188 38.1992 9.16602 38.2852 9.66016C38.1348 9.76758 38.0811 9.89648 38.124 10.0469C38.167 10.1758 38.1455 10.2939 38.0596 10.4014C38.2314 10.6162 38.2959 10.7344 38.2529 10.7559C38.21 10.7773 38.1777 10.8096 38.1562 10.8525C38.3496 10.8096 38.4355 10.8418 38.4141 10.9492C38.4141 11.0566 38.4355 11.1318 38.4785 11.1748C38.4141 11.7119 38.3604 12.1309 38.3174 12.4316C38.2959 12.7324 38.4033 12.9795 38.6396 13.1729C38.4033 13.624 38.3496 14.0859 38.4785 14.5586C38.6074 15.0312 38.6826 15.4717 38.7041 15.8799C38.7041 16.0732 38.6934 16.2451 38.6719 16.3955C38.6719 16.5244 38.7148 16.6641 38.8008 16.8145C38.7578 17.1152 38.7578 17.4268 38.8008 17.749C38.8652 18.0713 38.9082 18.415 38.9297 18.7803C38.8223 18.8447 38.6934 18.877 38.543 18.877C38.3926 18.877 38.2529 18.8232 38.124 18.7158C38.2959 18.0928 38.2852 17.5557 38.0918 17.1045C37.9199 16.6318 37.748 16.1592 37.5762 15.6865C37.4043 15.6221 37.2646 15.5254 37.1572 15.3965C37.0713 15.2461 36.9854 15.0957 36.8994 14.9453C36.835 14.7734 36.7598 14.6123 36.6738 14.4619C36.6094 14.3115 36.5234 14.1719 36.416 14.043C36.1797 14.0645 35.9756 13.9893 35.8037 13.8174C35.9111 13.5811 35.8574 13.3877 35.6426 13.2373C35.4277 13.0654 35.1699 12.958 34.8691 12.915C34.7188 12.7002 34.5684 12.6035 34.418 12.625C34.2676 12.6465 34.1172 12.6357 33.9668 12.5928L33.3545 12.4316C33.1182 12.4316 32.8496 12.4316 32.5488 12.4316C32.2695 12.4316 32.0117 12.4746 31.7754 12.5605C31.7109 12.7754 31.7432 12.9365 31.8721 13.0439C32.001 13.1514 32.0869 13.291 32.1299 13.4629C32.0869 13.5918 32.001 13.6885 31.8721 13.7529C31.7646 13.8174 31.7324 13.9355 31.7754 14.1074C31.8613 14.1074 31.9043 14.0859 31.9043 14.043C31.9258 13.9785 31.9902 13.9463 32.0977 13.9463C32.1836 14.0322 32.248 14.1182 32.291 14.2041C32.3555 14.2686 32.4199 14.3438 32.4844 14.4297C32.2266 14.623 32.0654 14.7627 32.001 14.8486C31.9365 14.9346 31.8721 15.042 31.8076 15.1709C31.8291 15.2783 31.8936 15.3428 32.001 15.3643C32.1299 15.3643 32.1836 15.4287 32.1621 15.5576C32.4199 15.5791 32.5273 15.6328 32.4844 15.7188C32.4414 15.8047 32.4307 15.9014 32.4521 16.0088C32.2158 15.9873 32.0762 16.0518 32.0332 16.2021C31.9902 16.3525 31.9043 16.4707 31.7754 16.5566C31.8184 16.6641 31.8291 16.7822 31.8076 16.9111C31.7861 17.0186 31.7754 17.1045 31.7754 17.1689C31.8398 17.2119 31.8936 17.2441 31.9365 17.2656C32.001 17.2871 32.0654 17.3193 32.1299 17.3623C32.1299 17.6846 32.0225 17.8779 31.8076 17.9424C31.7861 18.1572 31.7861 18.3398 31.8076 18.4902C31.8506 18.6191 31.8506 18.7588 31.8076 18.9092C31.958 19.1885 32.001 19.3818 31.9365 19.4893C31.8936 19.5752 31.8506 19.6934 31.8076 19.8438C31.8291 19.9297 31.8613 19.9834 31.9043 20.0049C31.9688 20.0264 32.0225 20.0693 32.0654 20.1338C32.0439 20.2412 32.001 20.3379 31.9365 20.4238C31.8721 20.4883 31.8076 20.5635 31.7432 20.6494C31.6787 20.7354 31.625 20.8213 31.582 20.9072C31.5391 20.9932 31.5391 21.1006 31.582 21.2295C31.6895 21.4443 31.7539 21.5303 31.7754 21.4873C31.8184 21.4443 31.8613 21.4443 31.9043 21.4873C31.8613 21.7881 31.7969 21.9814 31.7109 22.0674C31.6465 22.1533 31.582 22.25 31.5176 22.3574C31.4746 22.4434 31.4531 22.5293 31.4531 22.6152C31.4531 22.7012 31.5283 22.7764 31.6787 22.8408C31.6572 23.0986 31.6357 23.292 31.6143 23.4209C31.5928 23.5283 31.5605 23.7002 31.5176 23.9365C31.4102 23.9795 31.2812 24.0225 31.1309 24.0654C31.002 24.0869 30.8945 24.0547 30.8086 23.9688C30.8516 24.0332 30.8193 24.0762 30.7119 24.0977C30.626 24.1191 30.5615 24.1729 30.5186 24.2588C30.7119 24.3447 30.9268 24.377 31.1631 24.3555C31.4209 24.3125 31.6035 24.334 31.7109 24.4199C32.0762 24.377 32.4521 24.334 32.8389 24.291C33.2471 24.248 33.6338 24.2158 33.999 24.1943C34.4502 24.1514 34.9014 24.1406 35.3525 24.1621C35.8037 24.1621 36.2119 24.1084 36.5771 24.001C36.835 23.958 37.082 23.9258 37.3184 23.9043C37.5762 23.8828 37.791 23.8184 37.9629 23.7109C38.3281 23.668 38.7578 23.6035 39.252 23.5176C39.7461 23.4316 40.165 23.3027 40.5088 23.1309C40.6162 23.0879 40.6914 23.0449 40.7344 23.002C40.7988 22.9375 40.917 22.8838 41.0889 22.8408C41.6475 22.7119 42.0664 22.4756 42.3457 22.1318C42.6465 21.7666 42.958 21.3906 43.2803 21.0039C43.4092 20.832 43.5381 20.6494 43.667 20.4561C43.7959 20.2627 43.9141 20.0479 44.0215 19.8115C44.043 19.5537 44.1289 19.3389 44.2793 19.167C44.3652 18.9736 44.4189 18.8232 44.4404 18.7158C44.4619 18.5869 44.5049 18.501 44.5693 18.458C44.6553 17.7705 44.7412 17.0938 44.8271 16.4277C44.9346 15.7402 44.9668 15.0205 44.9238 14.2686C44.8809 14.0967 44.8701 13.9678 44.8916 13.8818C44.9131 13.7744 44.9346 13.6885 44.9561 13.624C44.999 13.5381 45.0527 13.4844 45.1172 13.4629C45.2031 13.4199 45.3105 13.4307 45.4395 13.4951C45.5898 13.7314 45.6436 14.043 45.6006 14.4297C45.5576 14.8164 45.4932 15.1172 45.4072 15.332C45.4717 15.375 45.5254 15.4287 45.5684 15.4932C45.6328 15.5361 45.665 15.6113 45.665 15.7188C45.4717 15.7617 45.3643 15.9121 45.3428 16.1699C45.3213 16.4062 45.332 16.6104 45.375 16.7822C45.418 17.1689 45.3965 17.4805 45.3105 17.7168C45.2246 17.9531 45.2246 18.1895 45.3105 18.4258C45.2676 18.7266 45.2354 19.0381 45.2139 19.3604C45.2139 19.6826 45.2891 19.9512 45.4395 20.166C45.3535 20.4023 45.332 20.6387 45.375 20.875C45.418 21.1113 45.4502 21.3477 45.4717 21.584C45.5361 21.6484 45.6006 21.7021 45.665 21.7451C45.751 21.7666 45.8154 21.8203 45.8584 21.9062C45.8369 22.0137 45.7939 22.0889 45.7295 22.1318C45.665 22.1533 45.6113 22.1855 45.5684 22.2285C45.6758 22.4219 45.7939 22.5938 45.9229 22.7441ZM42.4102 0.958984C42.2383 1.00195 42.0771 1.06641 41.9268 1.15234C41.7979 1.2168 41.6475 1.27051 41.4756 1.31348C41.7334 1.37793 41.873 1.39941 41.8945 1.37793C41.9375 1.35645 41.9805 1.37793 42.0234 1.44238C42.0234 1.27051 42.0771 1.17383 42.1846 1.15234C42.292 1.13086 42.3672 1.06641 42.4102 0.958984ZM44.0859 3.2793C44.0645 3.17187 43.9893 3.13965 43.8604 3.18262C43.7314 3.2041 43.6348 3.22559 43.5703 3.24707C43.6133 3.29004 43.6992 3.33301 43.8281 3.37598C43.957 3.41895 44.043 3.38672 44.0859 3.2793ZM43.3447 2.95703C43.2158 3 43.1191 3.03223 43.0547 3.05371C42.9902 3.05371 42.958 3.08594 42.958 3.15039C43.0225 3.19336 43.0977 3.2041 43.1836 3.18262C43.291 3.13965 43.3447 3.06445 43.3447 2.95703ZM41.4111 1.63574C41.3037 1.57129 41.1855 1.56055 41.0566 1.60352C40.9492 1.64648 40.8955 1.74316 40.8955 1.89355C41.0459 1.91504 41.1426 1.89355 41.1855 1.8291C41.25 1.74316 41.3252 1.67871 41.4111 1.63574ZM42.9258 3.31152C42.8613 3.29004 42.7754 3.29004 42.668 3.31152C42.582 3.33301 42.5176 3.39746 42.4746 3.50488C42.668 3.46191 42.7861 3.44043 42.8291 3.44043C42.8936 3.41895 42.9258 3.37598 42.9258 3.31152ZM44.0215 3.82715C43.4629 3.93457 43.0869 4.1709 42.8936 4.53613C43.0654 4.62207 43.1836 4.61133 43.248 4.50391C43.334 4.375 43.4629 4.34277 43.6348 4.40723C43.5918 4.2998 43.6133 4.22461 43.6992 4.18164C43.8066 4.13867 43.9033 4.10645 43.9893 4.08496L44.0215 3.82715ZM44.0215 4.89062C44.0859 4.7832 44.1074 4.68652 44.0859 4.60059C44.0859 4.49316 44.0215 4.42871 43.8926 4.40723C43.8496 4.49316 43.7852 4.55762 43.6992 4.60059C43.6348 4.62207 43.5488 4.64355 43.4414 4.66504C43.4414 4.83691 43.4521 4.95508 43.4736 5.01953C43.5166 5.0625 43.5811 5.08398 43.667 5.08398C43.667 4.97656 43.71 4.92285 43.7959 4.92285C43.8818 4.92285 43.957 4.91211 44.0215 4.89062ZM44.1504 6.14746C44.1934 6.01855 44.1826 5.93262 44.1182 5.88965C44.0752 5.8252 44.0322 5.77148 43.9893 5.72852C43.9463 5.81445 43.9141 5.87891 43.8926 5.92188C43.8926 5.96484 43.8604 6.04004 43.7959 6.14746C43.8389 6.19043 43.8926 6.21191 43.957 6.21191C44.043 6.21191 44.1074 6.19043 44.1504 6.14746ZM29.2295 1.15234C29.1865 1.02344 29.0898 0.958984 28.9395 0.958984C28.8105 0.9375 28.7139 0.969727 28.6494 1.05566C28.8213 1.24902 28.9287 1.31348 28.9717 1.24902C29.0361 1.18457 29.1221 1.15234 29.2295 1.15234ZM37.7373 10.7881C37.6943 10.7451 37.6836 10.6807 37.7051 10.5947C37.7266 10.4873 37.7051 10.4336 37.6406 10.4336C37.6191 10.627 37.5654 10.7666 37.4795 10.8525C37.415 10.9385 37.3613 11.0029 37.3184 11.0459C37.4902 11.0029 37.5762 10.9492 37.5762 10.8848C37.5977 10.8203 37.6514 10.7881 37.7373 10.7881ZM28.166 1.3457C28.0156 1.41016 27.8652 1.46387 27.7148 1.50684C27.5645 1.5498 27.4248 1.59277 27.2959 1.63574C27.167 1.67871 27.0488 1.74316 26.9414 1.8291C26.8555 1.91504 26.834 2.04395 26.877 2.21582C27.0273 2.12988 27.2314 2.09766 27.4893 2.11914C27.5537 1.75391 27.7578 1.56055 28.1016 1.53906L28.166 1.3457ZM31.0342 2.86035C30.9268 2.86035 30.8193 2.88184 30.7119 2.9248C30.626 2.96777 30.5293 2.96777 30.4219 2.9248C30.3789 3.03223 30.3145 3.11816 30.2285 3.18262C30.1426 3.22559 30.0459 3.26855 29.9385 3.31152C29.8311 3.33301 29.7236 3.36523 29.6162 3.4082C29.5088 3.45117 29.4336 3.51563 29.3906 3.60156C29.2832 3.58008 29.165 3.59082 29.0361 3.63379C28.9072 3.67676 28.8213 3.75195 28.7783 3.85938C28.585 4.00977 28.4238 4.10645 28.2949 4.14941C28.166 4.19238 28.0371 4.23535 27.9082 4.27832C27.8652 4.42871 27.7793 4.54688 27.6504 4.63281C27.543 4.69727 27.4355 4.76172 27.3281 4.82617C27.4141 4.89062 27.457 4.95508 27.457 5.01953C27.457 5.08398 27.4893 5.11621 27.5537 5.11621C27.5322 4.9873 27.5859 4.89062 27.7148 4.82617C27.8438 4.76172 27.9619 4.69727 28.0693 4.63281C28.3271 4.61133 28.5098 4.54688 28.6172 4.43945C28.7461 4.33203 28.8965 4.28906 29.0684 4.31055C29.1113 4.18164 29.1758 4.08496 29.2617 4.02051C29.3477 3.93457 29.4443 3.91309 29.5518 3.95605C29.7236 3.67676 29.96 3.4834 30.2607 3.37598C30.5615 3.24707 30.8193 3.0752 31.0342 2.86035ZM28.5527 3.2793C28.4883 3.2793 28.4238 3.30078 28.3594 3.34375C28.3164 3.36523 28.2734 3.39746 28.2305 3.44043C28.3379 3.44043 28.4023 3.42969 28.4238 3.4082C28.4668 3.36523 28.5098 3.32227 28.5527 3.2793ZM37.8018 12.6895C37.7803 12.582 37.7803 12.4854 37.8018 12.3994C37.8447 12.3135 37.8447 12.249 37.8018 12.2061C37.6514 12.3135 37.5654 12.3994 37.5439 12.4639C37.5225 12.5068 37.4688 12.5391 37.3828 12.5605C37.2754 12.582 37.2217 12.625 37.2217 12.6895C37.2432 12.7324 37.2217 12.8076 37.1572 12.915C37.3076 12.915 37.4258 12.8936 37.5117 12.8506C37.6191 12.7861 37.7158 12.7324 37.8018 12.6895ZM36.8027 12.1416C36.6309 12.2275 36.5127 12.3135 36.4482 12.3994C36.5342 12.3564 36.6094 12.335 36.6738 12.335C36.7598 12.3135 36.8027 12.249 36.8027 12.1416ZM31.0664 4.27832C30.916 4.1709 30.7656 4.16016 30.6152 4.24609C30.4648 4.33203 30.293 4.35352 30.0996 4.31055C29.9922 4.48242 29.8633 4.5791 29.7129 4.60059C29.584 4.62207 29.4658 4.69727 29.3584 4.82617C29.208 4.89062 29.0684 4.95508 28.9395 5.01953C28.8105 5.0625 28.6816 5.09473 28.5527 5.11621C28.5527 5.22363 28.499 5.28809 28.3916 5.30957C28.2842 5.33105 28.1982 5.38477 28.1338 5.4707C27.9404 5.53516 27.8115 5.59961 27.7471 5.66406C27.7041 5.70703 27.6719 5.77148 27.6504 5.85742C27.543 5.87891 27.4248 5.87891 27.2959 5.85742C27.1885 5.83594 27.1348 5.86816 27.1348 5.9541C27.0918 6.14746 27.0703 6.28711 27.0703 6.37305C27.2637 6.20117 27.4893 6.07227 27.7471 5.98633C28.0049 5.87891 28.2197 5.73926 28.3916 5.56738C28.499 5.61035 28.5957 5.61035 28.6816 5.56738C28.7676 5.52441 28.8428 5.48145 28.9072 5.43848C28.9932 5.37402 29.0791 5.33105 29.165 5.30957C29.251 5.2666 29.3584 5.2666 29.4873 5.30957C29.4658 5.11621 29.5303 5.00879 29.6807 4.9873C29.8525 4.96582 29.9922 4.90137 30.0996 4.79395C30.2285 4.77246 30.3145 4.74023 30.3574 4.69727C30.4219 4.63281 30.4863 4.62207 30.5508 4.66504C30.6152 4.49316 30.7012 4.39648 30.8086 4.375C30.916 4.35352 31.002 4.32129 31.0664 4.27832ZM37.9307 13.1729C37.8232 13.0225 37.7051 12.9902 37.5762 13.0762C37.4688 13.1621 37.415 13.2588 37.415 13.3662C37.0928 13.5166 36.9316 13.6992 36.9316 13.9141C36.9531 14.1289 37.0391 14.2686 37.1895 14.333C37.2969 14.0967 37.415 13.9033 37.5439 13.7529C37.6729 13.6025 37.8018 13.4092 37.9307 13.1729ZM36.6416 12.8506C36.5986 12.6787 36.5127 12.582 36.3838 12.5605C36.2549 12.5176 36.1689 12.4102 36.126 12.2383C36.0186 12.3457 35.9434 12.4209 35.9004 12.4639C35.8574 12.4854 35.8145 12.5283 35.7715 12.5928C35.8145 12.6572 35.8682 12.7002 35.9326 12.7217C36.0186 12.7432 36.0615 12.8076 36.0615 12.915C36.1904 12.958 36.2764 12.958 36.3193 12.915C36.3838 12.8721 36.4912 12.8506 36.6416 12.8506ZM35.7715 12.2061C35.707 12.1631 35.6426 12.1631 35.5781 12.2061C35.5137 12.249 35.4277 12.2598 35.3203 12.2383C35.4922 12.3672 35.5889 12.4424 35.6104 12.4639C35.6533 12.4639 35.6855 12.4531 35.707 12.4316L35.7715 12.2061ZM31.2275 7.50098C30.9268 7.56543 30.7012 7.69434 30.5508 7.8877C30.7227 7.82324 30.873 7.79102 31.002 7.79102C31.1523 7.76953 31.2275 7.67285 31.2275 7.50098ZM44.7305 20.3916C44.7305 20.1982 44.7412 19.9941 44.7627 19.7793C44.7842 19.5645 44.7627 19.4355 44.6982 19.3926C44.6553 19.457 44.5908 19.5107 44.5049 19.5537C44.4189 19.5752 44.3867 19.6504 44.4082 19.7793C44.4941 19.9512 44.4619 20.1123 44.3115 20.2627C44.1611 20.3916 44.1074 20.5312 44.1504 20.6816C44.0215 20.8535 43.9033 21.0469 43.7959 21.2617C43.6885 21.4551 43.5059 21.6055 43.248 21.7129C43.248 21.8633 43.2051 21.9707 43.1191 22.0352C43.0332 22.0781 42.9688 22.1426 42.9258 22.2285C43.0977 22.2715 43.2266 22.2178 43.3125 22.0674C43.3984 21.8955 43.4951 21.7559 43.6025 21.6484C43.8604 21.4766 44.0645 21.2832 44.2148 21.0684C44.3867 20.8535 44.5586 20.6279 44.7305 20.3916ZM44.8594 21.1973C44.7734 21.3477 44.623 21.4766 44.4082 21.584C44.2148 21.6699 44.1719 21.8203 44.2793 22.0352C44.3652 22.0137 44.4619 21.9814 44.5693 21.9385C44.6768 21.874 44.7627 21.8096 44.8271 21.7451C44.9131 21.6592 44.9561 21.5732 44.9561 21.4873C44.9775 21.4014 44.9453 21.3047 44.8594 21.1973ZM38.124 15.751C38.167 15.4717 38.1455 15.1924 38.0596 14.9131C37.9736 14.6123 37.9199 14.3223 37.8984 14.043C37.748 14.1289 37.6084 14.1611 37.4795 14.1396C37.5654 14.2471 37.6084 14.3545 37.6084 14.4619C37.6299 14.5693 37.5869 14.666 37.4795 14.752C37.6084 14.9023 37.6943 15.085 37.7373 15.2998C37.8018 15.5146 37.9307 15.665 38.124 15.751ZM31.292 6.46973C31.1416 6.57715 31.0127 6.60938 30.9053 6.56641C30.7979 6.50195 30.7334 6.53418 30.7119 6.66309C30.5186 6.74902 30.4004 6.81348 30.3574 6.85645C30.3145 6.87793 30.2607 6.88867 30.1963 6.88867C30.1533 6.63086 30.2393 6.4375 30.4541 6.30859C30.6904 6.1582 30.9053 6.07227 31.0986 6.05078C31.292 5.83594 31.3564 5.62109 31.292 5.40625C31.2275 5.19141 31.2275 4.93359 31.292 4.63281C31.0342 4.67578 30.9053 4.71875 30.9053 4.76172C30.9053 4.80469 30.873 4.82617 30.8086 4.82617C30.8516 4.99805 30.8408 5.15918 30.7764 5.30957C30.7119 5.45996 30.583 5.53516 30.3896 5.53516C30.0244 5.81445 29.6807 6.10449 29.3584 6.40527C29.0361 6.70605 28.6602 6.96387 28.2305 7.17871C28.123 7.3291 28.0156 7.44727 27.9082 7.5332C27.8008 7.61914 27.6934 7.62988 27.5859 7.56543C27.6289 7.65137 27.6396 7.70508 27.6182 7.72656C27.5967 7.74805 27.5752 7.8125 27.5537 7.91992C27.4248 7.96289 27.3174 8.00586 27.2314 8.04883C27.167 8.0918 27.124 8.16699 27.1025 8.27441C27.2314 8.4248 27.2529 8.52148 27.167 8.56445C27.1025 8.58594 27.0166 8.65039 26.9092 8.75781C27.124 9.05859 27.2852 9.16602 27.3926 9.08008C27.5 8.97266 27.5967 8.96191 27.6826 9.04785C27.6826 8.94043 27.6396 8.89746 27.5537 8.91895C27.4678 8.94043 27.4033 8.92969 27.3604 8.88672C27.4033 8.84375 27.4463 8.79004 27.4893 8.72559C27.5537 8.66113 27.6504 8.63965 27.7793 8.66113C28.0586 8.68262 28.2305 8.69336 28.2949 8.69336C28.3594 8.67188 28.4131 8.62891 28.4561 8.56445C28.3916 8.54297 28.3164 8.54297 28.2305 8.56445C28.166 8.58594 28.1123 8.5752 28.0693 8.53223C28.1553 8.33887 28.3809 8.26367 28.7461 8.30664C28.7891 8.07031 28.8965 7.91992 29.0684 7.85547C29.2402 7.76953 29.3584 7.72656 29.4229 7.72656C29.5947 7.59766 29.6914 7.52246 29.7129 7.50098C29.7344 7.47949 29.7236 7.44727 29.6807 7.4043C29.7881 7.42578 29.8311 7.39355 29.8096 7.30762C29.8096 7.2002 29.8633 7.15723 29.9707 7.17871C30.207 7.13574 30.3467 7.125 30.3896 7.14648C30.4541 7.16797 30.5078 7.18945 30.5508 7.21094C30.6582 7.08203 30.7979 6.98535 30.9697 6.9209C31.1416 6.83496 31.249 6.68457 31.292 6.46973ZM28.4883 6.40527C28.3809 6.38379 28.3164 6.41602 28.2949 6.50195C28.2734 6.56641 28.2842 6.6416 28.3271 6.72754C28.4346 6.66309 28.4883 6.55566 28.4883 6.40527ZM30.9053 9.14453C30.7979 9.12305 30.7334 9.15527 30.7119 9.24121C30.7119 9.30566 30.7012 9.38086 30.6797 9.4668C30.8301 9.40234 30.9053 9.29492 30.9053 9.14453ZM45.2139 24.5166L44.9883 24.1943C44.9668 24.3018 44.9453 24.3877 44.9238 24.4521C44.9023 24.5166 44.9238 24.5703 44.9883 24.6133L45.2139 24.5166ZM43.667 22.7764C43.5381 22.7764 43.4521 22.8623 43.4092 23.0342C43.5166 23.0342 43.5703 23.002 43.5703 22.9375C43.5918 22.873 43.624 22.8193 43.667 22.7764ZM45.0527 23.3887C44.8594 23.3672 44.709 23.3994 44.6016 23.4854C44.4941 23.5498 44.4082 23.6357 44.3438 23.7432C44.3867 23.8076 44.4619 23.8291 44.5693 23.8076C44.6982 23.7861 44.7627 23.8291 44.7627 23.9365C44.6338 24.0439 44.4834 24.1084 44.3115 24.1299C44.1396 24.1514 44.0322 24.248 43.9893 24.4199C44.2686 24.4414 44.4727 24.3877 44.6016 24.2588C44.752 24.1299 44.8809 23.9902 44.9883 23.8398C44.9453 23.7754 44.9346 23.7109 44.9561 23.6465C44.9775 23.5605 45.0098 23.4746 45.0527 23.3887ZM28.166 6.72754C27.9512 6.81348 27.7363 6.89941 27.5215 6.98535C27.3066 7.07129 27.1348 7.2002 27.0059 7.37207C27.0059 7.43652 26.9951 7.51172 26.9736 7.59766C26.9736 7.68359 27.0059 7.7373 27.0703 7.75879C27.0488 7.69434 27.0596 7.66211 27.1025 7.66211C27.167 7.64063 27.2314 7.64063 27.2959 7.66211C27.3604 7.66211 27.4141 7.66211 27.457 7.66211C27.5 7.64063 27.5215 7.59766 27.5215 7.5332C27.6074 7.42578 27.6934 7.27539 27.7793 7.08203C27.8652 6.88867 27.9941 6.77051 28.166 6.72754ZM44.6982 23.0342C44.4834 23.0557 44.29 23.1309 44.1182 23.2598C43.9678 23.3672 43.7852 23.4316 43.5703 23.4531C43.4844 23.5391 43.4307 23.625 43.4092 23.7109C43.3877 23.7969 43.3018 23.8184 43.1514 23.7754C43.1514 23.9258 43.0869 24.0117 42.958 24.0332C42.8506 24.0547 42.7539 24.0977 42.668 24.1621C42.582 24.248 42.4854 24.3232 42.3779 24.3877C42.2705 24.4521 42.1738 24.5381 42.0879 24.6455C42.1309 24.6885 42.1738 24.6885 42.2168 24.6455C42.2812 24.5811 42.3564 24.5811 42.4424 24.6455C42.4424 24.5381 42.5068 24.4736 42.6357 24.4521C42.7861 24.4307 42.8936 24.377 42.958 24.291C43.0654 24.1621 43.2158 24.0332 43.4092 23.9043C43.6025 23.7539 43.8174 23.6787 44.0537 23.6787C44.29 23.4854 44.5049 23.2705 44.6982 23.0342ZM31.0986 9.75684C30.8623 9.75684 30.6797 9.7998 30.5508 9.88574C30.4219 9.97168 30.2715 10.0361 30.0996 10.0791C29.9062 10.1865 29.7666 10.2725 29.6807 10.3369C29.5947 10.4014 29.5195 10.4658 29.4551 10.5303C29.3906 10.5947 29.3154 10.6592 29.2295 10.7236C29.165 10.7666 29.0791 10.7773 28.9717 10.7559C28.8428 10.8848 28.7783 10.9814 28.7783 11.0459C28.7783 11.1104 28.7998 11.1641 28.8428 11.207C28.9717 11.207 29.0576 11.1641 29.1006 11.0781C29.165 10.9922 29.2402 10.917 29.3262 10.8525C29.4551 10.7881 29.584 10.7344 29.7129 10.6914C29.8633 10.627 29.9922 10.541 30.0996 10.4336C30.2285 10.4336 30.3359 10.4121 30.4219 10.3691C30.5078 10.3262 30.583 10.3369 30.6475 10.4014C30.8623 10.165 31.0127 9.9502 31.0986 9.75684ZM31.0342 8.30664C30.1963 8.67188 29.4658 9.04785 28.8428 9.43457C28.2197 9.82129 27.6182 10.2295 27.0381 10.6592C27.0596 10.7666 27.0488 10.8418 27.0059 10.8848C26.9844 10.9277 26.9736 10.9814 26.9736 11.0459C26.9951 11.1533 27.124 11.207 27.3604 11.207C27.3174 10.9707 27.4033 10.8203 27.6182 10.7559C27.8545 10.6699 28.0264 10.541 28.1338 10.3691C28.3057 10.4121 28.4131 10.3799 28.4561 10.2725C28.499 10.165 28.5957 10.1006 28.7461 10.0791C28.7891 10.0146 28.832 9.93945 28.875 9.85352C28.9395 9.74609 29.0469 9.70312 29.1973 9.72461C29.3691 9.5957 29.5088 9.44531 29.6162 9.27344C29.7451 9.10156 29.96 9.00488 30.2607 8.9834C30.3037 8.79004 30.4219 8.67188 30.6152 8.62891C30.8301 8.58594 30.9697 8.47852 31.0342 8.30664ZM42.2812 22.8408C42.1738 22.9912 42.0234 23.0879 41.8301 23.1309C41.6582 23.1738 41.5293 23.2705 41.4434 23.4209C41.6582 23.5068 41.8623 23.4639 42.0557 23.292C42.249 23.1201 42.3242 22.9697 42.2812 22.8408ZM41.3789 23.3887C41.0996 23.4746 40.8955 23.582 40.7666 23.7109C40.917 23.7539 41.0137 23.7432 41.0566 23.6787C41.0996 23.6143 41.1963 23.6035 41.3467 23.6465L41.3789 23.3887ZM31.2275 11.0459C31.2275 10.917 31.1846 10.874 31.0986 10.917C31.0127 10.9385 30.9268 10.9277 30.8408 10.8848C30.7979 10.9277 30.7549 10.9707 30.7119 11.0137C30.6904 11.0566 30.626 11.0781 30.5186 11.0781C30.3896 11.1855 30.2393 11.2393 30.0674 11.2393C29.917 11.2178 29.8096 11.207 29.7451 11.207C29.5303 11.5078 29.2939 11.7334 29.0361 11.8838C28.7783 12.0127 28.5312 12.1416 28.2949 12.2705C28.166 12.3779 28.0371 12.4639 27.9082 12.5283C27.8008 12.5928 27.6826 12.6572 27.5537 12.7217C27.4248 12.7861 27.3066 12.8613 27.1992 12.9473C27.0918 13.0332 27.0273 13.1729 27.0059 13.3662C27.1777 13.3018 27.3066 13.2588 27.3926 13.2373C27.5 13.2158 27.6074 13.2051 27.7148 13.2051C27.7793 13.0332 27.8115 12.9365 27.8115 12.915C27.833 12.8936 27.8652 12.8721 27.9082 12.8506C28.1445 12.8076 28.2734 12.7754 28.2949 12.7539C28.3379 12.7109 28.3809 12.668 28.4238 12.625C28.5527 12.582 28.6279 12.5391 28.6494 12.4961C28.6924 12.4531 28.7461 12.4424 28.8105 12.4639C28.9609 12.4639 29.0576 12.4531 29.1006 12.4316C29.165 12.3887 29.2295 12.3457 29.2939 12.3027C29.5303 12.0449 29.7559 11.873 29.9707 11.7871C30.207 11.6797 30.4326 11.626 30.6475 11.626C30.6904 11.4541 30.7549 11.3252 30.8408 11.2393C30.9482 11.1533 31.0771 11.0889 31.2275 11.0459ZM28.5205 11.2393C28.2627 11.3037 28.0371 11.4111 27.8438 11.5615C27.6719 11.6904 27.5 11.8301 27.3281 11.9805C27.543 11.9375 27.7148 11.8516 27.8438 11.7227C27.9727 11.5723 28.166 11.4971 28.4238 11.4971L28.5205 11.2393ZM32.1621 15.5898C31.9688 15.6328 31.8613 15.6758 31.8398 15.7188C31.8184 15.7617 31.8076 15.8047 31.8076 15.8477C32.0439 15.8047 32.1621 15.7188 32.1621 15.5898ZM30.8086 12.5283C30.5508 12.5283 30.293 12.582 30.0352 12.6895C29.7773 12.7969 29.584 12.8076 29.4551 12.7217C29.4766 12.8936 29.4014 13.0225 29.2295 13.1084C29.0576 13.1729 28.918 13.1729 28.8105 13.1084C28.7246 13.2803 28.6494 13.3877 28.585 13.4307C28.542 13.4521 28.499 13.4844 28.4561 13.5273C28.4131 13.5488 28.3701 13.5703 28.3271 13.5918C28.2842 13.5918 28.2305 13.5596 28.166 13.4951C28.0586 13.6455 27.9619 13.7314 27.876 13.7529C27.8115 13.9248 27.6934 14.0322 27.5215 14.0752C27.3496 14.1182 27.2422 14.2578 27.1992 14.4941C27.2852 14.5586 27.3496 14.5801 27.3926 14.5586C27.457 14.5156 27.5215 14.4727 27.5859 14.4297C27.6504 14.3867 27.7041 14.3545 27.7471 14.333C27.8115 14.29 27.8867 14.29 27.9727 14.333C27.9512 14.2256 27.9727 14.1719 28.0371 14.1719C28.123 14.1719 28.2197 14.1719 28.3271 14.1719C28.4561 14.0215 28.5742 13.9355 28.6816 13.9141C28.7891 13.8281 28.875 13.7637 28.9395 13.7207C29.0039 13.6777 29.0576 13.6348 29.1006 13.5918C29.1436 13.5488 29.1865 13.5059 29.2295 13.4629C29.2939 13.3984 29.3799 13.3662 29.4873 13.3662C29.5947 13.2158 29.7344 13.1191 29.9062 13.0762C30.0781 13.0117 30.2178 12.9258 30.3252 12.8184C30.4541 12.668 30.5508 12.582 30.6152 12.5605C30.6797 12.5176 30.7441 12.5068 30.8086 12.5283ZM41.8301 24.1621C41.7227 24.0977 41.5938 24.0654 41.4434 24.0654C41.3145 24.0439 41.25 23.9473 41.25 23.7754C41.207 23.8184 41.1748 23.8721 41.1533 23.9365C41.1318 24.001 41.0996 24.0654 41.0566 24.1299C41.0137 24.1729 40.96 24.2051 40.8955 24.2266C40.8525 24.2266 40.7988 24.1836 40.7344 24.0977C40.6055 24.1621 40.498 24.2373 40.4121 24.3232C40.3477 24.3877 40.2725 24.4629 40.1865 24.5488C40.1221 24.5059 40.0469 24.4736 39.9609 24.4521C39.8965 24.4307 39.8428 24.3662 39.7998 24.2588C39.542 24.1514 39.2734 24.1191 38.9941 24.1621C38.7363 24.1836 38.4678 24.2158 38.1885 24.2588C37.9307 24.2803 37.6729 24.3232 37.415 24.3877C37.1572 24.4521 36.9102 24.5596 36.6738 24.71C37.1465 24.71 37.6191 24.7207 38.0918 24.7422C38.5859 24.7422 39.0801 24.7422 39.5742 24.7422C39.7461 24.7422 39.918 24.7207 40.0898 24.6777C40.2617 24.6348 40.4014 24.624 40.5088 24.6455C40.6162 24.6455 40.6914 24.6562 40.7344 24.6777C40.7773 24.6992 40.8311 24.71 40.8955 24.71C41.0889 24.667 41.25 24.5811 41.3789 24.4521C41.5293 24.3018 41.6797 24.2051 41.8301 24.1621ZM31.2275 14.5586C31.0557 14.4512 30.916 14.4512 30.8086 14.5586C30.7227 14.666 30.5938 14.7412 30.4219 14.7842C30.2715 14.9346 30.1641 15.042 30.0996 15.1064C30.0566 15.1709 30.0029 15.1816 29.9385 15.1387C29.8525 15.2461 29.7344 15.3428 29.584 15.4287C29.4336 15.5146 29.2725 15.5469 29.1006 15.5254C29.0361 15.7402 28.9287 15.8691 28.7783 15.9121C28.6494 15.9336 28.5205 15.998 28.3916 16.1055C28.3057 16.2773 28.1982 16.3848 28.0693 16.4277C27.9619 16.4492 27.8545 16.46 27.7471 16.46C27.6396 16.4385 27.5537 16.3955 27.4893 16.3311C27.4248 16.2451 27.4033 16.1377 27.4248 16.0088C27.5967 15.8584 27.6826 15.7617 27.6826 15.7188C27.6826 15.6543 27.7256 15.6006 27.8115 15.5576C27.9834 15.4932 28.123 15.4072 28.2305 15.2998C28.3594 15.1924 28.5205 15.1602 28.7139 15.2031C28.9072 15.0098 29.1758 14.8809 29.5195 14.8164C29.6055 14.623 29.6807 14.5049 29.7451 14.4619C29.8096 14.4189 29.917 14.4082 30.0674 14.4297C30.1318 14.2578 30.2393 14.1504 30.3896 14.1074C30.5615 14.043 30.7012 13.9463 30.8086 13.8174C30.8945 13.7744 30.9482 13.7314 30.9697 13.6885C31.0127 13.6455 31.0557 13.5918 31.0986 13.5273C30.9697 13.5059 30.8623 13.5166 30.7764 13.5596C30.7119 13.5811 30.6367 13.6025 30.5508 13.624C30.3574 13.7314 30.2178 13.8066 30.1318 13.8496C30.0244 13.8496 29.9385 13.8496 29.874 13.8496C29.8311 13.8281 29.7666 13.8281 29.6807 13.8496C29.5303 14 29.4443 14.0645 29.4229 14.043C29.4229 14 29.4014 14 29.3584 14.043C29.3369 14.2148 29.2617 14.333 29.1328 14.3975C29.0254 14.4404 28.8965 14.4834 28.7461 14.5264C28.5098 14.7627 28.252 14.9668 27.9727 15.1387C27.7148 15.2891 27.457 15.4609 27.1992 15.6543C27.3066 15.8906 27.3174 16.1484 27.2314 16.4277C27.1455 16.6855 27.1348 16.9326 27.1992 17.1689C27.2852 17.1904 27.3496 17.1797 27.3926 17.1367C27.457 17.0938 27.5107 17.0508 27.5537 17.0078C27.5967 16.9648 27.6396 16.9326 27.6826 16.9111C27.7256 16.8682 27.7686 16.8682 27.8115 16.9111C27.876 16.6963 28.0371 16.6211 28.2949 16.6855C28.2734 16.5352 28.3164 16.46 28.4238 16.46C28.5312 16.4385 28.6602 16.4277 28.8105 16.4277C29.0039 16.3418 29.1006 16.2988 29.1006 16.2988C29.1221 16.2773 29.1865 16.2451 29.2939 16.2021C29.3584 15.9873 29.4229 15.8477 29.4873 15.7832C29.6377 15.7617 29.7236 15.7188 29.7451 15.6543C29.7666 15.5684 29.8311 15.5254 29.9385 15.5254C30.2607 15.5039 30.4756 15.4824 30.583 15.4609C30.6904 15.4395 30.7871 15.4072 30.873 15.3643C30.873 15.2568 30.8408 15.2031 30.7764 15.2031C30.7119 15.1816 30.6797 15.1279 30.6797 15.042C30.7012 14.9775 30.7871 14.9131 30.9375 14.8486C31.0879 14.7627 31.1846 14.666 31.2275 14.5586ZM29.9707 16.3955C29.8848 16.2451 29.7881 16.1699 29.6807 16.1699C29.7236 16.2559 29.8203 16.3311 29.9707 16.3955ZM31.1953 18.3613C31.0664 18.3184 30.9482 18.2969 30.8408 18.2969C30.7549 18.2754 30.7119 18.2969 30.7119 18.3613C30.7119 18.5762 30.6045 18.6836 30.3896 18.6836C30.4111 18.791 30.3789 18.8555 30.293 18.877C30.207 18.877 30.1318 18.8984 30.0674 18.9414C30.1963 18.9414 30.3252 18.9414 30.4541 18.9414C30.6045 18.9199 30.7441 18.8984 30.873 18.877C31.002 18.834 31.0986 18.7803 31.1631 18.7158C31.249 18.6514 31.2598 18.5332 31.1953 18.3613ZM31.1631 16.4277C31.2275 16.2559 31.249 16.127 31.2275 16.041C31.2275 15.9551 31.1738 15.9014 31.0664 15.8799C30.9805 15.8369 30.8623 15.8154 30.7119 15.8154C30.583 15.8154 30.4756 15.8154 30.3896 15.8154C30.3467 15.9873 30.293 16.1162 30.2285 16.2021C30.1855 16.2666 30.1426 16.3311 30.0996 16.3955C30.0566 16.46 29.9922 16.5137 29.9062 16.5566C29.8418 16.5781 29.7559 16.5674 29.6484 16.5244C29.6484 16.6963 29.584 16.793 29.4551 16.8145C29.3262 16.8359 29.208 16.8359 29.1006 16.8145C28.9502 16.9219 28.8535 16.9863 28.8105 17.0078C28.7891 17.0078 28.7676 16.9971 28.7461 16.9756C28.7246 17.083 28.6172 17.1582 28.4238 17.2012C28.2949 17.3086 28.1875 17.373 28.1016 17.3945C28.0156 17.3945 27.9512 17.4482 27.9082 17.5557C27.9512 17.6631 27.9082 17.7598 27.7793 17.8457C27.6504 17.9102 27.5322 17.9854 27.4248 18.0713C27.3174 18.1572 27.2314 18.2646 27.167 18.3936C27.1025 18.501 27.0918 18.6299 27.1348 18.7803C27.3711 18.6299 27.5322 18.5225 27.6182 18.458C27.7256 18.3936 27.8545 18.3828 28.0049 18.4258C28.1123 18.3184 28.209 18.2109 28.2949 18.1035C28.3809 17.9961 28.5312 17.9316 28.7461 17.9102C28.9395 17.7383 29.0684 17.6631 29.1328 17.6846C29.1973 17.6846 29.2725 17.6523 29.3584 17.5879C29.5303 17.373 29.627 17.2656 29.6484 17.2656C29.6699 17.2441 29.7344 17.1797 29.8418 17.0723C30.0352 16.9004 30.1748 16.8145 30.2607 16.8145C30.3467 16.793 30.4326 16.7822 30.5186 16.7822C30.6045 16.7607 30.6797 16.7393 30.7441 16.7178C30.8301 16.6963 30.8838 16.6318 30.9053 16.5244L31.1631 16.4277ZM29.3584 17.7812C29.2939 17.7383 29.2402 17.7598 29.1973 17.8457C29.1758 17.9102 29.1113 17.9209 29.0039 17.8779C29.0039 18.0498 29.0576 18.0928 29.165 18.0068C29.2939 17.9209 29.3584 17.8457 29.3584 17.7812ZM31.2275 16.7822C30.9697 16.8467 30.8516 16.8896 30.873 16.9111C30.916 16.9326 30.916 16.9541 30.873 16.9756C30.7656 16.9326 30.6475 16.9326 30.5186 16.9756C30.4111 16.9971 30.293 16.9756 30.1641 16.9111C30.0996 17.1045 30.0352 17.2227 29.9707 17.2656C29.9062 17.3086 29.8525 17.3623 29.8096 17.4268C29.7666 17.4697 29.7451 17.5234 29.7451 17.5879C29.7451 17.6309 29.7773 17.6631 29.8418 17.6846C30.0137 17.7061 30.0781 17.7383 30.0352 17.7812C30.0137 17.8242 30.0459 17.8779 30.1318 17.9424C29.96 17.9854 29.874 18.0283 29.874 18.0713C29.874 18.1143 29.8418 18.125 29.7773 18.1035C29.6699 18.1895 29.584 18.2646 29.5195 18.3291C29.4766 18.3936 29.4014 18.4365 29.2939 18.458C29.1865 18.5225 29.1006 18.5654 29.0361 18.5869C28.9717 18.5869 28.918 18.6191 28.875 18.6836C28.6816 18.834 28.5205 18.9736 28.3916 19.1025C28.2627 19.21 28.0801 19.2529 27.8438 19.2314C27.7363 19.4463 27.6504 19.5859 27.5859 19.6504C27.5215 19.7148 27.4463 19.7686 27.3604 19.8115C27.2744 19.8545 27.1992 19.9082 27.1348 19.9727C27.0703 20.0371 27.0381 20.123 27.0381 20.2305C27.167 20.2305 27.2744 20.209 27.3604 20.166C27.4463 20.1016 27.5215 20.0371 27.5859 19.9727C27.6719 19.8867 27.7578 19.8223 27.8438 19.7793C27.9297 19.7363 28.0371 19.7363 28.166 19.7793L28.5527 19.4893C28.6602 19.3818 28.7246 19.2959 28.7461 19.2314C28.7891 19.1455 28.8428 19.0918 28.9072 19.0703C29.1221 19.1562 29.2402 19.1885 29.2617 19.167C29.3047 19.1455 29.3584 19.1348 29.4229 19.1348C29.4658 18.9414 29.5088 18.8232 29.5518 18.7803C29.5947 18.7373 29.6377 18.6943 29.6807 18.6514C29.8525 18.5225 30.0244 18.4473 30.1963 18.4258C30.3682 18.3828 30.54 18.3184 30.7119 18.2324C30.8623 18.0176 30.9375 17.8887 30.9375 17.8457C30.959 17.8027 31.0234 17.7812 31.1309 17.7812C31.0664 17.6523 30.9805 17.5664 30.873 17.5234C30.7012 17.6953 30.5938 17.8135 30.5508 17.8779C30.5293 17.9209 30.4756 17.9316 30.3896 17.9102C30.4111 17.8027 30.3896 17.7598 30.3252 17.7812C30.2607 17.7812 30.2285 17.7168 30.2285 17.5879C30.3359 17.5879 30.4219 17.5557 30.4863 17.4912C30.5723 17.4053 30.6582 17.416 30.7441 17.5234C30.9375 17.2871 31.0771 17.1475 31.1631 17.1045C31.249 17.0615 31.2705 16.9541 31.2275 16.7822ZM31.002 21.1328C30.8945 21.1113 30.7871 21.1328 30.6797 21.1973C30.5938 21.2617 30.4971 21.3047 30.3896 21.3262C30.3467 21.541 30.3896 21.5947 30.5186 21.4873C30.6475 21.3799 30.7549 21.3906 30.8408 21.5195C30.8408 21.4121 30.873 21.3477 30.9375 21.3262C31.002 21.3047 31.0234 21.2402 31.002 21.1328ZM31.0986 19.457C30.9912 19.2637 30.9482 19.167 30.9697 19.167C30.9912 19.167 31.002 19.1455 31.002 19.1025C30.5938 19.2959 30.2715 19.457 30.0352 19.5859C29.8203 19.6934 29.5947 19.7363 29.3584 19.7148C29.2725 19.7578 29.1865 19.8223 29.1006 19.9082C29.0361 19.9941 28.9502 20.0156 28.8428 19.9727C28.7783 20.1016 28.6709 20.2197 28.5205 20.3271C28.3916 20.4346 28.252 20.4561 28.1016 20.3916C28.0801 20.5205 28.0049 20.6387 27.876 20.7461C27.7686 20.832 27.6504 20.918 27.5215 21.0039C27.3926 21.0684 27.2744 21.1543 27.167 21.2617C27.0596 21.3691 27.0059 21.5088 27.0059 21.6807C27.1348 21.8311 27.2637 21.9277 27.3926 21.9707C27.7363 21.7559 27.9834 21.5518 28.1338 21.3584C28.3057 21.1436 28.5635 21.0146 28.9072 20.9717C28.9287 20.8857 28.9717 20.832 29.0361 20.8105C29.1221 20.7676 29.208 20.7676 29.2939 20.8105C29.2725 20.7246 29.2939 20.6709 29.3584 20.6494C29.4443 20.6064 29.5303 20.6064 29.6162 20.6494C29.6377 20.4775 29.7236 20.3701 29.874 20.3271C30.0244 20.2627 30.1426 20.166 30.2285 20.0371C30.4434 20.0586 30.5615 20.0371 30.583 19.9727C30.626 19.9082 30.7012 19.8652 30.8086 19.8438C30.8516 19.7363 30.8838 19.6504 30.9053 19.5859C30.9482 19.5215 31.0127 19.4785 31.0986 19.457ZM29.0039 21.8096C28.8965 21.7236 28.7891 21.6914 28.6816 21.7129C28.5957 21.7344 28.5312 21.7881 28.4883 21.874C28.6172 21.874 28.7139 21.8525 28.7783 21.8096C28.8643 21.7451 28.9395 21.7451 29.0039 21.8096ZM28.166 22.1318C28.0156 22.1963 27.876 22.2715 27.7471 22.3574C27.6182 22.4219 27.5215 22.5293 27.457 22.6797C27.6934 22.5938 27.833 22.54 27.876 22.5186C27.9404 22.4756 28.0264 22.4648 28.1338 22.4863C28.1123 22.4004 28.0908 22.3359 28.0693 22.293C28.0693 22.25 28.1016 22.1963 28.166 22.1318ZM31.0342 21.7451C30.9697 21.6377 30.9053 21.5947 30.8408 21.6162C30.7764 21.6162 30.7012 21.6377 30.6152 21.6807C30.5293 21.7236 30.4541 21.7559 30.3896 21.7773C30.3252 21.7988 30.2607 21.7666 30.1963 21.6807C30.1533 21.7666 30.0781 21.8203 29.9707 21.8418C29.8848 21.8633 29.8418 21.9277 29.8418 22.0352C29.6484 22.0996 29.4873 22.1533 29.3584 22.1963C29.2295 22.2178 29.0684 22.2178 28.875 22.1963C28.9824 22.4111 28.9932 22.5186 28.9072 22.5186C28.8428 22.5186 28.7783 22.5293 28.7139 22.5508C28.6064 22.6797 28.4883 22.7871 28.3594 22.873C28.2305 22.959 28.0693 23.0127 27.876 23.0342C27.8975 23.1416 27.876 23.2061 27.8115 23.2275C27.7471 23.249 27.6611 23.2705 27.5537 23.292C27.3818 23.4639 27.1992 23.6357 27.0059 23.8076C26.834 23.9795 26.6191 24.1084 26.3613 24.1943C26.2969 24.3877 26.1895 24.5059 26.0391 24.5488C25.9102 24.5703 25.792 24.6348 25.6846 24.7422C26.2002 24.7422 26.7695 24.7529 27.3926 24.7744C28.0371 24.7744 28.6387 24.7852 29.1973 24.8066C29.2188 24.6992 29.208 24.624 29.165 24.5811C29.1221 24.5166 29.0791 24.4199 29.0361 24.291C29.208 24.1621 29.3906 24.0439 29.584 23.9365C29.7988 23.8076 29.9922 23.668 30.1641 23.5176C30.3359 23.3887 30.5078 23.3242 30.6797 23.3242C30.5293 23.1094 30.4004 23.0449 30.293 23.1309C30.207 23.1953 30.0889 23.1953 29.9385 23.1309C29.8311 23.1953 29.7559 23.2598 29.7129 23.3242C29.6914 23.3672 29.6699 23.4102 29.6484 23.4531C29.584 23.4961 29.498 23.5283 29.3906 23.5498C29.3047 23.5498 29.2295 23.582 29.165 23.6465C29.0791 23.8184 29.0039 23.9043 28.9395 23.9043C28.8965 23.9043 28.8428 23.9258 28.7783 23.9688C28.542 24.1406 28.3916 24.2266 28.3271 24.2266C28.2627 24.2266 28.209 24.248 28.166 24.291C28.0801 24.377 28.0156 24.4629 27.9727 24.5488C27.9297 24.6133 27.8652 24.6562 27.7793 24.6777C27.6719 24.6992 27.5645 24.6885 27.457 24.6455C27.3496 24.5811 27.2852 24.4951 27.2637 24.3877C27.2637 24.2158 27.3389 24.1084 27.4893 24.0654C27.6611 24.0225 27.8008 23.958 27.9082 23.8721C28.0586 23.7646 28.166 23.668 28.2305 23.582C28.3164 23.4746 28.4023 23.4102 28.4883 23.3887C28.8105 23.2383 29.0791 23.1094 29.2939 23.002C29.5303 22.873 29.7451 22.7227 29.9385 22.5508C30.1318 22.4648 30.2822 22.3789 30.3896 22.293C30.4971 22.207 30.6367 22.1426 30.8086 22.0996C30.8516 22.0352 30.8838 21.9814 30.9053 21.9385C30.9482 21.874 30.9912 21.8096 31.0342 21.7451ZM28.4561 7.8877C28.4346 7.95215 28.4023 7.98438 28.3594 7.98438C28.3379 7.98438 28.3057 7.97363 28.2627 7.95215C28.2197 7.93066 28.1768 7.90918 28.1338 7.8877C28.0908 7.86621 28.0479 7.87695 28.0049 7.91992C28.2627 7.98438 28.3809 7.99512 28.3594 7.95215C28.3594 7.8877 28.3916 7.86621 28.4561 7.8877Z" fill="white"/>
</svg>
