<svg width="80" height="67" viewBox="0 0 80 67" fill="none" xmlns="http://www.w3.org/2000/svg">
<path d="M35.9326 39.6592C35.5029 40.6618 35.2702 41.6823 35.2344 42.7207C35.2344 43.7591 35.0195 44.6901 34.5898 45.5137C34.4824 46.1224 34.375 46.6058 34.2676 46.9639C34.1602 47.2861 34.0169 47.5368 33.8379 47.7158C33.4082 48.5036 33.0501 49.166 32.7637 49.7031C32.4772 50.2044 32.1191 50.652 31.6895 51.0459L31.2061 51.583C31.0986 51.8695 30.9375 52.1022 30.7227 52.2812C30.5436 52.4603 30.3288 52.5498 30.0781 52.5498C29.3978 52.9437 28.8428 53.2839 28.4131 53.5703C27.9834 53.8568 27.4642 54.0358 26.8555 54.1074C26.3184 54.2865 25.7454 54.3223 25.1367 54.2148C24.5638 54.1432 24.0267 54.2327 23.5254 54.4834C23.2389 54.376 22.9167 54.3223 22.5586 54.3223C22.2005 54.3581 21.8245 54.3939 21.4307 54.4297C21.0726 54.4655 20.7324 54.4655 20.4102 54.4297C20.0879 54.4297 19.8193 54.3581 19.6045 54.2148C18.6735 54.2865 17.8141 54.2148 17.0264 54C16.2386 53.821 15.4867 53.6956 14.7705 53.624C14.1976 53.4092 13.6068 53.2301 12.998 53.0869C12.3893 52.9079 11.9059 52.5677 11.5479 52.0664C11.4046 52.0306 11.2793 51.9769 11.1719 51.9053C11.0645 51.7979 10.9212 51.7441 10.7422 51.7441C10.6348 51.6367 10.5452 51.5293 10.4736 51.4219C10.402 51.3145 10.2767 51.2607 10.0977 51.2607C9.52474 50.6878 8.96973 50.1865 8.43262 49.7568C7.93132 49.3271 7.55534 48.8796 7.30469 48.4141C7.19727 48.1992 7.10775 48.0202 7.03613 47.877C6.96452 47.6979 6.78548 47.5905 6.49902 47.5547C6.3916 47.2682 6.23047 47.0713 6.01562 46.9639C5.72917 46.9639 5.49642 47.0176 5.31738 47.125C5.13835 47.2324 4.9235 47.2324 4.67285 47.125C4.52962 46.6953 4.49382 46.4626 4.56543 46.4268C4.63704 46.3551 4.69076 46.2477 4.72656 46.1045C4.33268 45.639 4.17155 45.2988 4.24316 45.084C4.09993 44.8333 3.90299 44.6364 3.65234 44.4932C3.4375 44.3499 3.25846 44.153 3.11523 43.9023C3.18685 43.6159 3.15104 43.4368 3.00781 43.3652C2.90039 43.2578 2.79297 43.1325 2.68555 42.9893C2.68555 42.488 2.64974 42.1478 2.57812 41.9688C2.50651 41.7897 2.34538 41.6644 2.09473 41.5928C2.16634 41.3063 2.16634 41.0557 2.09473 40.8408C2.05892 40.626 2.11263 40.4469 2.25586 40.3037C2.22005 39.9814 2.18424 39.7129 2.14844 39.498C2.11263 39.2474 2.11263 38.9788 2.14844 38.6924C1.9694 38.4775 1.86198 38.2269 1.82617 37.9404C1.82617 37.6182 1.82617 37.2601 1.82617 36.8662C1.82617 36.6872 1.75456 36.5618 1.61133 36.4902C1.50391 36.3828 1.52181 36.2933 1.66504 36.2217L1.71875 35.5234C1.75456 35.1654 1.68294 34.8789 1.50391 34.6641C1.36068 34.4134 1.41439 34.127 1.66504 33.8047C1.73665 33.196 1.82617 32.623 1.93359 32.0859C2.07682 31.513 2.11263 30.8864 2.04102 30.2061C2.32747 29.9196 2.52441 29.5973 2.63184 29.2393C2.73926 28.8454 2.88249 28.4873 3.06152 28.165C2.98991 28.0576 2.90039 27.986 2.79297 27.9502C2.68555 27.9144 2.59603 27.8428 2.52441 27.7354C2.66764 27.5205 2.82878 27.3594 3.00781 27.252C3.22266 27.1445 3.31217 26.9297 3.27637 26.6074C3.59863 26.4642 3.81348 26.2673 3.9209 26.0166C4.02832 25.7301 4.17155 25.4437 4.35059 25.1572C4.24316 24.9424 4.24316 24.7275 4.35059 24.5127C4.49382 24.262 4.52962 24.0293 4.45801 23.8145C4.85189 23.528 5.17415 23.1878 5.4248 22.7939C5.71126 22.4001 6.05143 22.0599 6.44531 21.7734C6.48112 21.4512 6.60645 21.1826 6.82129 20.9678C7.03613 20.7171 7.25098 20.4844 7.46582 20.2695C7.71647 20.0547 7.94922 19.8398 8.16406 19.625C8.37891 19.3743 8.52214 19.0879 8.59375 18.7656C8.73698 18.7298 8.8265 18.6582 8.8623 18.5508C8.93392 18.4076 9.05924 18.318 9.23828 18.2822C9.66797 17.8883 10.0081 17.5661 10.2588 17.3154C10.5452 17.0648 10.9212 16.8499 11.3867 16.6709C11.709 16.3128 12.085 16.0443 12.5146 15.8652C12.9801 15.6504 13.3561 15.346 13.6426 14.9521C13.7858 15.0238 13.9111 15.0238 14.0186 14.9521C14.1618 14.8447 14.2871 14.7552 14.3945 14.6836C14.5378 14.5762 14.6631 14.4867 14.7705 14.415C14.9137 14.3434 15.0749 14.3255 15.2539 14.3613C15.3255 14.1823 15.4867 14.0928 15.7373 14.0928C15.988 14.057 16.167 13.9495 16.2744 13.7705C16.8115 13.7705 17.3307 13.7168 17.832 13.6094C18.2975 13.2513 18.6914 13.1081 19.0137 13.1797C19.3717 13.2513 19.7835 13.2692 20.249 13.2334C20.5355 13.1976 20.8398 13.1439 21.1621 13.0723C21.4844 13.0007 21.8424 12.9648 22.2363 12.9648C22.6302 13.0723 22.9346 13.1976 23.1494 13.3408C23.3643 13.4482 23.597 13.4303 23.8477 13.2871C23.8835 13.4661 23.973 13.5378 24.1162 13.502C24.2594 13.4303 24.3669 13.484 24.4385 13.6631C25.262 13.8421 26.014 14.2002 26.6943 14.7373C27.3747 15.2744 27.9655 15.8652 28.4668 16.5098C28.7174 16.5456 28.9144 16.6351 29.0576 16.7783C29.2008 16.8857 29.3262 17.029 29.4336 17.208C29.5768 17.3512 29.7021 17.4945 29.8096 17.6377C29.9528 17.7809 30.1318 17.8704 30.3467 17.9062C30.5257 17.9779 30.6689 17.96 30.7764 17.8525C30.9196 17.7093 30.9912 17.5303 30.9912 17.3154C31.2061 17.0648 31.4567 16.7783 31.7432 16.4561C32.0296 16.098 32.2803 15.7578 32.4951 15.4355C32.71 15.1491 32.8174 14.8268 32.8174 14.4688C32.8532 14.1107 32.889 13.681 32.9248 13.1797C33.1038 12.9648 33.2829 12.8932 33.4619 12.9648C33.641 13.0365 33.7842 13.1618 33.8916 13.3408C33.9632 13.9495 33.9811 14.5225 33.9453 15.0596C33.9095 15.5609 33.9453 16.0801 34.0527 16.6172C34.0527 17.1185 34.0169 17.4945 33.9453 17.7451C33.9095 17.96 33.8737 18.1927 33.8379 18.4434C34.0169 18.6224 34.1243 18.8014 34.1602 18.9805C34.196 19.1595 34.1781 19.3564 34.1064 19.5713C34.0706 19.7861 33.999 20.0189 33.8916 20.2695C33.82 20.4844 33.7663 20.6992 33.7305 20.9141C33.9095 21.0573 34.0527 21.1826 34.1602 21.29C34.2676 21.3975 34.3034 21.5586 34.2676 21.7734C34.2676 21.8809 34.2318 21.9883 34.1602 22.0957C34.0885 22.1673 34.0348 22.2389 33.999 22.3105C33.9274 22.5254 33.9274 22.7402 33.999 22.9551C34.0706 23.1699 34.0348 23.3311 33.8916 23.4385C34.1423 24.6559 34.3034 25.7839 34.375 26.8223C34.4466 27.8607 34.4645 28.9349 34.4287 30.0449C34.0348 30.1882 33.7484 30.0986 33.5693 29.7764C33.4977 29.2393 33.4261 28.8096 33.3545 28.4873C33.3187 28.165 33.2829 27.8428 33.2471 27.5205C33.2113 27.1982 33.1576 26.876 33.0859 26.5537C33.0501 26.1956 32.9606 25.8555 32.8174 25.5332C32.9248 24.9961 32.889 24.4769 32.71 23.9756C32.5667 23.4743 32.4593 23.0625 32.3877 22.7402C32.2087 22.7044 32.0833 22.6328 32.0117 22.5254C31.9759 22.418 31.958 22.3105 31.958 22.2031C31.958 22.0599 31.9759 21.9167 32.0117 21.7734C32.0475 21.6302 32.0475 21.487 32.0117 21.3438C31.9759 21.0931 31.8506 20.8962 31.6357 20.7529C31.4209 20.5739 31.3135 20.359 31.3135 20.1084C31.0628 20.4307 30.9017 20.5739 30.8301 20.5381C30.7943 20.4665 30.7227 20.3949 30.6152 20.3232C30.5436 19.7145 30.293 19.1953 29.8633 18.7656C29.4336 18.3359 29.0755 17.8704 28.7891 17.3691C28.6458 17.3691 28.5205 17.3512 28.4131 17.3154C28.3057 17.2438 28.1982 17.1901 28.0908 17.1543C27.1598 15.901 25.9603 14.9701 24.4922 14.3613C23.0599 13.7526 21.377 13.5736 19.4434 13.8242C18.8704 14.0749 18.4049 14.3076 18.0469 14.5225C17.6888 14.7015 17.277 14.8626 16.8115 15.0059C16.8473 15.1849 16.7578 15.3102 16.543 15.3818C16.3639 15.4535 16.2565 15.5967 16.2207 15.8115C16.1133 16.277 15.9163 16.5814 15.6299 16.7246C15.3792 16.8678 15.1286 17.029 14.8779 17.208C14.6273 17.387 14.4303 17.6019 14.2871 17.8525C14.1439 18.0674 14.0902 18.3717 14.126 18.7656C14.0186 18.873 13.8932 18.9805 13.75 19.0879C13.6426 19.1953 13.5352 19.3027 13.4277 19.4102C13.2845 20.0547 13.1234 20.6097 12.9443 21.0752C12.8011 21.5049 12.6579 21.9883 12.5146 22.5254C12.6937 22.7044 12.8727 22.7939 13.0518 22.7939C13.1234 22.8656 13.1592 22.973 13.1592 23.1162C13.1592 23.2594 13.1592 23.4027 13.1592 23.5459C12.8011 23.6891 12.5505 23.9577 12.4072 24.3516C12.264 24.7096 12.2282 25.0856 12.2998 25.4795C12.1566 25.766 12.1029 25.9629 12.1387 26.0703C12.2103 26.1419 12.264 26.2314 12.2998 26.3389C12.1924 26.5179 12.1387 26.7507 12.1387 27.0371C12.1387 27.3236 12.0671 27.5026 11.9238 27.5742C12.0312 27.8965 12.0671 28.2188 12.0312 28.541C12.0312 28.8275 11.9954 29.1318 11.9238 29.4541C11.888 29.7406 11.8343 30.0628 11.7627 30.4209C11.7269 30.7432 11.7269 31.0833 11.7627 31.4414C11.7985 31.8711 11.7448 32.265 11.6016 32.623C11.4583 32.9453 11.5837 33.196 11.9775 33.375C11.7627 33.8405 11.6016 34.3776 11.4941 34.9863C11.3867 35.5951 11.4762 36.0785 11.7627 36.4365C11.5479 36.8662 11.512 37.0811 11.6553 37.0811C11.7985 37.0452 11.9059 37.0632 11.9775 37.1348C11.7627 37.6003 11.6374 37.7972 11.6016 37.7256C11.5658 37.6182 11.512 37.5645 11.4404 37.5645C11.512 37.7435 11.5479 37.8688 11.5479 37.9404C11.5479 37.9762 11.512 38.0837 11.4404 38.2627C11.4404 38.4417 11.4941 38.5671 11.6016 38.6387C11.709 38.7103 11.6732 38.7819 11.4941 38.8535C11.5299 39.0326 11.6195 39.1579 11.7627 39.2295C11.9059 39.2653 11.9417 39.3727 11.8701 39.5518C11.7627 39.695 11.6732 39.7845 11.6016 39.8203C11.5658 39.8561 11.5658 39.9456 11.6016 40.0889C11.7806 40.2679 11.8343 40.429 11.7627 40.5723C11.7269 40.7155 11.7269 40.8766 11.7627 41.0557C11.7985 41.2347 11.8522 41.4137 11.9238 41.5928C12.0312 41.7718 12.1745 41.8613 12.3535 41.8613C12.3177 42.0404 12.2819 42.2015 12.2461 42.3447C12.2461 42.488 12.1924 42.5954 12.085 42.667C12.2282 43.5264 12.5326 44.2962 12.998 44.9766C13.0697 46.3372 13.3203 47.6263 13.75 48.8438L14.0186 49.7031C14.0902 49.7747 14.1976 49.7568 14.3408 49.6494C14.484 49.542 14.6452 49.5241 14.8242 49.5957C14.7526 49.7389 14.681 49.8464 14.6094 49.918C14.5378 49.9896 14.502 50.1149 14.502 50.2939C14.7168 50.7952 14.8958 51.1533 15.0391 51.3682C15.2181 51.583 15.415 51.762 15.6299 51.9053C15.9521 51.583 16.0775 51.5114 16.0059 51.6904C15.9342 51.8337 16.0059 51.8874 16.2207 51.8516C16.3281 52.2454 16.4355 52.4603 16.543 52.4961C16.7936 52.7826 17.098 52.9974 17.4561 53.1406C17.8141 53.248 18.1722 53.3376 18.5303 53.4092C18.9242 53.445 19.318 53.4808 19.7119 53.5166C20.1058 53.5524 20.4639 53.6419 20.7861 53.7852C21.2158 53.6777 21.6813 53.624 22.1826 53.624C22.6839 53.5882 23.2031 53.5882 23.7402 53.624C24.2773 53.6598 24.7965 53.6777 25.2979 53.6777C25.835 53.6419 26.3542 53.5703 26.8555 53.4629C28.252 53.069 29.3799 52.4066 30.2393 51.4756C31.1344 50.5446 31.9938 49.5241 32.8174 48.4141C32.7816 48.1634 32.7995 47.9307 32.8711 47.7158C32.9785 47.501 33.0859 47.3219 33.1934 47.1787C33.3366 46.9997 33.4619 46.8385 33.5693 46.6953C33.6768 46.5163 33.7305 46.3193 33.7305 46.1045C33.7305 45.9613 33.6947 45.8359 33.623 45.7285C33.5514 45.5853 33.4977 45.4421 33.4619 45.2988C33.3903 45.0124 33.3903 44.7438 33.4619 44.4932C33.5335 44.2425 33.6051 43.9382 33.6768 43.5801C33.4977 43.1504 33.3366 42.6849 33.1934 42.1836C33.0859 41.6465 33.0322 41.1273 33.0322 40.626C33.0322 40.1247 33.0859 39.6413 33.1934 39.1758C33.3366 38.7103 33.5693 38.2985 33.8916 37.9404C34.1423 37.7972 34.4108 37.7614 34.6973 37.833C35.0195 37.8688 35.2881 37.9762 35.5029 38.1553C35.7178 38.3343 35.861 38.5671 35.9326 38.8535C36.04 39.1042 36.04 39.3727 35.9326 39.6592ZM16.2744 51.4219C16.0596 51.207 15.9342 51.0638 15.8984 50.9922C15.8626 50.9206 15.8268 50.849 15.791 50.7773C16.0775 50.8132 16.2028 50.8848 16.167 50.9922C16.167 51.0996 16.2028 51.2428 16.2744 51.4219ZM32.1729 19.3027C31.9938 19.2311 31.8685 19.1416 31.7969 19.0342C31.7253 18.9268 31.6178 18.8372 31.4746 18.7656C31.403 18.9447 31.3851 19.1416 31.4209 19.3564C31.4925 19.5713 31.6357 19.6787 31.8506 19.6787L32.1729 19.3027ZM32.7637 20.2695C32.5846 20.7708 32.5309 21.0394 32.6025 21.0752C32.71 21.0036 32.7995 20.8783 32.8711 20.6992C32.9427 20.4844 32.9069 20.3411 32.7637 20.2695ZM14.7705 15.543C13.9827 16.0085 13.2129 16.6172 12.4609 17.3691C12.7474 17.4049 12.9085 17.3333 12.9443 17.1543C13.016 16.9753 13.1771 16.9036 13.4277 16.9395C13.6068 16.653 13.8216 16.4202 14.0723 16.2412C14.3587 16.0622 14.5915 15.8294 14.7705 15.543ZM34.4287 39.874C34.0706 40.0531 33.9274 40.25 33.999 40.4648C34.0706 40.6797 34.1602 40.8587 34.2676 41.002C34.3392 40.8587 34.3929 40.6797 34.4287 40.4648C34.4645 40.25 34.4645 40.0531 34.4287 39.874ZM11.6016 17.6377C11.4583 17.6019 11.2972 17.6377 11.1182 17.7451C10.9749 17.8167 10.9749 17.9062 11.1182 18.0137C11.154 17.8704 11.2256 17.7988 11.333 17.7988C11.4404 17.763 11.5299 17.7093 11.6016 17.6377ZM10.8496 18.0674C10.599 18.2106 10.3483 18.3717 10.0977 18.5508C9.88281 18.7298 9.72168 18.9626 9.61426 19.249C9.79329 19.2848 9.90072 19.249 9.93652 19.1416C9.97233 18.9984 10.0798 18.9447 10.2588 18.9805C10.402 18.6224 10.5452 18.4255 10.6885 18.3896C10.8675 18.3538 10.9212 18.2464 10.8496 18.0674ZM9.93652 19.5176C9.72168 19.5534 9.56055 19.5892 9.45312 19.625C9.3457 19.625 9.3099 19.7145 9.3457 19.8936C9.45312 19.8219 9.56055 19.7682 9.66797 19.7324C9.77539 19.6966 9.86491 19.625 9.93652 19.5176ZM10.8496 24.2441C10.4557 24.1725 10.1872 24.2441 10.0439 24.459C10.402 24.459 10.6169 24.459 10.6885 24.459C10.7959 24.4232 10.8496 24.3516 10.8496 24.2441ZM11.8701 21.8809C11.6195 21.5586 11.4225 21.4512 11.2793 21.5586C11.1719 21.6302 11.0286 21.666 10.8496 21.666C10.7064 21.8092 10.5811 21.8988 10.4736 21.9346C10.402 21.9704 10.3304 21.9167 10.2588 21.7734C9.8291 21.7376 9.57845 21.7018 9.50684 21.666C9.43522 21.6302 9.36361 21.5944 9.29199 21.5586C9.36361 21.666 9.47103 21.7734 9.61426 21.8809C9.75749 21.9883 9.90072 21.9883 10.0439 21.8809C9.72168 22.2389 9.61426 22.418 9.72168 22.418C9.8291 22.3822 9.90072 22.4001 9.93652 22.4717C9.86491 22.5433 9.70378 22.597 9.45312 22.6328C9.23828 22.6328 9.04134 22.597 8.8623 22.5254C9.00553 22.2031 8.95182 22.0957 8.70117 22.2031C8.45052 22.3105 8.23568 22.4001 8.05664 22.4717C7.8776 22.7581 7.73438 22.9372 7.62695 23.0088C7.55534 23.0804 7.44792 23.1162 7.30469 23.1162C7.3763 23.4743 7.23307 23.6175 6.875 23.5459C6.83919 23.6891 6.74967 23.7786 6.60645 23.8145C6.46322 23.8503 6.33789 23.904 6.23047 23.9756C6.12305 24.2262 5.97982 24.4411 5.80078 24.6201C5.62174 24.7633 5.49642 24.9782 5.4248 25.2646C5.49642 25.5511 5.46061 25.7301 5.31738 25.8018C5.20996 25.8734 5.10254 25.8734 4.99512 25.8018C5.4248 25.6943 5.62174 25.6048 5.58594 25.5332C5.55013 25.4258 5.56803 25.3363 5.63965 25.2646C5.96191 25.2646 6.15885 25.3184 6.23047 25.4258C6.30208 25.4974 6.40951 25.5332 6.55273 25.5332C6.48112 25.1035 6.48112 24.8887 6.55273 24.8887C6.66016 24.8529 6.76758 24.8171 6.875 24.7812C6.69596 24.459 6.64225 24.2799 6.71387 24.2441C6.78548 24.2083 6.8571 24.1546 6.92871 24.083C7.28678 24.1904 7.51953 24.2441 7.62695 24.2441C7.77018 24.2441 7.8776 24.2799 7.94922 24.3516C8.09245 24.1367 8.23568 23.9577 8.37891 23.8145C8.55794 23.6354 8.79069 23.5459 9.07715 23.5459C9.18457 23.4027 9.23828 23.2773 9.23828 23.1699C9.27409 23.0625 9.3278 22.9909 9.39941 22.9551C9.97233 22.8835 10.4199 22.7402 10.7422 22.5254C11.1003 22.2747 11.4762 22.0599 11.8701 21.8809ZM11.333 24.835C11.1898 24.835 10.9928 24.8887 10.7422 24.9961C10.4915 25.1035 10.3304 25.193 10.2588 25.2646C9.65007 25.0856 9.3457 25.0856 9.3457 25.2646C9.41732 25.3721 9.50684 25.4437 9.61426 25.4795C9.72168 25.4795 9.79329 25.5332 9.8291 25.6406C9.57845 25.6048 9.43522 25.6943 9.39941 25.9092C9.36361 26.0882 9.22038 26.1419 8.96973 26.0703C9.22038 26.2135 9.47103 26.2493 9.72168 26.1777C9.97233 26.1061 10.2051 26.0345 10.4199 25.9629C10.6706 25.8913 10.8854 25.7839 11.0645 25.6406C11.2435 25.4616 11.333 25.193 11.333 24.835ZM9.07715 25.0498C8.96973 25.1214 8.8623 25.193 8.75488 25.2646C8.68327 25.3005 8.57585 25.3184 8.43262 25.3184C8.64746 25.4258 8.79069 25.4616 8.8623 25.4258C8.96973 25.3542 9.04134 25.2288 9.07715 25.0498ZM10.6348 27.7891C10.3841 27.8965 10.1693 27.986 9.99023 28.0576C9.8112 28.1292 9.68587 28.2008 9.61426 28.2725C9.93652 28.0576 10.1693 27.9502 10.3125 27.9502C10.4557 27.9502 10.5632 27.8965 10.6348 27.7891ZM8.64746 26.0166C8.39681 26.124 8.23568 26.1061 8.16406 25.9629C8.09245 25.7839 7.91341 25.6943 7.62695 25.6943C7.05404 26.0166 6.69596 26.321 6.55273 26.6074C6.40951 26.8939 6.12305 27.055 5.69336 27.0908C5.94401 27.1624 6.08724 27.1803 6.12305 27.1445C6.19466 27.0729 6.31999 27.055 6.49902 27.0908C6.60645 26.8044 6.78548 26.6074 7.03613 26.5C7.32259 26.3926 7.55534 26.2493 7.73438 26.0703C7.80599 26.1777 7.94922 26.2314 8.16406 26.2314C8.41471 26.2314 8.57585 26.1598 8.64746 26.0166ZM11.0107 28.7559C10.7959 28.6842 10.5632 28.738 10.3125 28.917C10.0977 29.0602 9.88281 29.0244 9.66797 28.8096C9.38151 28.9528 9.14876 28.9707 8.96973 28.8633C8.79069 28.7559 8.66536 28.7021 8.59375 28.7021C8.59375 29.1318 8.62956 29.4004 8.70117 29.5078C8.77279 29.6152 8.77279 29.7048 8.70117 29.7764C9.02344 29.5973 9.14876 29.4899 9.07715 29.4541C9.00553 29.3825 8.98763 29.3109 9.02344 29.2393C9.3099 29.4541 9.45312 29.5257 9.45312 29.4541C9.48893 29.3825 9.54264 29.3467 9.61426 29.3467C9.79329 29.5973 9.90072 29.7048 9.93652 29.6689C10.0081 29.5973 10.0977 29.5794 10.2051 29.6152C10.1693 29.4362 10.2409 29.3467 10.4199 29.3467C10.6348 29.3109 10.778 29.3109 10.8496 29.3467C10.9212 29.2751 10.957 29.1855 10.957 29.0781C10.957 28.9707 10.9749 28.8633 11.0107 28.7559ZM10.7422 31.0117C10.4199 31.1191 10.2051 31.1908 10.0977 31.2266C10.026 31.2266 10.026 31.2982 10.0977 31.4414C10.3841 31.334 10.5632 31.2624 10.6348 31.2266C10.7064 31.1908 10.7422 31.1191 10.7422 31.0117ZM10.0977 31.5488C10.026 31.3698 9.93652 31.2982 9.8291 31.334C9.75749 31.3698 9.65007 31.3519 9.50684 31.2803C9.61426 31.4593 9.68587 31.5488 9.72168 31.5488C9.79329 31.513 9.91862 31.513 10.0977 31.5488ZM8.3252 29.8838C8.18197 29.6331 8.09245 29.4362 8.05664 29.293C8.05664 29.1139 7.98503 29.0423 7.8418 29.0781C7.94922 29.2572 7.94922 29.4004 7.8418 29.5078C7.77018 29.5794 7.66276 29.651 7.51953 29.7227C7.41211 29.7585 7.30469 29.8301 7.19727 29.9375C7.08984 30.0091 7.07194 30.1344 7.14355 30.3135C7.32259 30.3135 7.44792 30.2777 7.51953 30.2061C7.59115 30.0986 7.66276 29.9912 7.73438 29.8838C7.8418 29.9912 7.94922 30.0091 8.05664 29.9375C8.16406 29.8301 8.25358 29.8122 8.3252 29.8838ZM5.63965 27.5742C5.49642 27.4668 5.37109 27.431 5.26367 27.4668C5.15625 27.5026 5.06673 27.5921 4.99512 27.7354C5.13835 27.8428 5.22786 27.8249 5.26367 27.6816C5.33529 27.5384 5.46061 27.5026 5.63965 27.5742ZM10.9033 26.876C10.6527 26.5179 10.4378 26.3926 10.2588 26.5C10.1156 26.5716 9.91862 26.6253 9.66797 26.6611C8.80859 27.0192 8.02083 27.4489 7.30469 27.9502C6.58854 28.4515 5.81868 28.8991 4.99512 29.293C4.85189 29.5436 4.65495 29.7585 4.4043 29.9375C4.15365 30.0807 3.90299 30.2419 3.65234 30.4209C3.4375 30.5641 3.24056 30.7611 3.06152 31.0117C2.88249 31.2266 2.79297 31.513 2.79297 31.8711C2.9362 31.7995 3.04362 31.7637 3.11523 31.7637C3.18685 31.7279 3.31217 31.6921 3.49121 31.6562C3.81348 31.2266 3.9388 31.0475 3.86719 31.1191C3.79557 31.1549 3.74186 31.137 3.70605 31.0654C3.95671 30.9222 4.24316 30.7969 4.56543 30.6895C4.9235 30.582 5.06673 30.3851 4.99512 30.0986C5.17415 30.1702 5.389 30.1702 5.63965 30.0986C5.92611 29.9912 6.01562 29.7943 5.9082 29.5078C6.08724 29.4362 6.21257 29.3646 6.28418 29.293C6.3916 29.2214 6.58854 29.2214 6.875 29.293C7.01823 28.7917 7.30469 28.6126 7.73438 28.7559C7.8418 28.6484 7.89551 28.541 7.89551 28.4336C7.89551 28.2904 8.00293 28.2008 8.21777 28.165C8.46842 28.0218 8.71908 28.0397 8.96973 28.2188C9.11296 28.0039 9.25618 27.807 9.39941 27.6279C9.57845 27.4489 9.75749 27.5026 9.93652 27.7891C10.1514 27.5384 10.2767 27.3236 10.3125 27.1445C10.3483 26.9297 10.5452 26.8402 10.9033 26.876ZM10.4736 35.3086C10.1514 35.2728 9.86491 35.3802 9.61426 35.6309C9.39941 35.8815 9.20247 36.0964 9.02344 36.2754C9.3099 36.347 9.59635 36.2754 9.88281 36.0605C10.1693 35.8457 10.3662 35.5951 10.4736 35.3086ZM10.0977 30.3672C9.91862 30.3672 9.77539 30.3314 9.66797 30.2598C9.59635 30.1882 9.47103 30.1702 9.29199 30.2061C9.22038 30.3851 9.14876 30.5104 9.07715 30.582C9.00553 30.6536 8.91602 30.7074 8.80859 30.7432C8.66536 30.8506 8.45052 30.9938 8.16406 31.1729C7.8776 31.3161 7.60905 31.3877 7.3584 31.3877C6.8929 31.6742 6.55273 31.889 6.33789 32.0322C6.12305 32.1396 5.9082 32.1934 5.69336 32.1934C5.4069 32.5514 5.20996 32.7305 5.10254 32.7305C4.99512 32.6947 4.9056 32.7126 4.83398 32.7842C4.83398 32.9632 4.78027 33.1064 4.67285 33.2139C4.56543 33.3213 4.4222 33.3392 4.24316 33.2676C4.17155 33.4824 3.95671 33.751 3.59863 34.0732C3.27637 34.3597 2.9362 34.4134 2.57812 34.2344C2.61393 34.0195 2.66764 33.8942 2.73926 33.8584C2.81087 33.7868 2.86458 33.6077 2.90039 33.3213C3.07943 33.3213 3.20475 33.2855 3.27637 33.2139C3.34798 33.1423 3.4554 33.0706 3.59863 32.999C3.9209 32.8558 4.06413 32.7663 4.02832 32.7305C4.02832 32.6589 4.02832 32.5872 4.02832 32.5156C4.20736 32.444 4.33268 32.3724 4.4043 32.3008C4.47591 32.1934 4.60124 32.1396 4.78027 32.1396C4.74447 32.068 4.78027 31.9964 4.8877 31.9248C4.99512 31.8532 5.12044 31.7816 5.26367 31.71C5.44271 31.6383 5.62174 31.5846 5.80078 31.5488C5.97982 31.513 6.12305 31.4951 6.23047 31.4951C6.23047 31.2445 6.24837 31.0654 6.28418 30.958C6.31999 30.8148 6.42741 30.8148 6.60645 30.958C6.24837 30.6357 5.99772 30.5999 5.85449 30.8506C5.74707 31.0654 5.53223 31.1191 5.20996 31.0117L4.78027 31.6562C4.49382 31.7279 4.27897 31.8532 4.13574 32.0322C3.99251 32.2113 3.86719 32.4261 3.75977 32.6768C3.50911 32.7126 3.27637 32.7663 3.06152 32.8379C2.84668 32.8737 2.64974 32.9632 2.4707 33.1064C2.32747 33.6077 2.29167 34.0374 2.36328 34.3955C2.4707 34.7536 2.54232 35.0758 2.57812 35.3623C2.79297 35.2191 2.97201 35.1117 3.11523 35.04C3.25846 34.9684 3.40169 34.8968 3.54492 34.8252C3.72396 34.7536 3.86719 34.682 3.97461 34.6104C4.11784 34.5029 4.17155 34.3597 4.13574 34.1807C4.45801 34.0016 4.78027 33.7689 5.10254 33.4824C5.4248 33.1602 5.76497 33.0348 6.12305 33.1064C6.23047 32.9274 6.33789 32.7663 6.44531 32.623C6.58854 32.4798 6.80339 32.444 7.08984 32.5156C7.16146 32.3366 7.25098 32.2292 7.3584 32.1934C7.46582 32.1217 7.55534 32.0322 7.62695 31.9248C8.16406 32.1038 8.43262 32.1217 8.43262 31.9785C8.46842 31.8353 8.55794 31.8532 8.70117 32.0322C8.37891 31.889 8.16406 31.8353 8.05664 31.8711C7.98503 31.9069 7.93132 31.889 7.89551 31.8174C8.11035 31.7458 8.27148 31.6383 8.37891 31.4951C8.52214 31.3519 8.73698 31.2803 9.02344 31.2803C9.23828 31.0654 9.36361 30.9401 9.39941 30.9043C9.43522 30.8685 9.48893 30.8864 9.56055 30.958C9.63216 30.779 9.8112 30.582 10.0977 30.3672ZM10.5273 32.1396C10.1693 32.2113 9.86491 32.265 9.61426 32.3008C9.36361 32.3008 9.11296 32.3366 8.8623 32.4082C8.79069 32.5872 8.68327 32.7126 8.54004 32.7842C8.39681 32.82 8.23568 32.8558 8.05664 32.8916C7.91341 32.9274 7.77018 32.9632 7.62695 32.999C7.48372 33.0348 7.3763 33.1243 7.30469 33.2676C7.01823 33.375 6.76758 33.5182 6.55273 33.6973C6.3737 33.8763 6.14095 34.0374 5.85449 34.1807C5.46061 34.3239 5.13835 34.5208 4.8877 34.7715C4.63704 34.9863 4.35059 35.1833 4.02832 35.3623C3.59863 35.6488 3.22266 35.9173 2.90039 36.168C2.57812 36.3828 2.4707 36.7051 2.57812 37.1348C2.97201 37.099 3.29427 36.9557 3.54492 36.7051C3.79557 36.4544 4.06413 36.3112 4.35059 36.2754C4.67285 36.0247 4.83398 35.8815 4.83398 35.8457C4.86979 35.8099 4.86979 35.7562 4.83398 35.6846C5.26367 35.4339 5.67546 35.2191 6.06934 35.04C6.46322 34.8252 6.83919 34.5924 7.19727 34.3418C7.66276 34.127 7.96712 33.9658 8.11035 33.8584C8.25358 33.7152 8.37891 33.5898 8.48633 33.4824C8.62956 33.3392 8.79069 33.2139 8.96973 33.1064C9.14876 32.999 9.38151 32.9453 9.66797 32.9453C9.8112 32.5872 10.0977 32.3187 10.5273 32.1396ZM9.39941 36.7588C8.93392 36.6514 8.62956 36.5798 8.48633 36.5439C8.37891 36.5081 8.23568 36.5798 8.05664 36.7588C7.91341 36.9378 7.82389 37.0632 7.78809 37.1348C7.78809 37.2064 7.75228 37.278 7.68066 37.3496C7.50163 37.4212 7.30469 37.4749 7.08984 37.5107C6.91081 37.5107 6.74967 37.5465 6.60645 37.6182C6.74967 37.6898 6.92871 37.7793 7.14355 37.8867C7.32259 37.7435 7.50163 37.6719 7.68066 37.6719C7.8597 37.6361 8.00293 37.5824 8.11035 37.5107C8.14616 37.1885 8.3431 36.9736 8.70117 36.8662C8.88021 37.0094 9.04134 37.0811 9.18457 37.0811C9.3278 37.0452 9.39941 36.9378 9.39941 36.7588ZM10.3662 34.127C10.1514 33.8405 9.99023 33.751 9.88281 33.8584C9.8112 33.93 9.72168 33.8763 9.61426 33.6973C9.43522 33.9121 9.23828 34.0911 9.02344 34.2344C8.8444 34.3776 8.57585 34.4492 8.21777 34.4492C8.11035 34.6641 7.94922 34.8252 7.73438 34.9326C7.55534 35.0042 7.3584 35.0758 7.14355 35.1475C6.92871 35.2191 6.73177 35.3086 6.55273 35.416C6.3737 35.5234 6.26628 35.6846 6.23047 35.8994C5.83659 35.9352 5.60384 36.0247 5.53223 36.168C5.46061 36.3112 5.31738 36.3649 5.10254 36.3291C4.99512 36.5081 4.85189 36.6872 4.67285 36.8662C4.52962 37.0094 4.31478 37.0811 4.02832 37.0811C3.88509 37.4391 3.65234 37.7077 3.33008 37.8867C3.04362 38.0658 2.82878 38.3343 2.68555 38.6924C2.75716 39.0863 2.81087 39.4085 2.84668 39.6592C2.91829 39.874 2.98991 40.0531 3.06152 40.1963C3.38379 39.8382 3.49121 39.5697 3.38379 39.3906C3.31217 39.2116 3.38379 39.0146 3.59863 38.7998C3.4196 38.6208 3.4196 38.4775 3.59863 38.3701C3.77767 38.2627 3.95671 38.1732 4.13574 38.1016C4.31478 37.9941 4.47591 37.8867 4.61914 37.7793C4.79818 37.6361 4.9235 37.457 4.99512 37.2422C5.24577 37.2422 5.46061 37.1527 5.63965 36.9736C5.85449 36.7588 6.05143 36.7409 6.23047 36.9199C6.30208 36.526 6.48112 36.3828 6.76758 36.4902C6.83919 36.2038 7.01823 36.0247 7.30469 35.9531C7.59115 35.8457 7.8597 35.7025 8.11035 35.5234C8.57585 35.1296 8.98763 34.861 9.3457 34.7178C9.70378 34.5745 10.0439 34.3776 10.3662 34.127ZM10.3662 41.9688C10.2946 41.8971 10.1335 41.8613 9.88281 41.8613C9.63216 41.8613 9.54264 41.9508 9.61426 42.1299C9.8291 42.2373 10.0798 42.1836 10.3662 41.9688ZM11.333 43.3115C11.1898 43.2399 11.0824 43.1683 11.0107 43.0967C10.9749 42.9893 10.8854 42.9176 10.7422 42.8818C10.8138 42.9535 10.8854 43.0788 10.957 43.2578C11.0286 43.401 11.154 43.4189 11.333 43.3115ZM10.4736 39.2832C10.2588 38.8893 10.0798 38.7282 9.93652 38.7998C9.8291 38.8356 9.72168 38.8893 9.61426 38.9609C9.50684 39.0326 9.38151 39.1042 9.23828 39.1758C9.13086 39.2474 8.98763 39.2832 8.80859 39.2832C9.05924 38.9967 9.39941 38.6924 9.8291 38.3701C10.2588 38.0479 10.402 37.7256 10.2588 37.4033C10.0081 37.4749 9.79329 37.5286 9.61426 37.5645C9.43522 37.5645 9.22038 37.6003 8.96973 37.6719C8.57585 37.8509 8.21777 38.0479 7.89551 38.2627C7.57324 38.4775 7.30469 38.7103 7.08984 38.9609C6.94661 39.14 6.82129 39.2295 6.71387 39.2295C6.64225 39.1937 6.53483 39.1758 6.3916 39.1758C5.85449 39.4622 5.47852 39.7129 5.26367 39.9277C5.08464 40.1426 4.76237 40.2142 4.29688 40.1426C4.47591 40.3574 4.45801 40.5186 4.24316 40.626C4.06413 40.7334 3.88509 40.8408 3.70605 40.9482C3.56283 41.0557 3.4554 41.181 3.38379 41.3242C3.31217 41.4674 3.36589 41.6644 3.54492 41.915C3.72396 41.9508 3.83138 41.9329 3.86719 41.8613C3.9388 41.7539 4.04622 41.6823 4.18945 41.6465C4.15365 41.8971 4.09993 42.0762 4.02832 42.1836C3.99251 42.291 3.90299 42.3626 3.75977 42.3984C3.83138 42.6849 3.86719 42.8818 3.86719 42.9893C3.90299 43.0609 3.90299 43.2399 3.86719 43.5264C4.15365 43.6338 4.36849 43.8307 4.51172 44.1172C4.65495 44.3678 4.9235 44.4395 5.31738 44.332C5.35319 44.153 5.31738 44.0277 5.20996 43.9561C5.10254 43.8844 5.06673 43.7591 5.10254 43.5801C5.4248 43.222 5.53223 43.0251 5.4248 42.9893C5.35319 42.9535 5.31738 42.8818 5.31738 42.7744C5.56803 42.5596 5.83659 42.5059 6.12305 42.6133C6.44531 42.6849 6.69596 42.5954 6.875 42.3447C6.80339 42.2731 6.66016 42.2731 6.44531 42.3447C6.26628 42.3805 6.19466 42.291 6.23047 42.0762C6.33789 41.9688 6.49902 41.9329 6.71387 41.9688C6.92871 41.9688 7.14355 41.9867 7.3584 42.0225C7.57324 42.0225 7.75228 42.0046 7.89551 41.9688C8.07454 41.9329 8.14616 41.8076 8.11035 41.5928C8.3252 41.6286 8.43262 41.5928 8.43262 41.4854C8.46842 41.3779 8.54004 41.2884 8.64746 41.2168C9.00553 41.2168 9.27409 41.1989 9.45312 41.1631C9.66797 41.0915 9.86491 41.0199 10.0439 40.9482C10.1514 40.626 10.223 40.429 10.2588 40.3574C10.3304 40.25 10.3304 40.1605 10.2588 40.0889C10.4378 40.0531 10.5452 39.9456 10.5811 39.7666C10.6169 39.5518 10.5811 39.3906 10.4736 39.2832ZM10.0977 43.1504C10.026 42.9714 9.90072 42.9355 9.72168 43.043C9.57845 43.1146 9.43522 43.1325 9.29199 43.0967C9.18457 43.2041 9.09505 43.2936 9.02344 43.3652C8.95182 43.4368 8.8265 43.4548 8.64746 43.4189C8.64746 43.5264 8.59375 43.6159 8.48633 43.6875C8.41471 43.7233 8.3252 43.777 8.21777 43.8486C8.11035 43.8844 8.02083 43.9382 7.94922 44.0098C7.8776 44.0456 7.8597 44.1172 7.89551 44.2246C8.00293 44.1172 8.11035 44.1172 8.21777 44.2246C8.361 44.332 8.46842 44.332 8.54004 44.2246C8.64746 44.1172 8.71908 44.0277 8.75488 43.9561C8.79069 43.8486 8.89811 43.777 9.07715 43.7412C9.22038 43.8128 9.3278 43.8665 9.39941 43.9023C9.47103 43.9023 9.59635 43.8665 9.77539 43.7949C9.70378 43.4727 9.70378 43.2936 9.77539 43.2578C9.84701 43.1862 9.95443 43.1504 10.0977 43.1504ZM11.333 44.9229C11.154 44.9229 11.0824 44.8512 11.1182 44.708C11.1898 44.529 11.1361 44.4036 10.957 44.332C10.778 43.9023 10.6348 43.6338 10.5273 43.5264C10.4557 43.8844 10.5811 44.1888 10.9033 44.4395C10.4736 44.3678 10.2409 44.3141 10.2051 44.2783C10.1693 44.2425 10.1156 44.1888 10.0439 44.1172C9.65007 44.1172 9.41732 44.153 9.3457 44.2246C9.3099 44.2604 9.23828 44.2604 9.13086 44.2246C9.13086 44.4036 9.18457 44.4932 9.29199 44.4932C9.43522 44.4574 9.52474 44.5111 9.56055 44.6543C9.3099 44.6543 9.05924 44.7796 8.80859 45.0303C8.55794 45.2451 8.25358 45.3167 7.89551 45.2451C8.18197 45.3167 8.361 45.4062 8.43262 45.5137C8.54004 45.6211 8.66536 45.6927 8.80859 45.7285C8.95182 45.4779 9.11296 45.3525 9.29199 45.3525C9.39941 45.0661 9.59635 44.9229 9.88281 44.9229C10.2051 44.887 10.4915 44.8154 10.7422 44.708C10.2767 45.0661 9.91862 45.46 9.66797 45.8896C9.3457 45.9613 9.18457 46.0329 9.18457 46.1045C9.18457 46.1403 9.13086 46.1761 9.02344 46.2119C8.91602 46.3551 8.8444 46.4805 8.80859 46.5879C8.77279 46.6953 8.64746 46.7132 8.43262 46.6416C8.25358 47.0355 8.05664 47.2503 7.8418 47.2861C7.66276 47.2861 7.60905 47.4115 7.68066 47.6621C7.82389 47.6979 7.93132 47.68 8.00293 47.6084C8.11035 47.5368 8.18197 47.4652 8.21777 47.3936C8.28939 47.3219 8.361 47.2682 8.43262 47.2324C8.50423 47.1608 8.59375 47.1429 8.70117 47.1787C9.09505 46.9997 9.29199 46.8564 9.29199 46.749C9.3278 46.6416 9.39941 46.5521 9.50684 46.4805C9.75749 46.5521 9.97233 46.5342 10.1514 46.4268C10.3304 46.2835 10.4915 46.1761 10.6348 46.1045C10.6706 45.8896 10.8138 45.7285 11.0645 45.6211C11.3151 45.5137 11.4046 45.2809 11.333 44.9229ZM14.8242 52.6035C14.5378 52.3529 14.2692 52.0485 14.0186 51.6904C13.8037 51.3324 13.5173 51.1175 13.1592 51.0459C12.8369 51.2965 12.6221 51.4398 12.5146 51.4756C12.443 51.4756 12.3714 51.4398 12.2998 51.3682C12.2282 51.1533 12.1924 50.9027 12.1924 50.6162C12.2998 50.652 12.3893 50.6341 12.4609 50.5625C12.5684 50.4551 12.6758 50.3656 12.7832 50.2939C12.6758 50.1865 12.6758 50.0791 12.7832 49.9717C12.8906 49.8285 12.9622 49.721 12.998 49.6494C13.0339 49.4704 12.998 49.3451 12.8906 49.2734C12.7832 49.2018 12.6579 49.1481 12.5146 49.1123C12.4072 49.0407 12.2998 48.987 12.1924 48.9512C12.085 48.8796 12.0492 48.7721 12.085 48.6289C12.2282 48.5215 12.3356 48.4499 12.4072 48.4141C12.4788 48.3424 12.4788 48.1992 12.4072 47.9844C12.085 47.8411 11.8701 47.8949 11.7627 48.1455C11.6911 48.3962 11.5837 48.611 11.4404 48.79C11.4046 48.6826 11.3509 48.5931 11.2793 48.5215C11.2435 48.4499 11.2256 48.3424 11.2256 48.1992C11.4046 48.1276 11.5299 48.0381 11.6016 47.9307C11.709 47.7874 11.8522 47.7158 12.0312 47.7158C12.0671 47.5368 12.085 47.4115 12.085 47.3398C12.1208 47.2682 12.1387 47.125 12.1387 46.9102C12.0312 46.8027 11.888 46.7669 11.709 46.8027C11.5658 46.8385 11.512 46.7848 11.5479 46.6416C11.7985 46.4984 11.9596 46.3551 12.0312 46.2119C12.1029 46.0329 12.0492 45.9076 11.8701 45.8359C11.7985 46.0508 11.6911 46.1582 11.5479 46.1582C11.4404 46.1582 11.2972 46.1224 11.1182 46.0508C11.4404 46.2656 11.6374 46.373 11.709 46.373C11.8164 46.373 11.8701 46.4089 11.8701 46.4805C11.6553 46.4089 11.512 46.4447 11.4404 46.5879C11.4046 46.6953 11.2972 46.6953 11.1182 46.5879C11.2256 46.6953 11.2435 46.8385 11.1719 47.0176C11.1361 47.1608 11.0465 47.2682 10.9033 47.3398C10.6169 47.4115 10.3841 47.4831 10.2051 47.5547C10.0618 47.5905 9.88281 47.5905 9.66797 47.5547C9.52474 47.8411 9.39941 47.9665 9.29199 47.9307C9.22038 47.8949 9.16667 47.9307 9.13086 48.0381C9.09505 48.0739 9.02344 48.1813 8.91602 48.3604C8.80859 48.5036 8.71908 48.6289 8.64746 48.7363C8.8265 48.8438 8.95182 48.987 9.02344 49.166C9.13086 49.3092 9.29199 49.4167 9.50684 49.4883C9.68587 49.2734 9.97233 49.1481 10.3662 49.1123C10.7601 49.0407 11.0824 49.0586 11.333 49.166C11.333 49.3451 11.2256 49.4525 11.0107 49.4883C10.8317 49.5241 10.8138 49.5957 10.957 49.7031C10.5632 49.8822 10.3662 50.0612 10.3662 50.2402C11.0465 50.9206 11.7448 51.4398 12.4609 51.7979C13.1771 52.1559 13.9648 52.4245 14.8242 52.6035ZM7.62695 44.6006C7.41211 44.5648 7.17936 44.5827 6.92871 44.6543C6.67806 44.7259 6.49902 44.8691 6.3916 45.084C6.57064 45.0124 6.69596 45.0124 6.76758 45.084C6.83919 45.1198 6.91081 45.084 6.98242 44.9766C6.83919 44.8333 6.875 44.7617 7.08984 44.7617C7.34049 44.7259 7.51953 44.6722 7.62695 44.6006ZM8.05664 45.46C7.69857 45.6748 7.44792 45.7643 7.30469 45.7285C7.34049 45.8717 7.46582 45.9255 7.68066 45.8896C7.93132 45.818 8.05664 45.6748 8.05664 45.46ZM8.54004 46.373C8.361 46.3014 8.19987 46.2656 8.05664 46.2656C7.91341 46.2656 7.80599 46.3551 7.73438 46.5342C7.91341 46.5342 8.07454 46.5521 8.21777 46.5879C8.361 46.5879 8.46842 46.5163 8.54004 46.373ZM8.96973 23.0088C8.8265 23.1878 8.64746 23.3311 8.43262 23.4385C8.21777 23.5101 8.03874 23.5101 7.89551 23.4385C8.00293 23.2952 8.14616 23.2057 8.3252 23.1699C8.54004 23.1341 8.64746 22.9909 8.64746 22.7402L8.96973 23.0088ZM9.8291 40.5186C9.79329 40.6976 9.72168 40.7692 9.61426 40.7334C9.54264 40.6976 9.43522 40.7155 9.29199 40.7871C9.3278 40.6081 9.38151 40.5365 9.45312 40.5723C9.56055 40.6081 9.68587 40.5902 9.8291 40.5186ZM8.75488 39.3369C8.64746 39.516 8.45052 39.6413 8.16406 39.7129C7.91341 39.7487 7.69857 39.874 7.51953 40.0889C7.69857 39.9098 7.8776 39.7487 8.05664 39.6055C8.23568 39.4622 8.46842 39.3727 8.75488 39.3369ZM7.41211 40.25C7.30469 40.25 7.19727 40.2679 7.08984 40.3037C6.98242 40.3395 6.8929 40.3753 6.82129 40.4111C6.8929 40.0889 6.98242 39.9277 7.08984 39.9277C7.19727 39.9277 7.30469 39.9456 7.41211 39.9814V40.25ZM6.55273 40.0889C6.73177 40.1963 6.74967 40.3395 6.60645 40.5186C6.49902 40.6976 6.40951 40.8408 6.33789 40.9482C5.97982 40.9482 5.76497 41.0557 5.69336 41.2705C5.4069 41.1273 5.20996 41.1452 5.10254 41.3242C5.03092 41.5033 4.9056 41.6286 4.72656 41.7002C4.9056 41.4137 4.95931 41.2347 4.8877 41.1631C4.85189 41.0557 4.85189 40.9661 4.8877 40.8945C4.99512 40.7155 5.15625 40.6797 5.37109 40.7871C5.58594 40.8587 5.72917 40.805 5.80078 40.626C5.94401 40.8408 6.05143 40.8229 6.12305 40.5723C6.23047 40.2858 6.3737 40.1247 6.55273 40.0889ZM76.5381 50.2402C76.3232 50.5983 76.1442 50.9027 76.001 51.1533C75.8936 51.404 75.9473 51.7262 76.1621 52.1201C76.0547 52.6214 76.0189 53.0332 76.0547 53.3555C76.1263 53.6777 76.1979 54.0537 76.2695 54.4834C76.0905 54.555 75.8757 54.555 75.625 54.4834C75.4102 54.4476 75.1774 54.4118 74.9268 54.376C74.6761 54.3402 74.4434 54.3402 74.2285 54.376C74.0495 54.4476 73.9242 54.6087 73.8525 54.8594C73.6019 54.8952 73.4049 54.8594 73.2617 54.752C73.1543 54.6803 73.0469 54.5908 72.9395 54.4834C72.4023 54.4476 71.8652 54.5013 71.3281 54.6445C70.8268 54.7878 70.3255 54.7699 69.8242 54.5908C69.5378 54.6266 69.2334 54.6445 68.9111 54.6445C68.6247 54.6445 68.3919 54.7161 68.2129 54.8594C67.6758 54.6803 67.0133 54.5908 66.2256 54.5908C65.4378 54.5908 64.7038 54.5729 64.0234 54.5371H60.5859C60.1921 54.5371 59.7982 54.5013 59.4043 54.4297C59.0462 54.3939 58.6702 54.4118 58.2764 54.4834C57.9899 54.5192 57.7035 54.5192 57.417 54.4834C57.1305 54.4476 56.7904 54.4297 56.3965 54.4297C55.4297 54.3939 54.5166 54.4118 53.6572 54.4834C52.7979 54.555 51.849 54.555 50.8105 54.4834C50.2734 54.4476 49.7005 54.4476 49.0918 54.4834C48.5189 54.555 47.9997 54.5729 47.5342 54.5371C47.1045 54.4655 46.6569 54.4834 46.1914 54.5908C45.7259 54.6982 45.3141 54.6982 44.9561 54.5908C44.2399 54.6266 43.5059 54.6266 42.7539 54.5908C42.0378 54.555 41.2321 54.5729 40.3369 54.6445C39.8356 54.7161 39.2985 54.7699 38.7256 54.8057C38.1527 54.8415 37.5977 54.8236 37.0605 54.752C36.8457 54.7161 36.6846 54.5729 36.5771 54.3223C36.4697 54.1074 36.5234 53.9105 36.7383 53.7314C37.2396 53.5524 37.8662 53.4629 38.6182 53.4629C39.3701 53.4271 40.0505 53.3555 40.6592 53.248C40.9814 53.1764 41.3037 53.1227 41.626 53.0869C41.984 53.0153 42.2526 52.9079 42.4316 52.7646C42.6107 52.6572 42.7181 52.514 42.7539 52.335C42.7897 52.1201 42.8792 51.9411 43.0225 51.7979C43.2015 51.6546 43.3626 51.5651 43.5059 51.5293C43.6491 51.4935 43.8102 51.4219 43.9893 51.3145C44.2041 50.7773 44.2757 50.2044 44.2041 49.5957C44.1683 48.987 44.1862 48.432 44.2578 47.9307C44.2578 47.7874 44.2041 47.6979 44.0967 47.6621C44.0251 47.5905 43.9535 47.5189 43.8818 47.4473C43.846 47.2682 43.8639 47.1429 43.9355 47.0713C44.0072 46.9639 44.0788 46.8564 44.1504 46.749C44.1504 46.3193 44.043 46.0329 43.8281 45.8896C43.6491 45.7464 43.5596 45.5316 43.5596 45.2451C43.8102 44.9587 44.0072 44.6364 44.1504 44.2783C44.2936 43.9202 44.3115 43.5085 44.2041 43.043C44.1683 42.8639 44.0967 42.6849 43.9893 42.5059C43.8818 42.3268 43.8818 42.1478 43.9893 41.9688C44.2399 41.1452 44.3831 40.5544 44.4189 40.1963C44.4548 39.8024 44.4906 39.2474 44.5264 38.5312C44.1683 38.209 44.0072 37.9046 44.043 37.6182C44.0788 37.4033 44.1504 37.2601 44.2578 37.1885C44.3652 37.1169 44.3831 36.9736 44.3115 36.7588C44.2399 36.5081 44.1146 36.3649 43.9355 36.3291C43.7565 36.2933 43.667 36.0964 43.667 35.7383C43.7744 35.7025 43.8997 35.5951 44.043 35.416C44.1862 35.2012 44.1683 35.0042 43.9893 34.8252C43.8102 34.9684 43.5775 35.0221 43.291 34.9863C43.0404 34.9147 42.915 34.9684 42.915 35.1475C42.7002 35.0758 42.5749 34.9863 42.5391 34.8789C42.5391 34.7357 42.5749 34.6104 42.6465 34.5029C42.7181 34.3597 42.7897 34.2344 42.8613 34.127C42.9688 33.9837 43.0404 33.8584 43.0762 33.751C43.291 33.8226 43.4521 33.751 43.5596 33.5361C43.667 33.2855 43.8281 33.2139 44.043 33.3213C44.043 32.8558 44.0251 32.4082 43.9893 31.9785C43.9893 31.5488 44.0072 31.137 44.043 30.7432C44.0072 30.5999 43.9176 30.5462 43.7744 30.582C43.667 30.582 43.5775 30.5462 43.5059 30.4746C43.4342 30.403 43.3447 30.2061 43.2373 29.8838C43.3089 29.7406 43.3984 29.5973 43.5059 29.4541C43.6491 29.3109 43.7744 29.1676 43.8818 29.0244C43.9893 28.8454 44.0609 28.6842 44.0967 28.541C44.1325 28.362 44.0967 28.1829 43.9893 28.0039C44.0251 27.7174 44.043 27.5026 44.043 27.3594C44.0788 27.1803 43.9535 27.0729 43.667 27.0371C43.667 26.7507 43.7028 26.4821 43.7744 26.2314C43.8818 25.945 43.9714 25.6764 44.043 25.4258C44.1146 25.1751 44.1504 24.9245 44.1504 24.6738C44.1862 24.4232 44.1325 24.1725 43.9893 23.9219C44.0251 23.8145 44.0788 23.6891 44.1504 23.5459C44.222 23.4027 44.222 23.2773 44.1504 23.1699C43.7565 22.8835 43.5775 22.6865 43.6133 22.5791C43.6849 22.4359 43.6312 22.3285 43.4521 22.2568C43.5596 22.1136 43.667 21.9704 43.7744 21.8271C43.9176 21.6481 44.043 21.487 44.1504 21.3438C44.2578 21.1647 44.3115 20.9857 44.3115 20.8066C44.3473 20.6276 44.2936 20.4307 44.1504 20.2158C44.3294 19.9294 44.3831 19.6608 44.3115 19.4102C44.2399 19.1595 44.2936 18.9268 44.4727 18.7119C44.2936 18.6403 44.2041 18.4613 44.2041 18.1748C44.2041 17.8883 44.222 17.6556 44.2578 17.4766C44.222 17.3333 44.1504 17.2438 44.043 17.208C43.9355 17.1364 43.846 17.0648 43.7744 16.9932C43.8818 16.4561 43.8281 16.0085 43.6133 15.6504C43.4342 15.2923 43.1657 15.0238 42.8076 14.8447C42.4495 14.6299 42.0378 14.5225 41.5723 14.5225C41.1068 14.4867 40.6771 14.5762 40.2832 14.791C40.2116 14.6836 40.1042 14.6299 39.9609 14.6299C39.8535 14.6299 39.7461 14.6299 39.6387 14.6299C39.5312 14.5941 39.4417 14.5404 39.3701 14.4688C39.2985 14.3971 39.2627 14.2718 39.2627 14.0928C38.7972 14.2002 38.3138 14.2539 37.8125 14.2539C37.3112 14.2539 36.8099 14.236 36.3086 14.2002C36.3086 13.9854 36.3623 13.8242 36.4697 13.7168C36.5413 13.6094 36.5951 13.484 36.6309 13.3408C36.8815 13.2692 37.1501 13.2513 37.4365 13.2871C37.7588 13.3229 38.0632 13.3766 38.3496 13.4482C38.6361 13.484 38.9225 13.502 39.209 13.502C39.4954 13.4661 39.764 13.3587 40.0146 13.1797C40.9814 13.3229 41.9482 13.3945 42.915 13.3945C43.8818 13.3945 44.8307 13.3766 45.7617 13.3408C46.7285 13.2692 47.6774 13.2155 48.6084 13.1797C49.5394 13.1439 50.4883 13.1439 51.4551 13.1797C52.4219 13.2155 53.4782 13.2155 54.624 13.1797C55.8057 13.1081 56.8799 13.0365 57.8467 12.9648C58.3838 12.929 58.9746 12.9111 59.6191 12.9111C60.2637 12.9111 60.9261 12.8932 61.6064 12.8574C62.5016 12.8216 63.3252 12.8216 64.0771 12.8574C64.8649 12.8932 65.7422 12.8753 66.709 12.8037C66.9954 12.7679 67.2461 12.7321 67.4609 12.6963C67.7116 12.6605 67.9801 12.6605 68.2666 12.6963C68.6605 12.7321 69.1081 12.7858 69.6094 12.8574C70.1465 12.929 70.6299 12.929 71.0596 12.8574C71.167 12.8574 71.2744 12.8395 71.3818 12.8037C71.4893 12.7321 71.5967 12.6784 71.7041 12.6426C72.2054 12.5352 72.6888 12.5173 73.1543 12.5889C73.6556 12.6247 74.1032 12.7858 74.4971 13.0723C74.5687 13.2871 74.5687 13.5915 74.4971 13.9854C74.4613 14.3434 74.5508 14.612 74.7656 14.791C74.7298 14.9701 74.6761 15.1133 74.6045 15.2207C74.5329 15.2923 74.4613 15.3818 74.3896 15.4893C74.6403 15.8473 74.7656 16.0622 74.7656 16.1338C74.9805 16.3486 75.0163 16.4919 74.873 16.5635C74.7656 16.6351 74.6403 16.6709 74.4971 16.6709C74.6403 16.8499 74.5687 17.0827 74.2822 17.3691C74.3896 17.7272 74.4434 18.0853 74.4434 18.4434C74.4792 18.8014 74.4792 19.1774 74.4434 19.5713C74.4434 19.9294 74.4434 20.3053 74.4434 20.6992C74.4434 21.0931 74.4792 21.5049 74.5508 21.9346C74.3717 22.1494 74.318 22.3464 74.3896 22.5254C74.4971 22.6686 74.5687 22.9551 74.6045 23.3848C74.5329 24.0293 74.4971 24.6559 74.4971 25.2646C74.4971 25.8376 74.5866 26.3747 74.7656 26.876C74.4792 27.3415 74.3359 27.7354 74.3359 28.0576C74.3717 28.3441 74.3001 28.6305 74.1211 28.917C73.8704 28.917 73.7093 28.8454 73.6377 28.7021C73.5661 28.5589 73.5124 28.3799 73.4766 28.165C73.4408 27.9502 73.4229 27.7354 73.4229 27.5205C73.4229 27.3057 73.387 27.1266 73.3154 26.9834C73.5303 26.7327 73.6377 26.4642 73.6377 26.1777C73.6377 25.8913 73.5661 25.6048 73.4229 25.3184C73.3154 25.0319 73.1722 24.7454 72.9932 24.459C72.8141 24.1725 72.6709 23.904 72.5635 23.6533C72.3128 23.6175 72.1517 23.528 72.0801 23.3848C72.0085 23.2057 71.901 23.0267 71.7578 22.8477C71.8652 22.4538 71.7936 22.1673 71.543 21.9883C71.3281 21.7734 71.167 21.5228 71.0596 21.2363C70.8805 20.5202 70.6478 20.001 70.3613 19.6787C70.0749 19.3206 69.8958 18.9626 69.8242 18.6045C69.6094 18.6403 69.4661 18.6045 69.3945 18.4971C69.3587 18.3896 69.2692 18.3001 69.126 18.2285C69.0902 17.7988 69.0007 17.5482 68.8574 17.4766C68.7142 17.4049 68.6426 17.2796 68.6426 17.1006C68.2845 16.9932 67.998 16.7962 67.7832 16.5098C67.5684 16.1875 67.264 16.0443 66.8701 16.0801C66.5837 15.7936 66.3151 15.5072 66.0645 15.2207C65.8496 14.9342 65.5632 14.6657 65.2051 14.415C64.9902 14.236 64.7396 14.1286 64.4531 14.0928C64.2025 14.057 63.916 14.0033 63.5938 13.9316C63.5221 13.86 63.4326 13.8063 63.3252 13.7705C63.2536 13.6989 63.1641 13.6631 63.0566 13.6631C62.806 13.6273 62.5016 13.6094 62.1436 13.6094C61.8213 13.6094 61.499 13.6452 61.1768 13.7168C60.389 13.7168 59.7803 13.8242 59.3506 14.0391C58.0257 14.0391 56.7904 14.057 55.6445 14.0928C54.5345 14.1286 53.5856 14.3792 52.7979 14.8447C52.8695 15.3102 52.762 15.6325 52.4756 15.8115C52.5472 15.9906 52.6367 16.1159 52.7441 16.1875C52.8874 16.2591 53.0306 16.3307 53.1738 16.4023C53.2812 16.832 53.2992 17.0648 53.2275 17.1006C53.1559 17.1364 53.0843 17.1901 53.0127 17.2617C52.9053 17.6556 52.7979 17.8704 52.6904 17.9062C52.6188 17.9062 52.6009 18.0137 52.6367 18.2285C52.6725 18.4076 52.7441 18.5508 52.8516 18.6582C52.959 18.7656 53.0306 18.873 53.0664 18.9805C52.8516 19.5892 52.7979 20.0905 52.9053 20.4844C53.0127 20.8783 53.0306 21.3079 52.959 21.7734C53.138 21.7018 53.335 21.6839 53.5498 21.7197C53.7646 21.7555 53.8721 21.8988 53.8721 22.1494C53.5856 22.221 53.3708 22.3464 53.2275 22.5254C53.1201 22.7044 53.0127 22.9193 52.9053 23.1699C52.9769 23.2057 53.1022 23.2594 53.2812 23.3311C53.4603 23.4027 53.5677 23.5638 53.6035 23.8145C53.4603 23.8861 53.335 23.9756 53.2275 24.083C53.1559 24.1546 53.0664 24.2262 52.959 24.2979C53.0306 24.7992 53.0843 25.2646 53.1201 25.6943C53.1559 26.124 53.138 26.6074 53.0664 27.1445C53.3171 27.252 53.5677 27.3415 53.8184 27.4131C54.1048 27.4489 54.2122 27.6816 54.1406 28.1113C53.9616 28.2546 53.7826 28.4157 53.6035 28.5947C53.4245 28.738 53.2633 28.917 53.1201 29.1318C53.2633 29.3109 53.2992 29.5257 53.2275 29.7764C53.1559 29.9912 53.2633 30.1344 53.5498 30.2061C53.514 30.3851 53.4603 30.5462 53.3887 30.6895C53.3171 30.7969 53.2454 30.9222 53.1738 31.0654C53.1022 31.2087 53.0664 31.3519 53.0664 31.4951C53.0664 31.6383 53.138 31.7995 53.2812 31.9785C53.9258 31.9785 54.624 31.9785 55.376 31.9785C56.1279 31.9427 56.862 31.8711 57.5781 31.7637C58.2943 31.6562 58.9567 31.4951 59.5654 31.2803C60.1742 31.0654 60.6755 30.7611 61.0693 30.3672C61.3916 29.9017 61.6602 29.651 61.875 29.6152C62.0898 29.2214 62.2868 28.8096 62.4658 28.3799C62.6807 27.9144 62.8239 27.3773 62.8955 26.7686C62.9671 26.3389 62.9671 25.8555 62.8955 25.3184C62.8597 24.7454 62.8955 24.262 63.0029 23.8682C63.0745 23.5459 63.1104 23.2057 63.1104 22.8477C63.1104 22.4896 63.1104 22.1494 63.1104 21.8271C63.1462 21.5049 63.2178 21.2005 63.3252 20.9141C63.4326 20.5918 63.6117 20.3232 63.8623 20.1084C64.1488 20.5381 64.2741 21.0752 64.2383 21.7197C64.2025 22.3643 64.0951 22.9014 63.916 23.3311C63.9518 24.262 63.8981 25.1393 63.7549 25.9629C63.6475 26.7865 63.6654 27.61 63.8086 28.4336C63.5579 28.6126 63.4684 28.8275 63.54 29.0781C63.6117 29.293 63.5758 29.4899 63.4326 29.6689C63.7191 30.027 63.8265 30.224 63.7549 30.2598C63.6833 30.2956 63.6296 30.3493 63.5938 30.4209C63.916 30.3493 64.0592 30.403 64.0234 30.582C64.0234 30.7611 64.0592 30.8864 64.1309 30.958C64.0234 31.8532 63.9339 32.5514 63.8623 33.0527C63.8265 33.554 64.0055 33.9658 64.3994 34.2881C64.0055 35.04 63.916 35.8099 64.1309 36.5977C64.3457 37.3854 64.471 38.1195 64.5068 38.7998C64.5068 39.1221 64.4889 39.4085 64.4531 39.6592C64.4531 39.874 64.5247 40.1068 64.668 40.3574C64.5964 40.8587 64.5964 41.3779 64.668 41.915C64.7754 42.4521 64.847 43.0251 64.8828 43.6338C64.7038 43.7412 64.4889 43.7949 64.2383 43.7949C63.9876 43.7949 63.7549 43.7054 63.54 43.5264C63.8265 42.488 63.8086 41.5928 63.4863 40.8408C63.1999 40.0531 62.9134 39.2653 62.627 38.4775C62.3405 38.3701 62.1077 38.209 61.9287 37.9941C61.7855 37.7435 61.6423 37.4928 61.499 37.2422C61.3916 36.9557 61.2663 36.6872 61.123 36.4365C61.0156 36.1859 60.8724 35.9531 60.6934 35.7383C60.2995 35.7741 59.9593 35.6488 59.6729 35.3623C59.8519 34.9684 59.7624 34.6462 59.4043 34.3955C59.0462 34.109 58.6165 33.93 58.1152 33.8584C57.8646 33.5003 57.6139 33.3392 57.3633 33.375C57.1126 33.4108 56.862 33.3929 56.6113 33.3213L55.5908 33.0527C55.1969 33.0527 54.7493 33.0527 54.248 33.0527C53.7826 33.0527 53.3529 33.1243 52.959 33.2676C52.8516 33.6257 52.9053 33.8942 53.1201 34.0732C53.335 34.2523 53.4782 34.485 53.5498 34.7715C53.4782 34.9863 53.335 35.1475 53.1201 35.2549C52.9411 35.3623 52.8874 35.5592 52.959 35.8457C53.1022 35.8457 53.1738 35.8099 53.1738 35.7383C53.2096 35.6309 53.3171 35.5771 53.4961 35.5771C53.6393 35.7204 53.7467 35.8636 53.8184 36.0068C53.9258 36.1143 54.0332 36.2396 54.1406 36.3828C53.7109 36.7051 53.4424 36.9378 53.335 37.0811C53.2275 37.2243 53.1201 37.4033 53.0127 37.6182C53.0485 37.7972 53.1559 37.9046 53.335 37.9404C53.5498 37.9404 53.6393 38.0479 53.6035 38.2627C54.0332 38.2985 54.2122 38.388 54.1406 38.5312C54.069 38.6745 54.0511 38.8356 54.0869 39.0146C53.693 38.9788 53.4603 39.0863 53.3887 39.3369C53.3171 39.5876 53.1738 39.7845 52.959 39.9277C53.0306 40.1068 53.0485 40.3037 53.0127 40.5186C52.9769 40.6976 52.959 40.8408 52.959 40.9482C53.0664 41.0199 53.1559 41.0736 53.2275 41.1094C53.335 41.1452 53.4424 41.1989 53.5498 41.2705C53.5498 41.8076 53.3708 42.1299 53.0127 42.2373C52.9769 42.5954 52.9769 42.8997 53.0127 43.1504C53.0843 43.3652 53.0843 43.598 53.0127 43.8486C53.2633 44.3141 53.335 44.6364 53.2275 44.8154C53.1559 44.9587 53.0843 45.1556 53.0127 45.4062C53.0485 45.5495 53.1022 45.639 53.1738 45.6748C53.2812 45.7106 53.3708 45.7822 53.4424 45.8896C53.4066 46.0687 53.335 46.2298 53.2275 46.373C53.1201 46.4805 53.0127 46.6058 52.9053 46.749C52.7979 46.8923 52.7083 47.0355 52.6367 47.1787C52.5651 47.3219 52.5651 47.501 52.6367 47.7158C52.8158 48.0739 52.9232 48.2171 52.959 48.1455C53.0306 48.0739 53.1022 48.0739 53.1738 48.1455C53.1022 48.6468 52.9948 48.9691 52.8516 49.1123C52.7441 49.2555 52.6367 49.4167 52.5293 49.5957C52.4577 49.7389 52.4219 49.8822 52.4219 50.0254C52.4219 50.1686 52.5472 50.2939 52.7979 50.4014C52.762 50.8311 52.7262 51.1533 52.6904 51.3682C52.6546 51.5472 52.6009 51.8337 52.5293 52.2275C52.3503 52.2992 52.1354 52.3708 51.8848 52.4424C51.6699 52.4782 51.4909 52.4245 51.3477 52.2812C51.4193 52.3887 51.3656 52.4603 51.1865 52.4961C51.0433 52.5319 50.9359 52.6214 50.8643 52.7646C51.1865 52.9079 51.5446 52.9616 51.9385 52.9258C52.3682 52.8542 52.6725 52.89 52.8516 53.0332C53.4603 52.9616 54.0869 52.89 54.7314 52.8184C55.4118 52.7467 56.0563 52.693 56.665 52.6572C57.417 52.5856 58.1689 52.5677 58.9209 52.6035C59.6729 52.6035 60.3532 52.514 60.9619 52.335C61.3916 52.2633 61.8034 52.2096 62.1973 52.1738C62.627 52.138 62.985 52.0306 63.2715 51.8516C63.8802 51.7799 64.5964 51.6725 65.4199 51.5293C66.2435 51.3861 66.9417 51.1712 67.5146 50.8848C67.6937 50.8132 67.819 50.7415 67.8906 50.6699C67.998 50.5625 68.195 50.473 68.4814 50.4014C69.4124 50.1865 70.1107 49.7926 70.5762 49.2197C71.0775 48.611 71.5967 47.9844 72.1338 47.3398C72.3486 47.0534 72.5635 46.749 72.7783 46.4268C72.9932 46.1045 73.1901 45.7464 73.3691 45.3525C73.4049 44.9229 73.5482 44.5648 73.7988 44.2783C73.9421 43.9561 74.0316 43.7054 74.0674 43.5264C74.1032 43.3115 74.1748 43.1683 74.2822 43.0967C74.4255 41.9508 74.5687 40.8229 74.7119 39.7129C74.891 38.5671 74.9447 37.3675 74.873 36.1143C74.8014 35.8278 74.7835 35.613 74.8193 35.4697C74.8551 35.2907 74.891 35.1475 74.9268 35.04C74.9984 34.8968 75.0879 34.8073 75.1953 34.7715C75.3385 34.6999 75.5176 34.7178 75.7324 34.8252C75.9831 35.2191 76.0726 35.7383 76.001 36.3828C75.9294 37.0273 75.8219 37.5286 75.6787 37.8867C75.7861 37.9583 75.8757 38.0479 75.9473 38.1553C76.0547 38.2269 76.1084 38.3522 76.1084 38.5312C75.7861 38.6029 75.6071 38.8535 75.5713 39.2832C75.5355 39.6771 75.5534 40.0173 75.625 40.3037C75.6966 40.9482 75.6608 41.4674 75.5176 41.8613C75.3743 42.2552 75.3743 42.6491 75.5176 43.043C75.446 43.5443 75.3923 44.0635 75.3564 44.6006C75.3564 45.1377 75.4818 45.5853 75.7324 45.9434C75.5892 46.3372 75.5534 46.7311 75.625 47.125C75.6966 47.5189 75.7503 47.9128 75.7861 48.3066C75.8936 48.4141 76.001 48.5036 76.1084 48.5752C76.2516 48.611 76.359 48.7005 76.4307 48.8438C76.3949 49.0228 76.3232 49.1481 76.2158 49.2197C76.1084 49.2555 76.0189 49.3092 75.9473 49.3809C76.1263 49.7031 76.3232 49.9896 76.5381 50.2402ZM70.6836 13.9316C70.3971 14.0033 70.1286 14.1107 69.8779 14.2539C69.6631 14.3613 69.4124 14.4508 69.126 14.5225C69.5557 14.6299 69.7884 14.6657 69.8242 14.6299C69.8958 14.5941 69.9674 14.6299 70.0391 14.7373C70.0391 14.4508 70.1286 14.2897 70.3076 14.2539C70.4867 14.2181 70.612 14.1107 70.6836 13.9316ZM73.4766 17.7988C73.4408 17.6198 73.3154 17.5661 73.1006 17.6377C72.8857 17.6735 72.7246 17.7093 72.6172 17.7451C72.6888 17.8167 72.832 17.8883 73.0469 17.96C73.2617 18.0316 73.4049 17.9779 73.4766 17.7988ZM72.2412 17.2617C72.0264 17.3333 71.8652 17.387 71.7578 17.4229C71.6504 17.4229 71.5967 17.4766 71.5967 17.584C71.7041 17.6556 71.8294 17.6735 71.9727 17.6377C72.1517 17.5661 72.2412 17.4408 72.2412 17.2617ZM69.0186 15.0596C68.8395 14.9521 68.6426 14.9342 68.4277 15.0059C68.2487 15.0775 68.1592 15.2386 68.1592 15.4893C68.4098 15.5251 68.571 15.4893 68.6426 15.3818C68.75 15.2386 68.8753 15.1312 69.0186 15.0596ZM71.543 17.8525C71.4355 17.8167 71.2923 17.8167 71.1133 17.8525C70.9701 17.8883 70.8626 17.9958 70.791 18.1748C71.1133 18.1032 71.3102 18.0674 71.3818 18.0674C71.4893 18.0316 71.543 17.96 71.543 17.8525ZM73.3691 18.7119C72.4382 18.891 71.8115 19.2848 71.4893 19.8936C71.7757 20.0368 71.9727 20.0189 72.0801 19.8398C72.2233 19.625 72.4382 19.5713 72.7246 19.6787C72.653 19.4997 72.6888 19.3743 72.832 19.3027C73.0111 19.2311 73.1722 19.1774 73.3154 19.1416L73.3691 18.7119ZM73.3691 20.4844C73.4766 20.3053 73.5124 20.1442 73.4766 20.001C73.4766 19.8219 73.3691 19.7145 73.1543 19.6787C73.0827 19.8219 72.9753 19.9294 72.832 20.001C72.7246 20.0368 72.5814 20.0726 72.4023 20.1084C72.4023 20.3949 72.4202 20.5918 72.4561 20.6992C72.5277 20.7708 72.6351 20.8066 72.7783 20.8066C72.7783 20.6276 72.8499 20.5381 72.9932 20.5381C73.1364 20.5381 73.2617 20.5202 73.3691 20.4844ZM73.584 22.5791C73.6556 22.3643 73.6377 22.221 73.5303 22.1494C73.4587 22.042 73.387 21.9525 73.3154 21.8809C73.2438 22.0241 73.1901 22.1315 73.1543 22.2031C73.1543 22.2747 73.1006 22.4001 72.9932 22.5791C73.0648 22.6507 73.1543 22.6865 73.2617 22.6865C73.4049 22.6865 73.5124 22.6507 73.584 22.5791ZM48.7158 14.2539C48.6442 14.0391 48.4831 13.9316 48.2324 13.9316C48.0176 13.8958 47.8564 13.9495 47.749 14.0928C48.0355 14.415 48.2145 14.5225 48.2861 14.415C48.3936 14.3076 48.5368 14.2539 48.7158 14.2539ZM62.8955 30.3135C62.8239 30.2419 62.806 30.1344 62.8418 29.9912C62.8776 29.8122 62.8418 29.7227 62.7344 29.7227C62.6986 30.0449 62.609 30.2777 62.4658 30.4209C62.3584 30.5641 62.2689 30.6715 62.1973 30.7432C62.4837 30.6715 62.627 30.582 62.627 30.4746C62.6628 30.3672 62.7523 30.3135 62.8955 30.3135ZM46.9434 14.5762C46.6927 14.6836 46.4421 14.7731 46.1914 14.8447C45.9408 14.9163 45.708 14.988 45.4932 15.0596C45.2783 15.1312 45.0814 15.2386 44.9023 15.3818C44.7591 15.5251 44.7233 15.7399 44.7949 16.0264C45.0456 15.8831 45.3857 15.8294 45.8154 15.8652C45.9229 15.2565 46.263 14.9342 46.8359 14.8984L46.9434 14.5762ZM51.7236 17.1006C51.5446 17.1006 51.3656 17.1364 51.1865 17.208C51.0433 17.2796 50.8822 17.2796 50.7031 17.208C50.6315 17.387 50.5241 17.5303 50.3809 17.6377C50.2376 17.7093 50.0765 17.7809 49.8975 17.8525C49.7184 17.8883 49.5394 17.9421 49.3604 18.0137C49.1813 18.0853 49.056 18.1927 48.9844 18.3359C48.8053 18.3001 48.6084 18.318 48.3936 18.3896C48.1787 18.4613 48.0355 18.5866 47.9639 18.7656C47.6416 19.0163 47.373 19.1774 47.1582 19.249C46.9434 19.3206 46.7285 19.3923 46.5137 19.4639C46.4421 19.7145 46.2988 19.9115 46.084 20.0547C45.9049 20.1621 45.7259 20.2695 45.5469 20.377C45.6901 20.4844 45.7617 20.5918 45.7617 20.6992C45.7617 20.8066 45.8154 20.8604 45.9229 20.8604C45.887 20.6455 45.9766 20.4844 46.1914 20.377C46.4062 20.2695 46.6032 20.1621 46.7822 20.0547C47.2119 20.0189 47.5163 19.9115 47.6953 19.7324C47.9102 19.5534 48.1608 19.4818 48.4473 19.5176C48.5189 19.3027 48.6263 19.1416 48.7695 19.0342C48.9128 18.891 49.0739 18.8551 49.2529 18.9268C49.5394 18.4613 49.9333 18.139 50.4346 17.96C50.9359 17.7451 51.3656 17.4587 51.7236 17.1006ZM47.5879 17.7988C47.4805 17.7988 47.373 17.8346 47.2656 17.9062C47.194 17.9421 47.1224 17.9958 47.0508 18.0674C47.2298 18.0674 47.3372 18.0495 47.373 18.0137C47.4447 17.9421 47.5163 17.8704 47.5879 17.7988ZM63.0029 33.4824C62.9671 33.3034 62.9671 33.1423 63.0029 32.999C63.0745 32.8558 63.0745 32.7484 63.0029 32.6768C62.7523 32.8558 62.609 32.999 62.5732 33.1064C62.5374 33.1781 62.4479 33.2318 62.3047 33.2676C62.1257 33.3034 62.0361 33.375 62.0361 33.4824C62.0719 33.554 62.0361 33.6794 61.9287 33.8584C62.1794 33.8584 62.3763 33.8226 62.5195 33.751C62.6986 33.6436 62.8597 33.554 63.0029 33.4824ZM61.3379 32.5693C61.0514 32.7126 60.8545 32.8558 60.7471 32.999C60.8903 32.9274 61.0156 32.8916 61.123 32.8916C61.2663 32.8558 61.3379 32.7484 61.3379 32.5693ZM51.7773 19.4639C51.5267 19.2848 51.276 19.2669 51.0254 19.4102C50.7747 19.5534 50.4883 19.5892 50.166 19.5176C49.987 19.804 49.7721 19.9652 49.5215 20.001C49.3066 20.0368 49.1097 20.1621 48.9307 20.377C48.68 20.4844 48.4473 20.5918 48.2324 20.6992C48.0176 20.7708 47.8027 20.8245 47.5879 20.8604C47.5879 21.0394 47.4984 21.1468 47.3193 21.1826C47.1403 21.2184 46.9971 21.3079 46.8896 21.4512C46.5674 21.5586 46.3525 21.666 46.2451 21.7734C46.1735 21.8451 46.1198 21.9525 46.084 22.0957C45.9049 22.1315 45.708 22.1315 45.4932 22.0957C45.3141 22.0599 45.2246 22.1136 45.2246 22.2568C45.153 22.5791 45.1172 22.8118 45.1172 22.9551C45.4395 22.6686 45.8154 22.4538 46.2451 22.3105C46.6748 22.1315 47.0329 21.8988 47.3193 21.6123C47.4984 21.6839 47.6595 21.6839 47.8027 21.6123C47.946 21.5407 48.0713 21.4691 48.1787 21.3975C48.3219 21.29 48.4652 21.2184 48.6084 21.1826C48.7516 21.111 48.9307 21.111 49.1455 21.1826C49.1097 20.8604 49.2171 20.6813 49.4678 20.6455C49.7542 20.6097 49.987 20.5023 50.166 20.3232C50.3809 20.2874 50.5241 20.2337 50.5957 20.1621C50.7031 20.0547 50.8105 20.0368 50.918 20.1084C51.0254 19.8219 51.1686 19.6608 51.3477 19.625C51.5267 19.5892 51.6699 19.5355 51.7773 19.4639ZM63.2178 34.2881C63.0387 34.0374 62.8418 33.9837 62.627 34.127C62.4479 34.2702 62.3584 34.4313 62.3584 34.6104C61.8213 34.861 61.5527 35.1654 61.5527 35.5234C61.5885 35.8815 61.7318 36.1143 61.9824 36.2217C62.1615 35.8278 62.3584 35.5055 62.5732 35.2549C62.7881 35.0042 63.0029 34.682 63.2178 34.2881ZM61.0693 33.751C60.9977 33.4645 60.8545 33.3034 60.6396 33.2676C60.4248 33.196 60.2816 33.0169 60.21 32.7305C60.0309 32.9095 59.9056 33.0348 59.834 33.1064C59.7624 33.1423 59.6908 33.2139 59.6191 33.3213C59.6908 33.4287 59.7803 33.5003 59.8877 33.5361C60.0309 33.5719 60.1025 33.6794 60.1025 33.8584C60.3174 33.93 60.4606 33.93 60.5322 33.8584C60.6396 33.7868 60.8187 33.751 61.0693 33.751ZM59.6191 32.6768C59.5117 32.6051 59.4043 32.6051 59.2969 32.6768C59.1895 32.7484 59.0462 32.7663 58.8672 32.7305C59.1536 32.9453 59.3148 33.0706 59.3506 33.1064C59.4222 33.1064 59.4759 33.0885 59.5117 33.0527L59.6191 32.6768ZM52.0459 24.835C51.5446 24.9424 51.1686 25.1572 50.918 25.4795C51.2044 25.3721 51.4551 25.3184 51.6699 25.3184C51.9206 25.2826 52.0459 25.1214 52.0459 24.835ZM74.5508 46.3193C74.5508 45.9971 74.5687 45.6569 74.6045 45.2988C74.6403 44.9408 74.6045 44.7259 74.4971 44.6543C74.4255 44.7617 74.318 44.8512 74.1748 44.9229C74.0316 44.9587 73.9779 45.084 74.0137 45.2988C74.1569 45.5853 74.1032 45.8538 73.8525 46.1045C73.6019 46.3193 73.5124 46.5521 73.584 46.8027C73.3691 47.0892 73.1722 47.4115 72.9932 47.7695C72.8141 48.0918 72.5098 48.3424 72.0801 48.5215C72.0801 48.7721 72.0085 48.9512 71.8652 49.0586C71.722 49.1302 71.6146 49.2376 71.543 49.3809C71.8294 49.4525 72.0443 49.363 72.1875 49.1123C72.3307 48.8258 72.4919 48.5931 72.6709 48.4141C73.1006 48.1276 73.4408 47.8053 73.6914 47.4473C73.9779 47.0892 74.2643 46.7132 74.5508 46.3193ZM74.7656 47.6621C74.6224 47.9128 74.3717 48.1276 74.0137 48.3066C73.6914 48.4499 73.6198 48.7005 73.7988 49.0586C73.9421 49.0228 74.1032 48.9691 74.2822 48.8975C74.4613 48.79 74.6045 48.6826 74.7119 48.5752C74.8551 48.432 74.9268 48.2887 74.9268 48.1455C74.9626 48.0023 74.9089 47.8411 74.7656 47.6621ZM63.54 38.585C63.6117 38.1195 63.5758 37.654 63.4326 37.1885C63.2894 36.6872 63.1999 36.2038 63.1641 35.7383C62.9134 35.8815 62.6807 35.9352 62.4658 35.8994C62.609 36.0785 62.6807 36.2575 62.6807 36.4365C62.7165 36.6156 62.6449 36.7767 62.4658 36.9199C62.6807 37.1706 62.8239 37.4749 62.8955 37.833C63.0029 38.1911 63.2178 38.4417 63.54 38.585ZM52.1533 23.1162C51.9027 23.2952 51.6878 23.349 51.5088 23.2773C51.3298 23.1699 51.2223 23.2236 51.1865 23.4385C50.8643 23.5817 50.6673 23.6891 50.5957 23.7607C50.5241 23.7965 50.4346 23.8145 50.3271 23.8145C50.2555 23.3848 50.3988 23.0625 50.7568 22.8477C51.1507 22.597 51.5088 22.4538 51.8311 22.418C52.1533 22.0599 52.2607 21.7018 52.1533 21.3438C52.0459 20.9857 52.0459 20.556 52.1533 20.0547C51.7236 20.1263 51.5088 20.1979 51.5088 20.2695C51.5088 20.3411 51.4551 20.377 51.3477 20.377C51.4193 20.6634 51.4014 20.932 51.2939 21.1826C51.1865 21.4333 50.9717 21.5586 50.6494 21.5586C50.0407 22.0241 49.4678 22.5075 48.9307 23.0088C48.3936 23.5101 47.7669 23.9398 47.0508 24.2979C46.8717 24.5485 46.6927 24.7454 46.5137 24.8887C46.3346 25.0319 46.1556 25.0498 45.9766 24.9424C46.0482 25.0856 46.0661 25.1751 46.0303 25.2109C45.9945 25.2467 45.9587 25.3542 45.9229 25.5332C45.708 25.6048 45.529 25.6764 45.3857 25.748C45.2783 25.8197 45.2067 25.945 45.1709 26.124C45.3857 26.3747 45.4215 26.5358 45.2783 26.6074C45.1709 26.6432 45.0277 26.7507 44.8486 26.9297C45.2067 27.431 45.4753 27.61 45.6543 27.4668C45.8333 27.2878 45.9945 27.2699 46.1377 27.4131C46.1377 27.234 46.0661 27.1624 45.9229 27.1982C45.7796 27.234 45.6722 27.2161 45.6006 27.1445C45.6722 27.0729 45.7438 26.9834 45.8154 26.876C45.9229 26.7686 46.084 26.7327 46.2988 26.7686C46.7643 26.8044 47.0508 26.8223 47.1582 26.8223C47.2656 26.7865 47.3551 26.7148 47.4268 26.6074C47.3193 26.5716 47.194 26.5716 47.0508 26.6074C46.9434 26.6432 46.8538 26.6253 46.7822 26.5537C46.9255 26.2314 47.3014 26.1061 47.9102 26.1777C47.9818 25.7839 48.1608 25.5332 48.4473 25.4258C48.7337 25.2826 48.9307 25.2109 49.0381 25.2109C49.3245 24.9961 49.4857 24.8708 49.5215 24.835C49.5573 24.7992 49.5394 24.7454 49.4678 24.6738C49.6468 24.7096 49.7184 24.6559 49.6826 24.5127C49.6826 24.3337 49.7721 24.262 49.9512 24.2979C50.3451 24.2262 50.5778 24.2083 50.6494 24.2441C50.7568 24.2799 50.8464 24.3158 50.918 24.3516C51.097 24.1367 51.3298 23.9756 51.6162 23.8682C51.9027 23.7249 52.0817 23.4743 52.1533 23.1162ZM47.4805 23.0088C47.3014 22.973 47.194 23.0267 47.1582 23.1699C47.1224 23.2773 47.1403 23.4027 47.2119 23.5459C47.391 23.4385 47.4805 23.2594 47.4805 23.0088ZM51.5088 27.5742C51.3298 27.5384 51.2223 27.5921 51.1865 27.7354C51.1865 27.8428 51.1686 27.9681 51.1328 28.1113C51.3835 28.0039 51.5088 27.8249 51.5088 27.5742ZM75.3564 53.1943L74.9805 52.6572C74.9447 52.8363 74.9089 52.9795 74.873 53.0869C74.8372 53.1943 74.873 53.2839 74.9805 53.3555L75.3564 53.1943ZM72.7783 50.2939C72.5635 50.2939 72.4202 50.4372 72.3486 50.7236C72.5277 50.7236 72.6172 50.6699 72.6172 50.5625C72.653 50.4551 72.7067 50.3656 72.7783 50.2939ZM75.0879 51.3145C74.7656 51.2786 74.515 51.3324 74.3359 51.4756C74.1569 51.583 74.0137 51.7262 73.9062 51.9053C73.9779 52.0127 74.1032 52.0485 74.2822 52.0127C74.4971 51.9769 74.6045 52.0485 74.6045 52.2275C74.3896 52.4066 74.139 52.514 73.8525 52.5498C73.5661 52.5856 73.387 52.7467 73.3154 53.0332C73.7809 53.069 74.1211 52.9795 74.3359 52.7646C74.5866 52.5498 74.8014 52.3171 74.9805 52.0664C74.9089 51.959 74.891 51.8516 74.9268 51.7441C74.9626 51.6009 75.0163 51.4577 75.0879 51.3145ZM46.9434 23.5459C46.5853 23.6891 46.2272 23.8324 45.8691 23.9756C45.5111 24.1188 45.2246 24.3337 45.0098 24.6201C45.0098 24.7275 44.9919 24.8529 44.9561 24.9961C44.9561 25.1393 45.0098 25.2288 45.1172 25.2646C45.0814 25.1572 45.0993 25.1035 45.1709 25.1035C45.2783 25.0677 45.3857 25.0677 45.4932 25.1035C45.6006 25.1035 45.6901 25.1035 45.7617 25.1035C45.8333 25.0677 45.8691 24.9961 45.8691 24.8887C46.0124 24.7096 46.1556 24.459 46.2988 24.1367C46.4421 23.8145 46.6569 23.6175 46.9434 23.5459ZM74.4971 50.7236C74.139 50.7594 73.8167 50.8848 73.5303 51.0996C73.2796 51.2786 72.9753 51.3861 72.6172 51.4219C72.474 51.5651 72.3844 51.7083 72.3486 51.8516C72.3128 51.9948 72.1696 52.0306 71.9189 51.959C71.9189 52.2096 71.8115 52.3529 71.5967 52.3887C71.4176 52.4245 71.2565 52.4961 71.1133 52.6035C70.9701 52.7467 70.8089 52.8721 70.6299 52.9795C70.4508 53.0869 70.2897 53.2301 70.1465 53.4092C70.2181 53.4808 70.2897 53.4808 70.3613 53.4092C70.4688 53.3018 70.5941 53.3018 70.7373 53.4092C70.7373 53.2301 70.8447 53.1227 71.0596 53.0869C71.3102 53.0511 71.4893 52.9616 71.5967 52.8184C71.7757 52.6035 72.0264 52.3887 72.3486 52.1738C72.6709 51.9232 73.029 51.7979 73.4229 51.7979C73.8167 51.4756 74.1748 51.1175 74.4971 50.7236ZM51.8311 28.5947C51.4372 28.5947 51.1328 28.6663 50.918 28.8096C50.7031 28.9528 50.4525 29.0602 50.166 29.1318C49.8438 29.3109 49.611 29.4541 49.4678 29.5615C49.3245 29.6689 49.1992 29.7764 49.0918 29.8838C48.9844 29.9912 48.859 30.0986 48.7158 30.2061C48.6084 30.2777 48.4652 30.2956 48.2861 30.2598C48.0713 30.4746 47.9639 30.6357 47.9639 30.7432C47.9639 30.8506 47.9997 30.9401 48.0713 31.0117C48.2861 31.0117 48.4294 30.9401 48.501 30.7969C48.6084 30.6536 48.7337 30.5283 48.877 30.4209C49.0918 30.3135 49.3066 30.224 49.5215 30.1523C49.7721 30.0449 49.987 29.9017 50.166 29.7227C50.3809 29.7227 50.5599 29.6868 50.7031 29.6152C50.8464 29.5436 50.9717 29.5615 51.0791 29.6689C51.4372 29.2751 51.6878 28.917 51.8311 28.5947ZM51.7236 26.1777C50.3271 26.7865 49.1097 27.4131 48.0713 28.0576C47.0329 28.7021 46.0303 29.3825 45.0635 30.0986C45.0993 30.2777 45.0814 30.403 45.0098 30.4746C44.974 30.5462 44.9561 30.6357 44.9561 30.7432C44.9919 30.9222 45.2067 31.0117 45.6006 31.0117C45.529 30.6178 45.6722 30.3672 46.0303 30.2598C46.4242 30.1165 46.7106 29.9017 46.8896 29.6152C47.1761 29.6868 47.3551 29.6331 47.4268 29.4541C47.4984 29.2751 47.6595 29.1676 47.9102 29.1318C47.9818 29.0244 48.0534 28.8991 48.125 28.7559C48.2324 28.5768 48.4115 28.5052 48.6621 28.541C48.9486 28.3262 49.1813 28.0755 49.3604 27.7891C49.5752 27.5026 49.9333 27.3415 50.4346 27.3057C50.5062 26.9834 50.7031 26.7865 51.0254 26.7148C51.3835 26.6432 51.6162 26.4642 51.7236 26.1777ZM70.4688 50.4014C70.2897 50.652 70.0391 50.8132 69.7168 50.8848C69.4303 50.9564 69.2155 51.1175 69.0723 51.3682C69.4303 51.5114 69.7705 51.4398 70.0928 51.1533C70.415 50.8669 70.5404 50.6162 70.4688 50.4014ZM68.9648 51.3145C68.4993 51.4577 68.1592 51.6367 67.9443 51.8516C68.195 51.9232 68.3561 51.9053 68.4277 51.7979C68.4993 51.6904 68.6605 51.6725 68.9111 51.7441L68.9648 51.3145ZM52.0459 30.7432C52.0459 30.5283 51.9743 30.4567 51.8311 30.5283C51.6878 30.5641 51.5446 30.5462 51.4014 30.4746C51.3298 30.5462 51.2581 30.6178 51.1865 30.6895C51.1507 30.7611 51.0433 30.7969 50.8643 30.7969C50.6494 30.9759 50.3988 31.0654 50.1123 31.0654C49.8617 31.0296 49.6826 31.0117 49.5752 31.0117C49.2171 31.513 48.8232 31.889 48.3936 32.1396C47.9639 32.3545 47.5521 32.5693 47.1582 32.7842C46.9434 32.9632 46.7285 33.1064 46.5137 33.2139C46.3346 33.3213 46.1377 33.4287 45.9229 33.5361C45.708 33.6436 45.5111 33.7689 45.332 33.9121C45.153 34.0553 45.0456 34.2881 45.0098 34.6104C45.2962 34.5029 45.5111 34.4313 45.6543 34.3955C45.8333 34.3597 46.0124 34.3418 46.1914 34.3418C46.2988 34.0553 46.3525 33.8942 46.3525 33.8584C46.3883 33.8226 46.4421 33.7868 46.5137 33.751C46.9076 33.6794 47.1224 33.6257 47.1582 33.5898C47.2298 33.5182 47.3014 33.4466 47.373 33.375C47.5879 33.3034 47.7132 33.2318 47.749 33.1602C47.8206 33.0885 47.9102 33.0706 48.0176 33.1064C48.2682 33.1064 48.4294 33.0885 48.501 33.0527C48.6084 32.9811 48.7158 32.9095 48.8232 32.8379C49.2171 32.4082 49.5931 32.1217 49.9512 31.9785C50.3451 31.7995 50.721 31.71 51.0791 31.71C51.1507 31.4235 51.2581 31.2087 51.4014 31.0654C51.5804 30.9222 51.7952 30.8148 52.0459 30.7432ZM47.5342 31.0654C47.1045 31.1729 46.7285 31.3519 46.4062 31.6025C46.1198 31.8174 45.8333 32.0501 45.5469 32.3008C45.9049 32.2292 46.1914 32.0859 46.4062 31.8711C46.6211 31.6204 46.9434 31.4951 47.373 31.4951L47.5342 31.0654ZM53.6035 38.3164C53.2812 38.388 53.1022 38.4596 53.0664 38.5312C53.0306 38.6029 53.0127 38.6745 53.0127 38.7461C53.4066 38.6745 53.6035 38.5312 53.6035 38.3164ZM51.3477 33.2139C50.918 33.2139 50.4883 33.3034 50.0586 33.4824C49.6289 33.6615 49.3066 33.6794 49.0918 33.5361C49.1276 33.8226 49.0023 34.0374 48.7158 34.1807C48.4294 34.2881 48.1966 34.2881 48.0176 34.1807C47.8743 34.4671 47.749 34.6462 47.6416 34.7178C47.57 34.7536 47.4984 34.8073 47.4268 34.8789C47.3551 34.9147 47.2835 34.9505 47.2119 34.9863C47.1403 34.9863 47.0508 34.9326 46.9434 34.8252C46.7643 35.0758 46.6032 35.2191 46.46 35.2549C46.3525 35.5413 46.1556 35.7204 45.8691 35.792C45.5827 35.8636 45.4036 36.0964 45.332 36.4902C45.4753 36.5977 45.5827 36.6335 45.6543 36.5977C45.7617 36.526 45.8691 36.4544 45.9766 36.3828C46.084 36.3112 46.1735 36.2575 46.2451 36.2217C46.3525 36.1501 46.4779 36.1501 46.6211 36.2217C46.5853 36.0426 46.6211 35.9531 46.7285 35.9531C46.8717 35.9531 47.0329 35.9531 47.2119 35.9531C47.4268 35.7025 47.6237 35.5592 47.8027 35.5234C47.9818 35.3802 48.125 35.2728 48.2324 35.2012C48.3398 35.1296 48.4294 35.0579 48.501 34.9863C48.5726 34.9147 48.6442 34.8431 48.7158 34.7715C48.8232 34.6641 48.9665 34.6104 49.1455 34.6104C49.3245 34.3597 49.5573 34.1986 49.8438 34.127C50.1302 34.0195 50.363 33.8763 50.542 33.6973C50.7568 33.4466 50.918 33.3034 51.0254 33.2676C51.1328 33.196 51.2402 33.1781 51.3477 33.2139ZM69.7168 52.6035C69.5378 52.4961 69.3229 52.4424 69.0723 52.4424C68.8574 52.4066 68.75 52.2454 68.75 51.959C68.6784 52.0306 68.6247 52.1201 68.5889 52.2275C68.5531 52.335 68.4993 52.4424 68.4277 52.5498C68.3561 52.6214 68.2666 52.6751 68.1592 52.7109C68.0876 52.7109 67.998 52.6393 67.8906 52.4961C67.6758 52.6035 67.4967 52.7288 67.3535 52.8721C67.2461 52.9795 67.1208 53.1048 66.9775 53.248C66.8701 53.1764 66.7448 53.1227 66.6016 53.0869C66.4941 53.0511 66.4046 52.9437 66.333 52.7646C65.9033 52.5856 65.4557 52.5319 64.9902 52.6035C64.5605 52.6393 64.113 52.693 63.6475 52.7646C63.2178 52.8005 62.7881 52.8721 62.3584 52.9795C61.9287 53.0869 61.5169 53.266 61.123 53.5166C61.9108 53.5166 62.6986 53.5345 63.4863 53.5703C64.3099 53.5703 65.1335 53.5703 65.957 53.5703C66.2435 53.5703 66.5299 53.5345 66.8164 53.4629C67.1029 53.3913 67.3356 53.3734 67.5146 53.4092C67.6937 53.4092 67.819 53.4271 67.8906 53.4629C67.9622 53.4987 68.0518 53.5166 68.1592 53.5166C68.4814 53.445 68.75 53.3018 68.9648 53.0869C69.2155 52.8363 69.4661 52.6751 69.7168 52.6035ZM52.0459 36.5977C51.7594 36.4186 51.5267 36.4186 51.3477 36.5977C51.2044 36.7767 50.9896 36.902 50.7031 36.9736C50.4525 37.2243 50.2734 37.4033 50.166 37.5107C50.0944 37.6182 50.0049 37.6361 49.8975 37.5645C49.7542 37.7435 49.5573 37.9046 49.3066 38.0479C49.056 38.1911 48.7874 38.2448 48.501 38.209C48.3936 38.5671 48.2145 38.7819 47.9639 38.8535C47.749 38.8893 47.5342 38.9967 47.3193 39.1758C47.1761 39.4622 46.9971 39.6413 46.7822 39.7129C46.6032 39.7487 46.4242 39.7666 46.2451 39.7666C46.0661 39.7308 45.9229 39.6592 45.8154 39.5518C45.708 39.4085 45.6722 39.2295 45.708 39.0146C45.9945 38.764 46.1377 38.6029 46.1377 38.5312C46.1377 38.4238 46.2093 38.3343 46.3525 38.2627C46.639 38.1553 46.8717 38.012 47.0508 37.833C47.2656 37.654 47.5342 37.6003 47.8564 37.6719C48.1787 37.3496 48.6263 37.1348 49.1992 37.0273C49.3424 36.7051 49.4678 36.5081 49.5752 36.4365C49.6826 36.3649 49.8617 36.347 50.1123 36.3828C50.2197 36.0964 50.3988 35.9173 50.6494 35.8457C50.9359 35.7383 51.1686 35.5771 51.3477 35.3623C51.4909 35.2907 51.5804 35.2191 51.6162 35.1475C51.6878 35.0758 51.7594 34.9863 51.8311 34.8789C51.6162 34.8431 51.4372 34.861 51.2939 34.9326C51.1865 34.9684 51.0612 35.0042 50.918 35.04C50.5957 35.2191 50.363 35.3444 50.2197 35.416C50.0407 35.416 49.8975 35.416 49.79 35.416C49.7184 35.3802 49.611 35.3802 49.4678 35.416C49.2171 35.6667 49.0739 35.7741 49.0381 35.7383C49.0381 35.6667 49.0023 35.6667 48.9307 35.7383C48.8949 36.0247 48.7695 36.2217 48.5547 36.3291C48.3757 36.4007 48.1608 36.4723 47.9102 36.5439C47.5163 36.9378 47.0866 37.278 46.6211 37.5645C46.1914 37.8151 45.7617 38.1016 45.332 38.4238C45.5111 38.8177 45.529 39.2474 45.3857 39.7129C45.2425 40.1426 45.2246 40.5544 45.332 40.9482C45.4753 40.984 45.5827 40.9661 45.6543 40.8945C45.7617 40.8229 45.8512 40.7513 45.9229 40.6797C45.9945 40.6081 46.0661 40.5544 46.1377 40.5186C46.2093 40.4469 46.2809 40.4469 46.3525 40.5186C46.46 40.1605 46.7285 40.0352 47.1582 40.1426C47.1224 39.8919 47.194 39.7666 47.373 39.7666C47.5521 39.7308 47.7669 39.7129 48.0176 39.7129C48.3398 39.5697 48.501 39.498 48.501 39.498C48.5368 39.4622 48.6442 39.4085 48.8232 39.3369C48.9307 38.9788 49.0381 38.7461 49.1455 38.6387C49.3962 38.6029 49.5394 38.5312 49.5752 38.4238C49.611 38.2806 49.7184 38.209 49.8975 38.209C50.4346 38.1732 50.7926 38.1374 50.9717 38.1016C51.1507 38.0658 51.3118 38.012 51.4551 37.9404C51.4551 37.7614 51.4014 37.6719 51.2939 37.6719C51.1865 37.6361 51.1328 37.5465 51.1328 37.4033C51.1686 37.2959 51.3118 37.1885 51.5625 37.0811C51.8132 36.9378 51.9743 36.7767 52.0459 36.5977ZM49.9512 39.6592C49.8079 39.4085 49.6468 39.2832 49.4678 39.2832C49.5394 39.4264 49.7005 39.5518 49.9512 39.6592ZM51.9922 42.9355C51.7773 42.8639 51.5804 42.8281 51.4014 42.8281C51.2581 42.7923 51.1865 42.8281 51.1865 42.9355C51.1865 43.2936 51.0075 43.4727 50.6494 43.4727C50.6852 43.6517 50.6315 43.7591 50.4883 43.7949C50.3451 43.7949 50.2197 43.8307 50.1123 43.9023C50.3271 43.9023 50.542 43.9023 50.7568 43.9023C51.0075 43.8665 51.2402 43.8307 51.4551 43.7949C51.6699 43.7233 51.8311 43.6338 51.9385 43.5264C52.0817 43.4189 52.0996 43.222 51.9922 42.9355ZM51.9385 39.7129C52.0459 39.4264 52.0817 39.2116 52.0459 39.0684C52.0459 38.9251 51.9564 38.8356 51.7773 38.7998C51.6341 38.7282 51.4372 38.6924 51.1865 38.6924C50.9717 38.6924 50.7926 38.6924 50.6494 38.6924C50.5778 38.9788 50.4883 39.1937 50.3809 39.3369C50.3092 39.4443 50.2376 39.5518 50.166 39.6592C50.0944 39.7666 49.987 39.8561 49.8438 39.9277C49.7363 39.9635 49.5931 39.9456 49.4141 39.874C49.4141 40.1605 49.3066 40.3216 49.0918 40.3574C48.877 40.3932 48.68 40.3932 48.501 40.3574C48.2503 40.5365 48.0892 40.6439 48.0176 40.6797C47.9818 40.6797 47.946 40.6618 47.9102 40.626C47.8743 40.805 47.6953 40.9303 47.373 41.002C47.1582 41.181 46.9792 41.2884 46.8359 41.3242C46.6927 41.3242 46.5853 41.4137 46.5137 41.5928C46.5853 41.7718 46.5137 41.9329 46.2988 42.0762C46.084 42.1836 45.887 42.3089 45.708 42.4521C45.529 42.5954 45.3857 42.7744 45.2783 42.9893C45.1709 43.1683 45.153 43.3831 45.2246 43.6338C45.6185 43.3831 45.887 43.2041 46.0303 43.0967C46.2093 42.9893 46.4242 42.9714 46.6748 43.043C46.8538 42.8639 47.015 42.6849 47.1582 42.5059C47.3014 42.3268 47.5521 42.2194 47.9102 42.1836C48.2324 41.8971 48.4473 41.7718 48.5547 41.8076C48.6621 41.8076 48.7874 41.7539 48.9307 41.6465C49.2171 41.2884 49.3783 41.1094 49.4141 41.1094C49.4499 41.0736 49.5573 40.9661 49.7363 40.7871C50.0586 40.5007 50.2913 40.3574 50.4346 40.3574C50.5778 40.3216 50.721 40.3037 50.8643 40.3037C51.0075 40.2679 51.1328 40.2321 51.2402 40.1963C51.3835 40.1605 51.473 40.0531 51.5088 39.874L51.9385 39.7129ZM48.9307 41.9688C48.8232 41.8971 48.7337 41.9329 48.6621 42.0762C48.6263 42.1836 48.5189 42.2015 48.3398 42.1299C48.3398 42.4163 48.4294 42.488 48.6084 42.3447C48.8232 42.2015 48.9307 42.0762 48.9307 41.9688ZM52.0459 40.3037C51.6162 40.4111 51.4193 40.4827 51.4551 40.5186C51.5267 40.5544 51.5267 40.5902 51.4551 40.626C51.276 40.5544 51.0791 40.5544 50.8643 40.626C50.6852 40.6618 50.4883 40.626 50.2734 40.5186C50.166 40.8408 50.0586 41.0378 49.9512 41.1094C49.8438 41.181 49.7542 41.2705 49.6826 41.3779C49.611 41.4495 49.5752 41.5391 49.5752 41.6465C49.5752 41.7181 49.6289 41.7718 49.7363 41.8076C50.0228 41.8434 50.1302 41.8971 50.0586 41.9688C50.0228 42.0404 50.0765 42.1299 50.2197 42.2373C49.9333 42.3089 49.79 42.3805 49.79 42.4521C49.79 42.5238 49.7363 42.5417 49.6289 42.5059C49.4499 42.6491 49.3066 42.7744 49.1992 42.8818C49.1276 42.9893 49.0023 43.0609 48.8232 43.0967C48.6442 43.2041 48.501 43.2757 48.3936 43.3115C48.2861 43.3115 48.1966 43.3652 48.125 43.4727C47.8027 43.7233 47.5342 43.9561 47.3193 44.1709C47.1045 44.3499 46.8001 44.4215 46.4062 44.3857C46.2272 44.7438 46.084 44.9766 45.9766 45.084C45.8691 45.1914 45.7438 45.2809 45.6006 45.3525C45.4574 45.4242 45.332 45.5137 45.2246 45.6211C45.1172 45.7285 45.0635 45.8717 45.0635 46.0508C45.2783 46.0508 45.4574 46.015 45.6006 45.9434C45.7438 45.8359 45.8691 45.7285 45.9766 45.6211C46.1198 45.4779 46.263 45.3704 46.4062 45.2988C46.5495 45.2272 46.7285 45.2272 46.9434 45.2988L47.5879 44.8154C47.7669 44.6364 47.8743 44.4932 47.9102 44.3857C47.9818 44.2425 48.0713 44.153 48.1787 44.1172C48.5368 44.2604 48.7337 44.3141 48.7695 44.2783C48.8411 44.2425 48.9307 44.2246 49.0381 44.2246C49.1097 43.9023 49.1813 43.7054 49.2529 43.6338C49.3245 43.5622 49.3962 43.4906 49.4678 43.4189C49.7542 43.2041 50.0407 43.0788 50.3271 43.043C50.6136 42.9714 50.9001 42.8639 51.1865 42.7207C51.4372 42.3626 51.5625 42.1478 51.5625 42.0762C51.5983 42.0046 51.7057 41.9688 51.8848 41.9688C51.7773 41.7539 51.6341 41.6107 51.4551 41.5391C51.1686 41.8255 50.9896 42.0225 50.918 42.1299C50.8822 42.2015 50.7926 42.2194 50.6494 42.1836C50.6852 42.0046 50.6494 41.9329 50.542 41.9688C50.4346 41.9688 50.3809 41.8613 50.3809 41.6465C50.5599 41.6465 50.7031 41.5928 50.8105 41.4854C50.9538 41.3421 51.097 41.36 51.2402 41.5391C51.5625 41.1452 51.7952 40.9124 51.9385 40.8408C52.0817 40.7692 52.1175 40.5902 52.0459 40.3037ZM51.6699 47.5547C51.4909 47.5189 51.3118 47.5547 51.1328 47.6621C50.9896 47.7695 50.8285 47.8411 50.6494 47.877C50.5778 48.235 50.6494 48.3245 50.8643 48.1455C51.0791 47.9665 51.2581 47.9844 51.4014 48.1992C51.4014 48.0202 51.4551 47.9128 51.5625 47.877C51.6699 47.8411 51.7057 47.7337 51.6699 47.5547ZM51.8311 44.7617C51.652 44.4395 51.5804 44.2783 51.6162 44.2783C51.652 44.2783 51.6699 44.2425 51.6699 44.1709C50.9896 44.4932 50.4525 44.7617 50.0586 44.9766C49.7005 45.1556 49.3245 45.2272 48.9307 45.1914C48.7874 45.263 48.6442 45.3704 48.501 45.5137C48.3936 45.6569 48.2503 45.6927 48.0713 45.6211C47.9639 45.8359 47.7848 46.0329 47.5342 46.2119C47.3193 46.391 47.0866 46.4268 46.8359 46.3193C46.8001 46.5342 46.6748 46.7311 46.46 46.9102C46.2809 47.0534 46.084 47.1966 45.8691 47.3398C45.6543 47.4473 45.4574 47.5905 45.2783 47.7695C45.0993 47.9486 45.0098 48.1813 45.0098 48.4678C45.2246 48.7184 45.4395 48.8796 45.6543 48.9512C46.2272 48.5931 46.639 48.2529 46.8896 47.9307C47.1761 47.5726 47.6058 47.3577 48.1787 47.2861C48.2145 47.1429 48.2861 47.0534 48.3936 47.0176C48.5368 46.946 48.68 46.946 48.8232 47.0176C48.7874 46.8743 48.8232 46.7848 48.9307 46.749C49.0739 46.6774 49.2171 46.6774 49.3604 46.749C49.3962 46.4626 49.5394 46.2835 49.79 46.2119C50.0407 46.1045 50.2376 45.9434 50.3809 45.7285C50.7389 45.7643 50.9359 45.7285 50.9717 45.6211C51.0433 45.5137 51.1686 45.4421 51.3477 45.4062C51.4193 45.2272 51.473 45.084 51.5088 44.9766C51.5804 44.8691 51.6878 44.7975 51.8311 44.7617ZM48.3398 48.6826C48.1608 48.5394 47.9818 48.4857 47.8027 48.5215C47.6595 48.5573 47.5521 48.6468 47.4805 48.79C47.6953 48.79 47.8564 48.7542 47.9639 48.6826C48.1071 48.5752 48.2324 48.5752 48.3398 48.6826ZM46.9434 49.2197C46.6927 49.3271 46.46 49.4525 46.2451 49.5957C46.0303 49.7031 45.8691 49.8822 45.7617 50.1328C46.1556 49.9896 46.3883 49.9001 46.46 49.8643C46.5674 49.7926 46.7106 49.7747 46.8896 49.8105C46.8538 49.6673 46.818 49.5599 46.7822 49.4883C46.7822 49.4167 46.8359 49.3271 46.9434 49.2197ZM51.7236 48.5752C51.6162 48.3962 51.5088 48.3245 51.4014 48.3604C51.2939 48.3604 51.1686 48.3962 51.0254 48.4678C50.8822 48.5394 50.7568 48.5931 50.6494 48.6289C50.542 48.6647 50.4346 48.611 50.3271 48.4678C50.2555 48.611 50.1302 48.7005 49.9512 48.7363C49.8079 48.7721 49.7363 48.8796 49.7363 49.0586C49.4141 49.166 49.1455 49.2555 48.9307 49.3271C48.7158 49.363 48.4473 49.363 48.125 49.3271C48.304 49.6852 48.3219 49.8643 48.1787 49.8643C48.0713 49.8643 47.9639 49.8822 47.8564 49.918C47.6774 50.1328 47.4805 50.3118 47.2656 50.4551C47.0508 50.5983 46.7822 50.6878 46.46 50.7236C46.4958 50.9027 46.46 51.0101 46.3525 51.0459C46.2451 51.0817 46.1019 51.1175 45.9229 51.1533C45.6364 51.4398 45.332 51.7262 45.0098 52.0127C44.7233 52.2992 44.3652 52.514 43.9355 52.6572C43.8281 52.9795 43.6491 53.1764 43.3984 53.248C43.1836 53.2839 42.9867 53.3913 42.8076 53.5703C43.667 53.5703 44.6159 53.5882 45.6543 53.624C46.7285 53.624 47.7311 53.6419 48.6621 53.6777C48.6979 53.4987 48.68 53.3734 48.6084 53.3018C48.5368 53.1943 48.4652 53.0332 48.3936 52.8184C48.68 52.6035 48.9844 52.4066 49.3066 52.2275C49.6647 52.0127 49.987 51.7799 50.2734 51.5293C50.5599 51.3145 50.8464 51.207 51.1328 51.207C50.8822 50.849 50.6673 50.7415 50.4883 50.8848C50.3451 50.9922 50.1481 50.9922 49.8975 50.8848C49.7184 50.9922 49.5931 51.0996 49.5215 51.207C49.4857 51.2786 49.4499 51.3503 49.4141 51.4219C49.3066 51.4935 49.1634 51.5472 48.9844 51.583C48.8411 51.583 48.7158 51.6367 48.6084 51.7441C48.4652 52.0306 48.3398 52.1738 48.2324 52.1738C48.1608 52.1738 48.0713 52.2096 47.9639 52.2812C47.57 52.5677 47.3193 52.7109 47.2119 52.7109C47.1045 52.7109 47.015 52.7467 46.9434 52.8184C46.8001 52.9616 46.6927 53.1048 46.6211 53.248C46.5495 53.3555 46.4421 53.4271 46.2988 53.4629C46.1198 53.4987 45.9408 53.4808 45.7617 53.4092C45.5827 53.3018 45.4753 53.1585 45.4395 52.9795C45.4395 52.693 45.5648 52.514 45.8154 52.4424C46.1019 52.3708 46.3346 52.2633 46.5137 52.1201C46.7643 51.9411 46.9434 51.7799 47.0508 51.6367C47.194 51.4577 47.3372 51.3503 47.4805 51.3145C48.0176 51.0638 48.4652 50.849 48.8232 50.6699C49.2171 50.4551 49.5752 50.2044 49.8975 49.918C50.2197 49.7747 50.4704 49.6315 50.6494 49.4883C50.8285 49.3451 51.0612 49.2376 51.3477 49.166C51.4193 49.0586 51.473 48.9691 51.5088 48.8975C51.5804 48.79 51.652 48.6826 51.7236 48.5752ZM47.4268 25.4795C47.391 25.5869 47.3372 25.6406 47.2656 25.6406C47.2298 25.6406 47.1761 25.6227 47.1045 25.5869C47.0329 25.5511 46.9613 25.5153 46.8896 25.4795C46.818 25.4437 46.7464 25.4616 46.6748 25.5332C47.1045 25.6406 47.3014 25.6585 47.2656 25.5869C47.2656 25.4795 47.3193 25.4437 47.4268 25.4795Z" fill="black"/>
</svg>
